<?xml version="1.0" encoding="UTF-8"?>
<svg id="b" data-name="Layer 2" xmlns="http://www.w3.org/2000/svg" viewBox="0 0 255.63 233.92">
  <defs>
    <style>
      .e {
        fill: #6066af;
      }
    </style>
  </defs>
  <g id="c" data-name="Layer 1">
    <g id="d" data-name="YTkPw1.tif">
      <g>
        <path class="e" d="m127.64,59.71c-38.77,0-77.54.02-116.32-.05-2.26,0-2.87.56-2.87,2.85.07,42.59.05,85.17.06,127.76,0,6.7,3.2,9.88,9.97,9.89,13.31.01,26.62,0,39.94.02,1.07,0,2.19.02,3.2.32,1.99.6,2.96,2.08,2.87,4.16-.09,2.08-1.21,3.43-3.24,3.87-.96.21-1.98.18-2.98.18-13.15.01-26.29.02-39.44,0C6.84,208.7,0,201.83,0,189.81,0,132.83,0,75.86,0,18.88,0,6.94,6.95,0,18.92,0,91.63,0,164.35,0,237.07,0c9.86,0,16.8,5.5,18.32,14.53.21,1.22.21,2.48.21,3.73.01,22.37,0,44.75,0,67.12,0,.42.01.83,0,1.25-.12,2.74-1.83,4.57-4.25,4.58-2.44,0-4.22-1.82-4.24-4.57-.05-7.07-.02-14.14-.02-21.21q0-5.72-5.64-5.72c-37.94,0-75.88,0-113.82,0Zm.12-8.52c38.85,0,77.7-.02,116.54.05,2.33,0,2.87-.66,2.85-2.9-.12-9.73-.05-19.46-.05-29.19,0-7.56-3.04-10.61-10.56-10.61-28.03,0-56.07,0-84.1,0-44.26,0-88.51,0-132.77,0-8.27,0-11.15,2.84-11.15,11.02,0,9.56.09,19.13-.06,28.69-.04,2.42.6,3.01,3.01,3,38.76-.08,77.53-.06,116.3-.06Z"/>
        <path class="e" d="m255.6,120.8c-.25,6.04-3.06,10.81-8.22,14.36-16.92,11.64-33.79,23.34-50.68,35.02-22.77,15.75-45.58,31.43-68.27,47.29-4.65,3.25-9.49,5.5-15.05,6.74-13.05,2.91-26,6.23-39,9.36-4.04.97-7.39-.18-9.5-3.18-2.18-3.1-2.15-6.74.23-10.23,8.65-12.72,17.33-25.41,25.99-38.12.96-1.4,2.17-2.5,3.55-3.45,41.24-28.51,82.46-57.03,123.71-85.52,8.88-6.14,18.9-4.3,25.05,4.53,2.99,4.3,5.96,8.61,8.94,12.92,2.09,3.02,3.19,6.36,3.25,10.28Zm-77.42,10.48c-.53.35-1.09.7-1.64,1.08-24.41,16.87-48.81,33.75-73.24,50.59-1.42.98-1.82,1.58-.67,3.21,5.68,7.99,11.25,16.07,16.74,24.19,1.11,1.64,1.85,1.73,3.44.61,10.82-7.58,21.72-15.06,32.59-22.57,13.54-9.36,27.08-18.71,40.6-28.09.84-.58,2.24-.87,1.05-2.56-5.98-8.49-11.85-17.06-17.78-25.6-.26-.37-.4-.95-1.1-.87Zm50.48-33.23c-1.66-.05-3.34.58-4.89,1.65-6.42,4.45-12.83,8.91-19.29,13.29-1.14.77-1.35,1.3-.51,2.49,5.86,8.37,11.67,16.77,17.45,25.2.71,1.03,1.23,1.24,2.33.47,6.53-4.58,13.16-9.01,19.65-13.65,4.09-2.92,4.92-7.7,2.14-11.88-3.13-4.7-6.38-9.32-9.63-13.94-1.68-2.39-4.03-3.65-7.24-3.64Zm-13.55,48.47c-.17-.26-.34-.54-.53-.81-5.91-8.54-11.84-17.07-17.71-25.63-.73-1.06-1.28-.94-2.18-.28-2.56,1.84-5.16,3.64-7.8,5.37-1.05.69-1.29,1.19-.5,2.33,5.91,8.44,11.76,16.92,17.6,25.41.62.91,1.06,1.25,2.11.47,2.61-1.92,5.32-3.7,7.97-5.56.44-.31,1.1-.49,1.03-1.28Zm-119.6,44.22c-3.37,4.94-6.48,9.55-9.66,14.1-.64.92-.25,1.5.24,2.21,2.65,3.82,5.33,7.63,7.92,11.5.66.99,1.33,1.23,2.47.94,4.83-1.22,9.67-2.39,14.52-3.51,1.23-.28,1.56-.64.76-1.78-5.37-7.7-10.7-15.42-16.25-23.45Zm-23.59,34.69c5.06-1.24,9.46-2.32,14.11-3.45-2.07-2.99-3.94-5.7-5.95-8.61-2.16,3.15-4.18,6.09-6.19,9.04-.55.81-1.08,1.64-1.98,3.03Z"/>
        <path class="e" d="m204.97,208.72c-11.07,0-22.13,0-33.2,0-1,0-2.01.02-2.98-.15-2.19-.38-3.38-1.84-3.46-3.96-.07-2.13,1.04-3.68,3.19-4.18,1.04-.24,2.14-.24,3.22-.24,21.63-.01,43.27,0,64.9-.01,7.43,0,10.46-3.02,10.46-10.41,0-13.23,0-26.45,0-39.68,0-.67-.02-1.33.01-2,.14-2.55,1.88-4.37,4.19-4.4,2.29-.03,4.19,1.79,4.29,4.29.1,2.49.03,4.99.03,7.49,0,11.73.01,23.46,0,35.18-.02,10.83-7.07,17.98-17.94,18.05-10.9.07-21.8.02-32.7.02Z"/>
        <path class="e" d="m70.21,102.23c-14.22,0-28.44,0-42.66,0-.75,0-1.5.03-2.24-.03-2.32-.21-3.86-1.81-3.93-4.05-.07-2.23,1.37-4,3.61-4.36.73-.12,1.49-.07,2.24-.07,28.69,0,57.37,0,86.06,0,.67,0,1.34-.04,1.99.03,2.36.26,4.04,2.12,3.99,4.33-.05,2.24-1.76,4.01-4.18,4.11-2.16.1-4.32.03-6.48.03-12.8,0-25.61,0-38.41,0Z"/>
        <path class="e" d="m185.21,80.96c-14.22,0-28.43,0-42.65,0-4.23,0-6.31-1.46-6.23-4.35.07-2.8,2.11-4.19,6.18-4.19,28.52,0,57.03,0,85.55,0,.91,0,1.85-.02,2.73.17,2.24.47,3.45,1.9,3.44,4.22,0,2.15-1.42,3.73-3.63,4.04-.9.13-1.82.11-2.74.11-14.22,0-28.43,0-42.65,0Z"/>
        <path class="e" d="m70.47,115.07c14.22,0,28.44,0,42.65,0,.83,0,1.67-.04,2.49.07,2.19.32,3.43,1.71,3.62,3.83.18,2.03-.84,3.48-2.76,4.27-.96.4-1.95.34-2.95.34-28.85,0-57.7,0-86.55-.01-.9,0-1.85-.04-2.7-.31-2.09-.67-3.07-2.22-2.87-4.39.21-2.19,1.5-3.45,3.67-3.74.82-.11,1.66-.06,2.49-.06,14.3,0,28.6,0,42.9,0Z"/>
        <path class="e" d="m70.4,72.41c13.88,0,27.77,0,41.65,0,.58,0,1.16,0,1.75,0,3.52.05,5.55,1.68,5.48,4.39-.07,2.64-1.97,4.15-5.43,4.15-23.78.01-47.55,0-71.33,0-5.49,0-10.97,0-16.46-.01-2.33,0-4.06-.94-4.59-3.35-.53-2.4.88-4.52,3.31-5,.97-.19,1.98-.17,2.98-.18,14.22-.01,28.43,0,42.65,0Z"/>
        <path class="e" d="m70.12,144.84c-14.13,0-28.27,0-42.4,0-.99,0-2.01.03-2.98-.16-2.03-.39-3.21-1.7-3.34-3.78-.14-2.18.87-3.71,2.98-4.31.94-.27,1.97-.28,2.96-.28,28.6-.01,57.2-.01,85.8-.01.42,0,.83-.01,1.25,0,2.99.13,4.85,1.74,4.9,4.22.05,2.57-1.86,4.3-5.01,4.3-14.71.03-29.43.01-44.15.02Z"/>
        <path class="e" d="m60.86,166.11c-11.48,0-22.96-.01-34.44.01-1.76,0-3.31-.32-4.36-1.87-1.72-2.55-.26-5.98,2.82-6.56.73-.14,1.49-.09,2.24-.09,22.54,0,45.09,0,67.63,0,.58,0,1.17-.03,1.75.03,2.42.23,4.09,1.96,4.1,4.22.01,2.36-1.74,4.18-4.3,4.24-3.82.08-7.65.03-11.48.03-7.99,0-15.97,0-23.96,0Z"/>
        <path class="e" d="m164.01,102.23c-7.48,0-14.95.01-22.43,0-3.31,0-5.3-1.66-5.26-4.3.04-2.54,2.02-4.2,5.14-4.2,15.03-.02,30.07,0,45.1-.02,2.08,0,3.76.57,4.72,2.55.72,1.49.51,2.91-.43,4.23-1.02,1.42-2.48,1.77-4.16,1.76-7.56-.03-15.12-.01-22.68-.01Z"/>
        <path class="e" d="m46.91,178.95c6.82,0,13.64-.02,20.46,0,3.19.01,5.05,1.63,5.02,4.25-.03,2.58-1.95,4.24-5.1,4.25-13.64.02-27.29.03-40.93,0-4.02-.01-6.27-3.38-4.42-6.46.97-1.61,2.47-2.06,4.25-2.06,6.9.03,13.81.01,20.71.01Z"/>
        <path class="e" d="m225.69,191.65c-2.66,0-5.32.05-7.98-.01-2.93-.06-4.58-1.57-4.64-4.1-.06-2.59,1.7-4.32,4.65-4.39,3.24-.08,6.49-.14,9.72.02,2.01.1,2.8-.4,2.67-2.57-.19-3.23-.08-6.48-.04-9.72.04-2.89,1.82-4.81,4.3-4.76,2.37.05,4.16,1.94,4.19,4.67.06,5.4.07,10.8,0,16.2-.04,3.01-1.65,4.57-4.66,4.64-2.74.06-5.48.01-8.23.02Z"/>
        <path class="e" d="m149.25,115.08c2.74,0,5.47-.06,8.21.02,2.67.07,4.31,1.68,4.36,4.1.04,2.38-1.6,4.29-4.17,4.34-5.72.12-11.44.12-17.16,0-2.51-.05-4.24-2.1-4.16-4.39.09-2.33,1.84-3.98,4.46-4.05,2.82-.07,5.64-.02,8.46-.01Z"/>
        <path class="e" d="m64.26,17.1c7.05.26,12.62,6.08,12.43,12.99-.2,7.12-6.2,12.85-13.15,12.56-7.04-.29-12.61-6.13-12.43-13.03.18-7.13,6.12-12.78,13.15-12.52Zm-.27,8.58c-2.39-.05-4.27,1.78-4.29,4.15-.01,2.37,1.88,4.27,4.23,4.25,2.25-.02,4.08-1.81,4.16-4.07.09-2.38-1.72-4.29-4.11-4.33Z"/>
        <path class="e" d="m85.26,29.98c-.05-7.15,5.64-12.91,12.73-12.9,6.99.01,12.72,5.68,12.79,12.65.07,7.03-5.76,12.92-12.79,12.93-6.95.01-12.68-5.69-12.73-12.68Zm16.98-.22c-.06-2.34-2.02-4.16-4.41-4.08-2.41.08-4.14,1.97-4.02,4.4.1,2.25,1.98,4.03,4.22,4.01,2.3-.02,4.27-2.05,4.21-4.33Z"/>
        <path class="e" d="m42.55,29.81c.02,7.13-5.76,12.93-12.8,12.86-6.95-.07-12.69-5.82-12.72-12.76-.03-7.06,5.79-12.86,12.87-12.82,7.02.04,12.64,5.69,12.66,12.72Zm-8.54.02c-.01-2.41-1.86-4.2-4.28-4.15-2.26.05-4.1,1.86-4.15,4.1-.05,2.29,1.91,4.3,4.22,4.32,2.34.02,4.23-1.89,4.22-4.26Z"/>
      </g>
    </g>
  </g>
</svg>