<svg xmlns="http://www.w3.org/2000/svg" viewBox="0 0 200.14 222.29">
  <defs>
    <style>
      .a, .c, .d, .e, .f, .g, .h {
        stroke: #f7be00;
      }

      .a, .c, .d, .e, .f, .g {
        stroke-miterlimit: 10;
      }

      .a {
        stroke-width: 5px;
      }

      .b, .d {
        fill: #f7be00;
      }

      .c, .h {
        stroke-width: 6px;
      }

      .e {
        fill: none;
      }

      .f {
        stroke-width: 5.2px;
      }

      .g {
        stroke-width: 5.07px;
      }

      .h {
        stroke-linecap: round;
        stroke-linejoin: round;
      }
    </style>
  </defs>
  <title>Asset 1</title>
  <g>
    <rect class="a" x="26.78" y="24.74" width="27.01" height="86.58" rx="12.02" transform="translate(-12.24 8.94) rotate(-11)"/>
    <rect class="a" x="122.49" y="2.51" width="27.34" height="95.87" rx="12.16" transform="matrix(1, 0.08, -0.08, 1, 4.24, -10.24)"/>
    <g>
      <g>
        <path d="M118.89,144.53v0Z"/>
        <path class="b" d="M118.9,144.48v0Z"/>
      </g>
      <g>
        <path d="M63.22,219.79C47.67,219.79,31,204.08,31,193V159.79c.94.11,2.15.38,3.26.62a24.5,24.5,0,0,0,4.94.78h84.13l-1.33-3.4a23.17,23.17,0,0,1-.66-10.22c.7-3.15,3.92-7,6.66-7a2.6,2.6,0,0,1,.56.06l37.53,8.28c.15,0,.28.08.42.12l.19.06.26,0a9.45,9.45,0,0,1,4.22,1.74,9.55,9.55,0,0,1,2,13.19L155.65,188l-11.06,16.53a8.66,8.66,0,0,0-.64,1.21c-.1.21-.25.54-.34.68a4.28,4.28,0,0,0-.88,2.33c0,.08,0,.16,0,.23-4.11,5.31-10.95,10.83-18.21,10.83Z"/>
        <path class="b" d="M128,143.06h0l37.51,8.27.24.08h.06l.38.12.4.06a6.68,6.68,0,0,1,3.08,1.27,7,7,0,0,1,1.45,9.71l-17.45,23.83-.06.09-.06.09-11,16.52a11,11,0,0,0-.84,1.56c0,.1-.11.23-.16.33a6.41,6.41,0,0,0-1.18,2.91c-3.76,4.68-9.71,9.38-15.86,9.38H63.22c-14.06,0-29.72-14.47-29.72-24.27V162.81l.22.05a26.84,26.84,0,0,0,5.48.83H127l-2.65-6.81a21.18,21.18,0,0,1-.56-8.76c.56-2.51,3.12-5.06,4.23-5.06m0-5c-4.11,0-8.19,4.88-9.11,9a25.47,25.47,0,0,0,.78,11.66H39.2c-2.28,0-6.62-1.46-9-1.46-1,0-1.69.26-1.69,1V193c0,12.9,18.27,29.27,34.72,29.27h61.26c8.73,0,16.36-6.7,20.5-12.2.14-.2.31-1.83.48-2a17.09,17.09,0,0,0,1.21-2.18l11.06-16.53,17.45-23.83a12,12,0,0,0-2.51-16.69,11.71,11.71,0,0,0-5.36-2.2c-.23-.07-.45-.14-.68-.19l-37.54-8.28a5,5,0,0,0-1.09-.12Z"/>
      </g>
    </g>
    <g>
      <path class="c" d="M194.13,149.63a143.16,143.16,0,0,0-4.68-13.78c-13.21-33.5-42.12-73.21-80.57-55.48A89.83,89.83,0,0,0,91.94,90.78c-.31.24-1.9,1.32-3.39,2.45a7.2,7.2,0,0,1-6.39,1.17c-1.8-.52-3.67-1-4-1.08a90.37,90.37,0,0,0-19.54-3.7C13,86.5,1.61,141.8,3.13,178.3c.09,2.2.23,4.33.41,6.37,1,11.76,2.67,24.27,15.31,28.8,8.74,3.13,17.41,1.39,24.64-4.28,8.34-6.53,25.57-37,25.57-37s61.09-6.47,62.69-9.51c2.33,1.58,7.34,8.95,9.75,10.63,15.69,11,32.73,22.25,48.56,8.71C200.27,173.26,197.35,161,194.13,149.63Z"/>
      <g>
        <g>
          <circle class="d" cx="47.31" cy="140.18" r="23.48" transform="translate(-94.84 181.17) rotate(-87.44)"/>
          <g>
            <g>
              <path d="M49.5,123.8l-11.68,2.75a.85.85,0,0,0-.63,1l.9,3.83a3.12,3.12,0,0,0,1.52,2l5.75,3.23a1.59,1.59,0,0,0,2.11-.52l3.54-5.4a3.16,3.16,0,0,0,.43-2.45l-.91-3.85A.86.86,0,0,0,49.5,123.8Z"/>
              <path class="e" d="M49.5,123.8l-11.68,2.75a.85.85,0,0,0-.63,1l.9,3.83a3.12,3.12,0,0,0,1.52,2l5.75,3.23a1.59,1.59,0,0,0,2.11-.52l3.54-5.4a3.16,3.16,0,0,0,.43-2.45l-.91-3.85A.86.86,0,0,0,49.5,123.8Z"/>
            </g>
            <g>
              <path d="M63.69,142.36l-2.75-11.68a.85.85,0,0,0-1-.63l-3.83.9a3.12,3.12,0,0,0-2,1.52l-3.23,5.75a1.59,1.59,0,0,0,.52,2.11l5.4,3.54a3.16,3.16,0,0,0,2.45.43l3.85-.91A.86.86,0,0,0,63.69,142.36Z"/>
              <path class="e" d="M63.69,142.36l-2.75-11.68a.85.85,0,0,0-1-.63l-3.83.9a3.12,3.12,0,0,0-2,1.52l-3.23,5.75a1.59,1.59,0,0,0,.52,2.11l5.4,3.54a3.16,3.16,0,0,0,2.45.43l3.85-.91A.86.86,0,0,0,63.69,142.36Z"/>
            </g>
            <g>
              <path d="M45.13,156.55l11.68-2.75a.85.85,0,0,0,.63-1l-.9-3.83a3.14,3.14,0,0,0-1.52-2l-5.75-3.23a1.6,1.6,0,0,0-2.11.52l-3.54,5.4a3.16,3.16,0,0,0-.43,2.45l.91,3.86A.85.85,0,0,0,45.13,156.55Z"/>
              <path class="e" d="M45.13,156.55l11.68-2.75a.85.85,0,0,0,.63-1l-.9-3.83a3.14,3.14,0,0,0-1.52-2l-5.75-3.23a1.6,1.6,0,0,0-2.11.52l-3.54,5.4a3.16,3.16,0,0,0-.43,2.45l.91,3.86A.85.85,0,0,0,45.13,156.55Z"/>
            </g>
            <g>
              <path d="M30.94,138l2.75,11.68a.87.87,0,0,0,1,.64l3.83-.91a3.14,3.14,0,0,0,2-1.52l3.23-5.75a1.59,1.59,0,0,0-.52-2.11l-5.4-3.54a3.16,3.16,0,0,0-2.45-.43l-3.85.91A.85.85,0,0,0,30.94,138Z"/>
              <path class="e" d="M30.94,138l2.75,11.68a.87.87,0,0,0,1,.64l3.83-.91a3.14,3.14,0,0,0,2-1.52l3.23-5.75a1.59,1.59,0,0,0-.52-2.11l-5.4-3.54a3.16,3.16,0,0,0-2.45-.43l-3.85.91A.85.85,0,0,0,30.94,138Z"/>
            </g>
          </g>
        </g>
        <g>
          <circle class="d" cx="140.12" cy="125.86" r="23.48" transform="matrix(0.52, -0.86, 0.86, 0.52, -40.14, 180.45)"/>
          <g>
            <g>
              <circle cx="137.37" cy="114.63" r="7.05" transform="translate(-0.36 0.43) rotate(-0.18)"/>
              <circle class="e" cx="137.37" cy="114.63" r="7.05" transform="translate(-0.36 0.43) rotate(-0.18)"/>
            </g>
            <g>
              <path d="M150.58,116.81a7,7,0,1,0,8.53,5.16A7,7,0,0,0,150.58,116.81Z"/>
              <path class="e" d="M150.58,116.81a7,7,0,1,0,8.53,5.16A7,7,0,0,0,150.58,116.81Z"/>
            </g>
            <g>
              <path d="M130,136.36a7,7,0,1,0-8.52-5.16A7,7,0,0,0,130,136.36Z"/>
              <path class="e" d="M130,136.36a7,7,0,1,0-8.52-5.16A7,7,0,0,0,130,136.36Z"/>
            </g>
            <g>
              <path d="M150.08,136.87a7,7,0,1,0-5.17,8.52A7,7,0,0,0,150.08,136.87Z"/>
              <path class="e" d="M150.08,136.87a7,7,0,1,0-5.17,8.52A7,7,0,0,0,150.08,136.87Z"/>
            </g>
          </g>
        </g>
      </g>
    </g>
    <rect class="f" x="61" y="53.27" width="27.74" height="60.8" rx="11.54" transform="translate(-14.59 15.82) rotate(-11)"/>
    <rect class="g" x="91.9" y="51.82" width="26.43" height="60.8" rx="11.26"/>
    <path class="h" d="M124.84,219.2a21.48,21.48,0,0,0,17-8.66l30-40.3a12.93,12.93,0,0,0-6.53-20.08l-37.91-11.79a7.26,7.26,0,0,0-9.06,4.68,16.92,16.92,0,0,0,11,21.39L144,169c-6-.93-14.83.49-20.29,2.06-13.22,3.79-27.13,15.12-27.48,30.07-.31,13.68,16,17.8,26.89,18.07Z"/>
  </g>
</svg>
