<svg xmlns="http://www.w3.org/2000/svg" xmlns:xlink="http://www.w3.org/1999/xlink" viewBox="0 0 2000 1230.77">
  <defs>
    <style>
      .a {
        fill: url(#a);
      }

      .b {
        isolation: isolate;
      }

      .c {
        clip-path: url(#c);
      }

      .d {
        opacity: 0.5;
        mix-blend-mode: color-dodge;
        fill: url(#d);
      }

      .e {
        fill: url(#e);
      }

      .f {
        fill: url(#f);
      }

      .g {
        fill: url(#g);
      }

      .h {
        fill: url(#h);
      }

      .i {
        opacity: 0.8;
        fill: url(#i);
      }

      .j {
        fill: url(#j);
      }

      .k {
        mix-blend-mode: overlay;
      }

      .l {
        fill: #fff;
        opacity: 0.15;
      }
    </style>
    <linearGradient id="a" x1="811.26" y1="1168.51" x2="1304.14" y2="-275.94" gradientUnits="userSpaceOnUse">
      <stop offset="0" stop-color="#0c042e"/>
      <stop offset="0.33" stop-color="#221c3a"/>
      <stop offset="1" stop-color="#575757"/>
    </linearGradient>
    <clipPath id="c">
      <rect class="a" width="2000" height="1230.77"/>
    </clipPath>
    <linearGradient id="d" x1="459.09" y1="-142.01" x2="963.36" y2="716.96" gradientUnits="userSpaceOnUse">
      <stop offset="0"/>
      <stop offset="0.23" stop-color="#050505"/>
      <stop offset="0.49" stop-color="#131313"/>
      <stop offset="0.77" stop-color="#292929"/>
      <stop offset="1" stop-color="#424242"/>
    </linearGradient>
    <linearGradient id="e" x1="159.18" y1="108.58" x2="640.67" y2="928.74" gradientTransform="matrix(0.97, -0.23, 0.23, 0.97, -217.54, -117.98)" xlink:href="#a"/>
    <linearGradient id="f" x1="1411.97" y1="729.16" x2="1779.49" y2="1193.54" xlink:href="#a"/>
    <linearGradient id="g" x1="179.25" y1="811.62" x2="313.16" y2="1048.09" gradientUnits="userSpaceOnUse">
      <stop offset="0" stop-color="#fc9512"/>
      <stop offset="0.35" stop-color="#fd5f35"/>
      <stop offset="0.79" stop-color="#fe225c"/>
      <stop offset="1" stop-color="#ff0a6c"/>
    </linearGradient>
    <linearGradient id="h" x1="539.8" y1="-426.33" x2="673.7" y2="-189.86" gradientTransform="matrix(-0.13, -0.48, -0.63, 0.02, -16.02, 369.46)" xlink:href="#g"/>
    <linearGradient id="i" x1="1629.04" y1="186.27" x2="1307.1" y2="596.52" xlink:href="#a"/>
    <linearGradient id="j" x1="2046.97" y1="565.03" x2="1845.43" y2="251.15" gradientTransform="matrix(0.96, 0.03, 0.03, 0.98, -32.24, 25.81)" xlink:href="#g"/>
  </defs>
  <title>bg-modern-blobs</title>
  <g class="b">
    <g>
      <rect class="a" width="2000" height="1230.77"/>
      <g class="c">
        <path class="d" d="M-126.34,105C-20.48-74.63,134.48-106.2,322.59-99.54c161,5.71,335.45,49.63,483.26-10.61,147.35-60,248.53-169.82,408.2-161.62,214.06,11,308.16,181.81,297.14,348.31-15.28,230.86-214.46,346.28-413.52,331.53-164.73-12.2-339.19-28.75-485,76.65C478.39,581.8,389.59,795.9,201.57,800.5-11.67,805.71-322.14,437.32-126.34,105Z"/>
        <g>
          <path class="e" d="M-528.1,308.69C-468.87,118.6-331.7,55.45-155.38,20.63-4.51-9.17,167.27-6.39,291.54-94.61c123.88-87.95,194-212.07,344.21-239.26,201.39-36.46,326.12,101.81,352.18,259,36.14,217.94-123.85,368.66-312.11,398.36-155.8,24.58-321.58,47.24-434.13,177C138,620,102.16,838.41-71.62,883.69-268.71,935-637.65,660.28-528.1,308.69Z"/>
          <path class="f" d="M2119.14,914.51c-98,118.59-282,83.11-422.91,133.64-162.35,58.21-292.42,156.53-454.19,233.95-157,75.16-420.76-50.66-238.61-312.7,71.74-103.19,139.85-177.36,187.48-300.15,53-136.7,87.68-259.91,222.77-323.24C1754.8,186.09,2387.6,589.6,2119.14,914.51Z"/>
          <path class="g" d="M450.15,730.11c83.27-82.67-11.61-164.34-119.2-67.5-73.41,66.08-112.36,164-174.52,236.07-57.26,66.38-127.94,37.75-200.5,64.5-155,57.15,128.17,261.35,259.44,191.91,92-48.65,78.49-180.07,101-257.29C340.39,815.4,394.19,785.68,450.15,730.11Z"/>
          <path class="h" d="M199.05-34.25c41.26-42.15,104.76,1.91,57.72,56.16-32.11,37-88.65,58.06-125.95,89.76-34.36,29.2-7.3,62.76-14.79,98.47C100,286.43-64.67,154-37.88,88.93c18.77-45.6,103.08-42,148.72-54.67C159.54,20.78,171.31-5.92,199.05-34.25Z"/>
          <path class="i" d="M1224.54,94.92C1303.65,1.26,1450,31.12,1562.67-7.93c129.87-45,234.36-122.21,363.93-182.52,125.76-58.53,334.83,44,187.43,251.22-58.05,81.62-113,140.12-152,237.56C1918.65,406.8,1890,504.68,1781.78,554,1508.59,678.48,1007.82,351.5,1224.54,94.92Z"/>
          <path class="j" d="M2187.76,246.08c14.24-70.21,75.15-103.46,83.71-177.48,18.67-161.14-143-247.77-217.42-124.69-37.85,62.6-52.16,140.7-97.4,197.9-45.92,58-115.24,66.22-172.05,108.06-104.38,76.9-134.57,219-261.14,277-291.89,133.6-280,306-66.3,314.46,178.78,7.09,227.2-231.67,456.76-228.25C2287.33,618.63,2156.8,398.81,2187.76,246.08Z"/>
          <g class="k">
            <path class="l" d="M766,1369c-1.53,0-3.07,0-4.62,0-101.81-1.68-165.27-31-174.12-80.53-7-39.2,21.34-88.12,79.82-137.76,64.73-54.94,163.84-109.17,286.61-156.82,104-40.35,178.32-112.77,250.2-182.8,55.54-54.11,113-110.06,183.68-150.83,34.82-20.09,70.78-34.18,105.56-47.81,55.06-21.56,107.06-41.94,155.08-84,44.47-39,78.82-86.63,112-132.67,25.23-35,51.31-71.13,81.74-103.45,75.92-80.65,159.63-84.63,208.92-52.79,43.88,28.33,75.9,94.61,34.18,195.66-19.16,46.39-54.06,80.25-87.8,113-30.2,29.29-61.42,59.58-81.33,98.8l-1-.48,1,.48c-22.29,43.9-33.69,93-44.7,140.4-17.1,73.61-34.78,149.72-93.82,205.83-66,62.71-178.32,93.68-343.41,94.68-157.08.94-269.41,78.91-378,154.32C962,1307.31,873.17,1369,766,1369ZM1984.75,223c-43,0-93.63,20.15-141.21,70.68-30.33,32.22-56.37,68.33-81.56,103.24-33.28,46.14-67.7,93.84-112.35,133-48.3,42.36-100.47,62.8-155.71,84.45C1459.22,628,1423.33,642,1388.65,662c-70.48,40.64-127.81,96.5-183.25,150.51-72,70.18-146.54,142.76-250.92,183.27-122.55,47.56-221.45,101.66-286,156.45-57.87,49.12-86,97.33-79.1,135.76,8.65,48.39,71.36,77.1,172.06,78.76,1.52,0,3.06,0,4.57,0,106.52,0,195.07-61.47,288.76-126.5,108.9-75.59,221.52-153.75,379.25-154.7,164.52-1,276.38-31.77,342-94.09,58.57-55.67,76.18-131.46,93.2-204.76,11-47.57,22.48-96.75,44.88-140.89,20.07-39.53,51.43-69.95,81.75-99.36,33.59-32.59,68.32-66.28,87.31-112.27,41.22-99.83,9.8-165.18-33.36-193C2032,229.73,2009.62,223,1984.75,223Z"/>
          </g>
          <g class="k">
            <path class="l" d="M17.27,889.41c-2.8,0-5.57,0-8.34-.14-56.59-1.92-103.14-24.16-127.72-61-36-54-23.77-142.72,84.84-219l.62.87-.62-.87c36.11-25.38,71.33-47.47,105.38-68.82C184.82,469.26,282.75,407.84,352.28,265c23-47.3,41.29-104.94,60.65-166,51.81-163.35,110.53-348.51,285-405.79,169.28-55.6,394.26,63.72,531.67,198.1,105.34,103,155.36,206.88,133.8,277.78-13.9,45.73-56.15,75.47-125.57,88.39-67.06,12.48-130.52,7.5-191.9,2.69-106.75-8.36-207.57-16.27-311,69C660.5,390.58,592.56,466.07,526.85,539.08c-91.63,101.8-186.39,207.07-303.39,281C151.55,865.55,80.47,889.41,17.27,889.41ZM789.83-318.66c-31.6,0-62.25,4.35-91.27,13.89C525.16-247.83,466.62-63.23,415,99.64c-19.38,61.11-37.69,118.83-60.77,166.26-69.8,143.42-168,205-281.64,276.3C38.54,563.54,3.35,585.61-32.72,611-140.15,686.45-152.47,773.89-117,827.06c47.94,71.9,179.89,92,339.33-8.77C339.07,744.5,433.73,639.34,525.26,537.64,591,464.58,659,389,733.56,327.55c104.07-85.86,205.31-77.93,312.5-69.52,61.24,4.8,124.56,9.77,191.34-2.66,68.58-12.76,110.27-42,123.92-86.91,21-69.08-30.06-174.69-133.25-275.63C1114.71-218,941.61-318.66,789.83-318.66Z"/>
          </g>
        </g>
      </g>
    </g>
  </g>
</svg>
