<svg xmlns="http://www.w3.org/2000/svg" xmlns:xlink="http://www.w3.org/1999/xlink" viewBox="0 0 2000 1230">
  <defs>
    <style>
      .a {
        fill: none;
      }

      .b {
        isolation: isolate;
      }

      .c {
        clip-path: url(#a);
      }

      .d {
        fill: #ffba01;
      }

      .e {
        clip-path: url(#b);
      }

      .f {
        fill: url(#c);
      }

      .g {
        mix-blend-mode: multiply;
        fill: url(#d);
      }
    </style>
    <clipPath id="a">
      <rect class="a" width="2000" height="1230"/>
    </clipPath>
    <clipPath id="b">
      <path class="a" d="M453,63.45c25.52,2.47,48.15,5.61,66.18,10.37,64.1,16.93,121.6,40.64,153.4,70.09,32.25,29.87,61.06,60.41,125.58,81.15,63.27,20.35,147.1,24.85,226.43,24.45s159.22-5,237.63.16c95.07,6.22,181.64,26.22,265.44,46.29s169,40.82,263.31,48.81,201.41,1,268.64-28.28c74.4-32.35,82.78-82.66,72.22-127.67S2096.39,98,2120.47,53.93c22.28-40.76,84.39-75.62,114.24-115.5,55.3-73.9-17.64-161.61-169.92-204.33-84.5-23.7-186.14-33.74-286.58-39.15a3641.4,3641.4,0,0,0-375.71-.71c-104,5.2-207.36,14.9-312.1,14.36-99-.5-196.67-10.14-295.62-11.33C601.64-305,20.31-222.35-121.09-202.07c0,0,29,165.89,320,232.85C281.24,49.73,369.09,55.31,453,63.45Z"/>
    </clipPath>
    <linearGradient id="c" x1="1390.64" y1="893.99" x2="977.38" y2="1682.24" gradientTransform="translate(2229 1230) rotate(180)" gradientUnits="userSpaceOnUse">
      <stop offset="0" stop-color="#00c6ff"/>
      <stop offset="0.12" stop-color="#04c7ff" stop-opacity="0.98"/>
      <stop offset="0.25" stop-color="#10caff" stop-opacity="0.94"/>
      <stop offset="0.37" stop-color="#25ceff" stop-opacity="0.86"/>
      <stop offset="0.5" stop-color="#41d5ff" stop-opacity="0.74"/>
      <stop offset="0.62" stop-color="#6df" stop-opacity="0.6"/>
      <stop offset="0.75" stop-color="#93e7ff" stop-opacity="0.42"/>
      <stop offset="0.87" stop-color="#c7f2ff" stop-opacity="0.22"/>
      <stop offset="0.99" stop-color="#fff" stop-opacity="0"/>
    </linearGradient>
    <linearGradient id="d" x1="902.79" y1="1293.04" x2="777.64" y2="681.39" gradientTransform="translate(2229 1230) rotate(180)" gradientUnits="userSpaceOnUse">
      <stop offset="0" stop-color="#006bc7"/>
      <stop offset="0.14" stop-color="#056ec8" stop-opacity="0.98"/>
      <stop offset="0.28" stop-color="#1577cc" stop-opacity="0.92"/>
      <stop offset="0.42" stop-color="#2f86d1" stop-opacity="0.82"/>
      <stop offset="0.56" stop-color="#539bd9" stop-opacity="0.67"/>
      <stop offset="0.7" stop-color="#82b7e4" stop-opacity="0.49"/>
      <stop offset="0.85" stop-color="#bcd8f0" stop-opacity="0.26"/>
      <stop offset="0.99" stop-color="#fff" stop-opacity="0"/>
    </linearGradient>
  </defs>
  <title>bg-swirls-light-top</title>
  <g class="b">
    <g class="c">
      <path class="d" d="M960.42,258.62c-74.15,19.07-137,65.49-213.57,74.59-88,10.47-175.32-16.24-260.36-38.16S308,256,225.6,284.33C140.86,313.48,81,386.79-8.12,403.83q-24.49-330.21-43-660.73c33-12.43,69-18.44,105.06-18.22H1853.84c89.39,0,196.06,99.48,199,157,6.55,126.24,138,591.82-57.89,606.22C1741.86,506.72,1337.82,161.57,960.42,258.62Z"/>
      <g class="e">
        <path class="f" d="M798.17,225.06c63.27,20.35,147.1,24.85,226.43,24.45s159.22-5,237.63.16c95.07,6.22,181.64,26.22,265.44,46.29s169,40.82,263.31,48.81,201.41,1,268.64-28.28c74.4-32.35,82.78-82.66,72.22-127.67S2096.39,98,2120.47,53.93c22.28-40.76,84.39-75.62,114.24-115.5,55.3-73.9-17.64-161.61-169.92-204.33-84.5-23.7-186.14-33.74-286.58-39.15a3641.4,3641.4,0,0,0-375.71-.71c-104,5.2-207.36,14.9-312.1,14.36-99-.5-196.67-10.14-295.62-11.33C601.64-305,34.68-307.46-92.14-245.51-184.42-200.43-30.78-62.29,13.35-.63,32.76,26.48,733.65,204.32,798.17,225.06Z"/>
        <path class="g" d="M2084.74,21c-64.21,51.45-57.09,72-46.53,117s59.66,89.39-14.74,121.74C1956.24,289,1851.27,306,1756.93,298s-184.66-24.68-268.47-44.74-121-32.19-213.19-43.86c-176.15-22.31-241.37,45.61-483.18-17.77C686.49,164,699.67,78.56,413.77,71.32c0,0,41-2.87,62.52,1.4,22.48,4.45,44.41,9.38,65.51,15,64.1,16.93,78.42,50.58,110.22,80,32.25,29.87,104.24,50.47,168.76,71.21,63.27,20.35,147.09,24.85,226.43,24.45s159.21-5,237.63.16c95.07,6.22,181.63,26.22,265.44,46.29s169,40.82,263.31,48.81,201.41,1,268.64-28.28c74.4-32.35,82.78-82.66,72.22-127.67S2119,111.85,2143.08,67.78c22.28-40.76,84.39-75.63,114.24-115.5,15.85-21.19-6.79-75.14-10.86-97.21C2257.32-47.72,2124.26-10.63,2084.74,21Z"/>
      </g>
    </g>
  </g>
</svg>
