<svg xmlns="http://www.w3.org/2000/svg" xmlns:xlink="http://www.w3.org/1999/xlink" viewBox="0 0 2000 1230">
  <defs>
    <style>
      .a {
        fill: url(#a);
      }

      .b {
        isolation: isolate;
      }

      .c {
        clip-path: url(#c);
      }

      .d {
        opacity: 0.7;
        fill: url(#d);
      }

      .d, .e, .f {
        mix-blend-mode: overlay;
      }

      .e {
        fill: url(#e);
      }

      .f {
        fill: url(#f);
      }

      .g {
        opacity: 0.25;
      }

      .ab, .g {
        mix-blend-mode: color-dodge;
      }

      .aw, .h {
        fill: #fff;
      }

      .i {
        fill: url(#g);
      }

      .j {
        fill: url(#h);
      }

      .k {
        fill: url(#i);
      }

      .l {
        fill: url(#k);
      }

      .m {
        fill: url(#l);
      }

      .n {
        fill: url(#m);
      }

      .o {
        fill: url(#n);
      }

      .p {
        fill: url(#o);
      }

      .q {
        fill: url(#p);
      }

      .r {
        fill: url(#q);
      }

      .s {
        fill: url(#r);
      }

      .t {
        fill: url(#s);
      }

      .u {
        fill: url(#t);
      }

      .v {
        fill: url(#u);
      }

      .w {
        fill: url(#v);
      }

      .x {
        fill: url(#w);
      }

      .y {
        fill: url(#x);
      }

      .z {
        fill: url(#y);
      }

      .aa {
        fill: url(#z);
      }

      .ab, .au, .aw {
        opacity: 0.2;
      }

      .ac {
        fill: url(#aa);
      }

      .ad {
        fill: url(#ab);
      }

      .ae {
        fill: url(#ac);
      }

      .af {
        fill: url(#ad);
      }

      .ag {
        fill: url(#ae);
      }

      .ah {
        fill: url(#af);
      }

      .ai {
        fill: url(#ag);
      }

      .aj {
        fill: url(#ah);
      }

      .ak {
        fill: url(#ai);
      }

      .al {
        fill: url(#aj);
      }

      .am {
        fill: url(#ak);
      }

      .an {
        fill: url(#al);
      }

      .ao {
        fill: url(#am);
      }

      .ap {
        fill: url(#ao);
      }

      .aq {
        fill: url(#aq);
      }

      .ar {
        fill: url(#as);
      }

      .as, .ax {
        opacity: 0.1;
      }

      .as {
        mix-blend-mode: screen;
      }

      .at {
        fill: url(#au);
      }

      .au {
        fill: url(#av);
      }

      .av {
        fill: url(#aw);
      }

      .ay {
        opacity: 0.3;
      }

      .az {
        opacity: 0.15;
      }
    </style>
    <linearGradient id="a" x1="1782.05" y1="-166.67" x2="157.44" y2="1457.94" gradientUnits="userSpaceOnUse">
      <stop offset="0" stop-color="#008acd"/>
      <stop offset="0.25" stop-color="#4764c2"/>
      <stop offset="0.62" stop-color="#a92fb4"/>
      <stop offset="0.88" stop-color="#e70dab"/>
      <stop offset="1" stop-color="#ff00a7"/>
    </linearGradient>
    <clipPath id="c">
      <rect class="a" width="2000" height="1230.77"/>
    </clipPath>
    <linearGradient id="d" x1="229.59" y1="280.6" x2="1174.03" y2="981.45" xlink:href="#a"/>
    <linearGradient id="e" x1="1162.89" y1="135.82" x2="1389.38" y2="1682.84" xlink:href="#a"/>
    <linearGradient id="f" x1="1102.6" y1="428.01" x2="1504.31" y2="1569.03" xlink:href="#a"/>
    <linearGradient id="g" x1="894.97" y1="3489.09" x2="2244.19" y2="3489.09" gradientTransform="translate(0 -2695.56)" gradientUnits="userSpaceOnUse">
      <stop offset="0" stop-color="#918d60"/>
      <stop offset="0.38" stop-color="#555338"/>
      <stop offset="0.8" stop-color="#181710"/>
      <stop offset="1"/>
    </linearGradient>
    <linearGradient id="h" x1="894.96" y1="3489.09" x2="2244.19" y2="3489.09" xlink:href="#g"/>
    <linearGradient id="i" x1="894.97" y1="3473.57" x2="2244.19" y2="3473.57" xlink:href="#g"/>
    <linearGradient id="k" x1="894.97" y1="3457.36" x2="2244.19" y2="3457.36" xlink:href="#g"/>
    <linearGradient id="l" x1="894.97" y1="3457.36" x2="2244.19" y2="3457.36" xlink:href="#g"/>
    <linearGradient id="m" x1="894.97" y1="3445.19" x2="2244.19" y2="3445.19" xlink:href="#g"/>
    <linearGradient id="n" x1="894.96" y1="3445.19" x2="2244.19" y2="3445.19" xlink:href="#g"/>
    <linearGradient id="o" x1="894.97" y1="3428.95" x2="2244.19" y2="3428.95" xlink:href="#g"/>
    <linearGradient id="p" x1="894.97" y1="3428.95" x2="2244.19" y2="3428.95" xlink:href="#g"/>
    <linearGradient id="q" x1="894.97" y1="3410.14" x2="2244.19" y2="3410.14" xlink:href="#g"/>
    <linearGradient id="r" x1="894.97" y1="3410.14" x2="2244.18" y2="3410.14" xlink:href="#g"/>
    <linearGradient id="s" x1="894.97" y1="3395.4" x2="2244.19" y2="3395.4" xlink:href="#g"/>
    <linearGradient id="t" x1="894.97" y1="3395.4" x2="2244.19" y2="3395.4" xlink:href="#g"/>
    <linearGradient id="u" x1="894.97" y1="3380.63" x2="2244.19" y2="3380.63" xlink:href="#g"/>
    <linearGradient id="v" x1="894.97" y1="3380.63" x2="2244.19" y2="3380.63" xlink:href="#g"/>
    <linearGradient id="w" x1="894.97" y1="3365.17" x2="2244.19" y2="3365.17" xlink:href="#g"/>
    <linearGradient id="x" x1="894.97" y1="3365.17" x2="2244.19" y2="3365.17" xlink:href="#g"/>
    <linearGradient id="y" x1="894.71" y1="3354.59" x2="2243.94" y2="3354.59" xlink:href="#g"/>
    <linearGradient id="z" x1="894.71" y1="3354.59" x2="2243.94" y2="3354.59" xlink:href="#g"/>
    <linearGradient id="aa" x1="-66.57" y1="3318.01" x2="2011.33" y2="3318.01" xlink:href="#g"/>
    <linearGradient id="ab" x1="-66.57" y1="3318.01" x2="2011.33" y2="3318.01" xlink:href="#g"/>
    <linearGradient id="ac" x1="-66.57" y1="3294.1" x2="2011.34" y2="3294.1" xlink:href="#g"/>
    <linearGradient id="ad" x1="-66.57" y1="3294.1" x2="2011.33" y2="3294.1" xlink:href="#g"/>
    <linearGradient id="ae" x1="-66.57" y1="3269.12" x2="2011.33" y2="3269.12" xlink:href="#g"/>
    <linearGradient id="af" x1="-66.57" y1="3269.12" x2="2011.33" y2="3269.12" xlink:href="#g"/>
    <linearGradient id="ag" x1="-66.57" y1="3250.37" x2="2011.34" y2="3250.37" xlink:href="#g"/>
    <linearGradient id="ah" x1="-66.57" y1="3250.37" x2="2011.34" y2="3250.37" xlink:href="#g"/>
    <linearGradient id="ai" x1="-66.57" y1="3225.36" x2="2011.33" y2="3225.36" xlink:href="#g"/>
    <linearGradient id="aj" x1="-66.57" y1="3225.36" x2="2011.33" y2="3225.36" xlink:href="#g"/>
    <linearGradient id="ak" x1="-66.57" y1="3196.38" x2="2011.34" y2="3196.38" xlink:href="#g"/>
    <linearGradient id="al" x1="-66.57" y1="3196.38" x2="2011.33" y2="3196.38" xlink:href="#g"/>
    <linearGradient id="am" x1="-66.57" y1="3173.65" x2="2011.33" y2="3173.65" xlink:href="#g"/>
    <linearGradient id="ao" x1="-66.57" y1="3150.9" x2="2011.34" y2="3150.9" xlink:href="#g"/>
    <linearGradient id="aq" x1="-66.57" y1="3127.08" x2="2011.33" y2="3127.08" xlink:href="#g"/>
    <linearGradient id="as" x1="-66.82" y1="3110.79" x2="2011.08" y2="3110.79" xlink:href="#g"/>
    <linearGradient id="au" x1="416.26" y1="663.62" x2="1509.38" y2="663.62" gradientTransform="matrix(1, 0, 0, 1, 0, 0)" xlink:href="#g"/>
    <linearGradient id="av" x1="-144.04" y1="178.98" x2="406.39" y2="178.98" gradientTransform="matrix(1, 0, 0, 1, 0, 0)" xlink:href="#g"/>
    <linearGradient id="aw" x1="819.72" y1="1054.79" x2="1194.61" y2="1054.79" gradientTransform="matrix(1, 0, 0, 1, 0, 0)" xlink:href="#g"/>
  </defs>
  <title>bg-vibrant</title>
  <g class="b">
    <g>
      <rect class="a" width="2000" height="1230.77"/>
      <g class="c">
        <path class="d" d="M1359.62,244.58C1329.59,23.16,1105.23,24.41,883.88-38H-53.59V1018.2a378.35,378.35,0,0,0,61.07,64.22C324.66,1345.3,606.82,910.29,609.9,907.09c84.35-87.91,146-158.61,254-218.58,104.57-58.09,223.52-84.46,326-147.52C1291.37,478.55,1378.94,387,1359.62,244.58Z"/>
        <path class="e" d="M2036.16-38H1079.5C854.21,148.24,936.69,334.71,562.93,551.9,278,717.47,286.6,937.74,649.19,982.48c251.89,31.07,382.86-62.84,603.37-156.41,274.13-116.31,512-100.23,783.6-39.43Z"/>
        <path class="f" d="M2087.44-81.83c-101.9-108.3-207.82-168.86-397.29-100C1191.94-.91,1201,706.88,718.8,932.47,499.6,1035,341.58,1152.58,236.48,1274.34l1.1,3.86H2087.44Z"/>
        <g>
          <g class="g">
            <g>
              <rect class="h" x="780.56" y="792.37" width="1713.79" height="2.31" transform="translate(-81.51 1390.27) rotate(-45)"/>
              <rect class="h" x="766.4" y="776.85" width="1711.19" height="2.31" transform="translate(-75.06 1374.8) rotate(-45)"/>
              <rect class="h" x="751.74" y="760.64" width="1710.98" height="2.31" transform="translate(-67.92 1359.61) rotate(-45)"/>
              <rect class="h" x="738.72" y="748.47" width="1699.4" height="2.31" transform="translate(-64.83 1342.74) rotate(-45)"/>
              <rect class="h" x="724" y="732.24" width="1699.36" height="2.31" transform="translate(-57.67 1327.56) rotate(-45)"/>
              <rect class="h" x="706.05" y="713.43" width="1710.89" height="2.31" transform="translate(-47.93 1313.44) rotate(-45)"/>
              <rect class="h" x="689.78" y="698.68" width="1710.97" height="2.31" transform="translate(-42.18 1297.85) rotate(-45.01)"/>
              <rect class="h" x="673.46" y="683.91" width="1711.19" height="2.31" transform="translate(-36.56 1281.86) rotate(-45)"/>
              <rect class="h" x="656.65" y="668.45" width="1713.78" height="2.31" transform="translate(-30.18 1266.36) rotate(-45)"/>
              <rect class="h" x="648.35" y="657.87" width="1689.56" height="2.31" transform="translate(-28.6 1249.03) rotate(-45.01)"/>
            </g>
            <g>
              <g>
                <path class="i" d="M1031.55,1400.51a1.08,1.08,0,0,1-.76-1.83L2242.62,186.86a1.06,1.06,0,0,1,1.51,0,1.08,1.08,0,0,1,0,1.51L1032.3,1400.19A1.06,1.06,0,0,1,1031.55,1400.51Z"/>
                <path class="j" d="M1031.54,1400.51a1,1,0,0,1-.75-.32,1.06,1.06,0,0,1,0-1.51L2242.62,186.86a1.06,1.06,0,0,1,1.51,0,1.08,1.08,0,0,1,0,1.51L1032.3,1400.19A1.07,1.07,0,0,1,1031.54,1400.51Z"/>
              </g>
              <g>
                <path class="k" d="M1017,1384.07a1,1,0,0,1-.75-.31,1.06,1.06,0,0,1,0-1.51l1210-1210a1.08,1.08,0,0,1,1.51,0,1.06,1.06,0,0,1,0,1.51l-1210,1210A1.06,1.06,0,0,1,1017,1384.07Z"/>
                <path class="k" d="M1017,1384.07a1,1,0,0,1-.75-.31,1.06,1.06,0,0,1,0-1.51l1210-1210a1.08,1.08,0,0,1,1.51,0,1.06,1.06,0,0,1,0,1.51l-1210,1210A1.06,1.06,0,0,1,1017,1384.07Z"/>
              </g>
              <g>
                <path class="l" d="M1002.31,1367.78a1.07,1.07,0,0,1-.76-1.82L2211.4,156.12a1.06,1.06,0,0,1,1.51,0,1.08,1.08,0,0,1,0,1.51L1003.06,1367.47A1.05,1.05,0,0,1,1002.31,1367.78Z"/>
                <path class="m" d="M1002.31,1367.78a1.07,1.07,0,0,1-.76-1.82L2211.4,156.12a1.06,1.06,0,0,1,1.51,0,1.08,1.08,0,0,1,0,1.51L1003.06,1367.47A1.05,1.05,0,0,1,1002.31,1367.78Z"/>
              </g>
              <g>
                <path class="n" d="M987.59,1351.52a1.06,1.06,0,0,1-.76-.31,1.08,1.08,0,0,1,0-1.51L2188.49,148.05a1.07,1.07,0,0,1,1.51,1.51L988.34,1351.21A1.05,1.05,0,0,1,987.59,1351.52Z"/>
                <path class="o" d="M987.59,1351.52a1.06,1.06,0,0,1-.76-.31,1.08,1.08,0,0,1,0-1.51L2188.49,148.05a1.07,1.07,0,0,1,1.51,1.51L988.34,1351.21A1.05,1.05,0,0,1,987.59,1351.52Z"/>
              </g>
              <g>
                <path class="p" d="M972.86,1335.27a1.06,1.06,0,0,1-.76-.31,1.08,1.08,0,0,1,0-1.51L2173.73,131.82a1.08,1.08,0,0,1,1.51,0,1.06,1.06,0,0,1,0,1.51L973.62,1335A1.06,1.06,0,0,1,972.86,1335.27Z"/>
                <path class="q" d="M972.86,1335.27a1.06,1.06,0,0,1-.76-.31,1.08,1.08,0,0,1,0-1.51L2173.73,131.82a1.08,1.08,0,0,1,1.51,0,1.06,1.06,0,0,1,0,1.51L973.62,1335A1.06,1.06,0,0,1,972.86,1335.27Z"/>
              </g>
              <g>
                <path class="r" d="M956.61,1320.54a1.06,1.06,0,0,1-.76-.31,1.08,1.08,0,0,1,0-1.51L2165.64,108.94a1.07,1.07,0,1,1,1.51,1.51L957.36,1320.23A1,1,0,0,1,956.61,1320.54Z"/>
                <path class="s" d="M956.61,1320.54a1.06,1.06,0,0,1-.76-.31,1.08,1.08,0,0,1,0-1.51L2165.64,108.94a1.06,1.06,0,0,1,1.51,0,1.08,1.08,0,0,1,0,1.51L957.36,1320.23A1,1,0,0,1,956.61,1320.54Z"/>
              </g>
              <g>
                <path class="t" d="M940.35,1305.82a1.06,1.06,0,0,1-.76-.31,1.08,1.08,0,0,1,0-1.51L2149.44,94.16a1.07,1.07,0,0,1,1.51,1.51L941.11,1305.51A1.06,1.06,0,0,1,940.35,1305.82Z"/>
                <path class="u" d="M940.35,1305.82a1.06,1.06,0,0,1-.76-.31,1.08,1.08,0,0,1,0-1.51L2149.43,94.16a1.07,1.07,0,0,1,1.52,1.51L941.11,1305.51A1.06,1.06,0,0,1,940.35,1305.82Z"/>
              </g>
              <g>
                <path class="v" d="M924.06,1291.13a1,1,0,0,1-.75-.31,1.06,1.06,0,0,1,0-1.51l1210-1210a1.08,1.08,0,0,1,1.51,0,1.06,1.06,0,0,1,0,1.51l-1210,1210A1.06,1.06,0,0,1,924.06,1291.13Z"/>
                <path class="w" d="M924.06,1291.13a1,1,0,0,1-.75-.31,1.06,1.06,0,0,1,0-1.51l1210-1210a1.08,1.08,0,0,1,1.51,0,1.06,1.06,0,0,1,0,1.51l-1210,1210A1.06,1.06,0,0,1,924.06,1291.13Z"/>
              </g>
              <g>
                <path class="x" d="M907.63,1276.59a1.08,1.08,0,0,1-.76-1.83L2118.7,62.94a1.07,1.07,0,0,1,1.51,1.51L908.38,1276.27A1.06,1.06,0,0,1,907.63,1276.59Z"/>
                <path class="y" d="M907.63,1276.59a1.08,1.08,0,0,1-.76-1.83L2118.7,62.94a1.07,1.07,0,0,1,1.51,1.51L908.38,1276.27A1.06,1.06,0,0,1,907.63,1276.59Z"/>
              </g>
              <g>
                <path class="z" d="M895.78,1257.45a1.07,1.07,0,0,1-.75-1.82L2089.73,60.92a1.08,1.08,0,0,1,1.51,0,1.06,1.06,0,0,1,0,1.51L896.54,1257.14A1.06,1.06,0,0,1,895.78,1257.45Z"/>
                <path class="aa" d="M895.78,1257.45a1.1,1.1,0,0,1-.75-.31,1.07,1.07,0,0,1,0-1.52L2089.73,60.92a1.08,1.08,0,0,1,1.51,0,1.06,1.06,0,0,1,0,1.51L896.54,1257.14A1.1,1.1,0,0,1,895.78,1257.45Z"/>
              </g>
            </g>
          </g>
          <g class="ab">
            <g>
              <rect class="h" x="-243.27" y="621.29" width="2640.48" height="2.31" transform="translate(-124.7 943.84) rotate(-45)"/>
              <rect class="h" x="-265.1" y="597.38" width="2636.49" height="2.31" transform="translate(-114.77 919.99) rotate(-45)"/>
              <rect class="h" x="-287.68" y="572.4" width="2636.15" height="2.31" transform="translate(-103.77 896.59) rotate(-45)"/>
              <rect class="h" x="-307.75" y="553.65" width="2618.31" height="2.31" transform="translate(-98.96 870.74) rotate(-45.01)"/>
              <rect class="h" x="-330.43" y="528.64" width="2618.25" height="2.31" transform="translate(-87.97 847.21) rotate(-45)"/>
              <rect class="h" x="-358.08" y="499.66" width="2636.02" height="2.31" transform="translate(-72.97 825.46) rotate(-45)"/>
              <rect class="h" x="-383.15" y="476.93" width="2636.16" height="2.31" transform="translate(-64.23 801.13) rotate(-45)"/>
              <rect class="h" x="-408.29" y="454.18" width="2636.48" height="2.31" transform="translate(-55.45 776.8) rotate(-45)"/>
              <rect class="h" x="-434.2" y="430.36" width="2640.48" height="2.31" transform="translate(-45.61 752.91) rotate(-45)"/>
              <rect class="h" x="-446.98" y="414.07" width="2603.16" height="2.31" transform="translate(-43.26 726.03) rotate(-45.01)"/>
            </g>
            <g>
              <g>
                <path class="ac" d="M143.42,1557.06a1.07,1.07,0,0,1-.76-1.82l1867.1-1867.1a1.06,1.06,0,0,1,1.51,0,1.06,1.06,0,0,1,0,1.51L144.17,1556.75A1.05,1.05,0,0,1,143.42,1557.06Z"/>
                <path class="ad" d="M143.42,1557.06a1.07,1.07,0,0,1-.76-1.82l1867.1-1867.1a1.06,1.06,0,0,1,1.51,0,1.06,1.06,0,0,1,0,1.51L144.17,1556.75A1.05,1.05,0,0,1,143.42,1557.06Z"/>
              </g>
              <g>
                <path class="ae" d="M121,1531.74a1.07,1.07,0,0,1-.76-1.82L1984.52-334.36a1.07,1.07,0,0,1,1.52,0,1.08,1.08,0,0,1,0,1.51L121.76,1531.43A1.05,1.05,0,0,1,121,1531.74Z"/>
                <path class="af" d="M121,1531.74a1.07,1.07,0,0,1-.76-1.82L1984.53-334.36a1.06,1.06,0,0,1,1.51,0,1.06,1.06,0,0,1,0,1.51L121.76,1531.43A1.05,1.05,0,0,1,121,1531.74Z"/>
              </g>
              <g>
                <path class="ag" d="M98.37,1506.64a1.06,1.06,0,0,1-.76-.31,1.08,1.08,0,0,1,0-1.51l1864.05-1864a1.06,1.06,0,0,1,1.51,0,1.06,1.06,0,0,1,0,1.51l-1864,1864A1,1,0,0,1,98.37,1506.64Z"/>
                <path class="ah" d="M98.37,1506.64a1.07,1.07,0,0,1-.75-1.82l1864-1864a1.06,1.06,0,0,1,1.51,0,1.06,1.06,0,0,1,0,1.51l-1864,1864A1.06,1.06,0,0,1,98.37,1506.64Z"/>
              </g>
              <g>
                <path class="ai" d="M75.69,1481.59a1,1,0,0,1-.75-.31,1.06,1.06,0,0,1,0-1.51L1926.36-371.66a1.08,1.08,0,0,1,1.51,0,1.06,1.06,0,0,1,0,1.51L76.45,1481.28A1.06,1.06,0,0,1,75.69,1481.59Z"/>
                <path class="aj" d="M75.7,1481.59a1.07,1.07,0,0,1-.76-1.82L1926.36-371.66a1.08,1.08,0,0,1,1.51,0,1.06,1.06,0,0,1,0,1.51L76.45,1481.28A1.05,1.05,0,0,1,75.7,1481.59Z"/>
              </g>
              <g>
                <path class="ak" d="M53,1456.55a1.07,1.07,0,0,1-.76-1.82L1903.62-396.65a1.07,1.07,0,0,1,1.52,0,1.08,1.08,0,0,1,0,1.51L53.75,1456.24A1.05,1.05,0,0,1,53,1456.55Z"/>
                <path class="al" d="M53,1456.55a1,1,0,0,1-.75-.31,1.06,1.06,0,0,1,0-1.51L1903.62-396.65a1.07,1.07,0,0,1,1.52,0,1.08,1.08,0,0,1,0,1.51L53.76,1456.24A1.06,1.06,0,0,1,53,1456.55Z"/>
              </g>
              <g>
                <path class="am" d="M28,1433.86a1.08,1.08,0,0,1-.75-.31,1.06,1.06,0,0,1,0-1.51l1864-1863.95a1.06,1.06,0,0,1,1.51,0,1.06,1.06,0,0,1,0,1.51L28.72,1433.55A1.1,1.1,0,0,1,28,1433.86Z"/>
                <path class="an" d="M28,1433.86a1.08,1.08,0,0,1-.75-.31,1.06,1.06,0,0,1,0-1.51L1891.15-431.91a1.07,1.07,0,0,1,1.52,0,1.08,1.08,0,0,1,0,1.51L28.72,1433.55A1.1,1.1,0,0,1,28,1433.86Z"/>
              </g>
              <g>
                <path class="ao" d="M2.91,1411.18a1.06,1.06,0,0,1-.76-.31,1.08,1.08,0,0,1,0-1.51l1864.05-1864a1.08,1.08,0,0,1,1.51,0,1.07,1.07,0,0,1,0,1.52l-1864,1864A1,1,0,0,1,2.91,1411.18Z"/>
                <path class="ao" d="M2.91,1411.18a1.06,1.06,0,0,1-.76-.31,1.08,1.08,0,0,1,0-1.51l1864.05-1864a1.08,1.08,0,0,1,1.51,0,1.07,1.07,0,0,1,0,1.52l-1864,1864A1,1,0,0,1,2.91,1411.18Z"/>
              </g>
              <g>
                <path class="ap" d="M-22.19,1388.54a1.05,1.05,0,0,1-.75-.31,1.06,1.06,0,0,1,0-1.51L1841.33-477.55a1.06,1.06,0,0,1,1.51,0,1.06,1.06,0,0,1,0,1.51L-21.43,1388.23A1.06,1.06,0,0,1-22.19,1388.54Z"/>
                <path class="ap" d="M-22.19,1388.54a1.05,1.05,0,0,1-.75-.31,1.06,1.06,0,0,1,0-1.51L1841.33-477.55a1.06,1.06,0,0,1,1.51,0,1.06,1.06,0,0,1,0,1.51L-21.43,1388.23A1.06,1.06,0,0,1-22.19,1388.54Z"/>
              </g>
              <g>
                <path class="aq" d="M-47.51,1366.14a1.07,1.07,0,0,1-.76-.32,1.08,1.08,0,0,1,0-1.51l1867.1-1867.1a1.07,1.07,0,0,1,1.52,0,1.08,1.08,0,0,1,0,1.51L-46.75,1365.82A1.07,1.07,0,0,1-47.51,1366.14Z"/>
                <path class="aq" d="M-47.51,1366.14a1.07,1.07,0,0,1-.76-.32,1.08,1.08,0,0,1,0-1.51l1867.1-1867.1a1.07,1.07,0,0,1,1.52,0,1.08,1.08,0,0,1,0,1.51L-46.75,1365.82A1.07,1.07,0,0,1-47.51,1366.14Z"/>
              </g>
              <g>
                <path class="ar" d="M-65.76,1336.65a1.1,1.1,0,0,1-.75-.31,1.06,1.06,0,0,1,0-1.51L1774.2-505.89a1.07,1.07,0,0,1,1.52,0,1.08,1.08,0,0,1,0,1.51L-65,1336.34A1.1,1.1,0,0,1-65.76,1336.65Z"/>
                <path class="ar" d="M-65.76,1336.65a1.1,1.1,0,0,1-.75-.31,1.06,1.06,0,0,1,0-1.51L1774.2-505.89a1.07,1.07,0,0,1,1.52,0,1.08,1.08,0,0,1,0,1.51L-65,1336.34A1.1,1.1,0,0,1-65.76,1336.65Z"/>
              </g>
            </g>
          </g>
          <g class="as">
            <path class="at" d="M708.56,1365.9a2.58,2.58,0,0,1-.39,0c-133.63-24.69-246.47-110.42-280.77-213.32-19.56-58.68-23-150.21,71.78-253C666,718.43,1016.34,625.37,1197,598.93c125.88-18.42,234.18-76.86,282.64-152.52,24.41-38.11,31.41-78.33,20.24-116.32C1466.36,216,1300.73,177.42,928.27,197q-25.56,1.35-48.43,1.32c-186.53,0-242.16-63.53-258.68-103.53C600.47,44.73,621.42-10,652.81-38.12a2.15,2.15,0,0,1,3,.17,2.14,2.14,0,0,1-.16,3C625.39-7.79,605.18,44.93,625.11,93.18c16.1,39,70.7,100.89,254.54,100.9,15.24,0,31.33-.43,48.4-1.33,374.85-19.72,541.73,19.71,576,136.13,11.53,39.21,4.36,80.65-20.74,119.84-49.11,76.66-158.55,135.84-285.62,154.44-180.15,26.36-529.32,119.05-695.33,299.22-73.89,80.19-98.4,166.23-70.87,248.81,33.82,101.47,145.34,186,277.48,210.47a2.14,2.14,0,0,1-.38,4.24Z"/>
          </g>
          <g class="as">
            <path class="au" d="M246.72,420.92q-12.76,0-26.95-1c-49.77-3.51-96.56-19-141.81-34-74.65-24.7-145.16-48-219-14.64a2.13,2.13,0,0,1-2.82-1.07,2.14,2.14,0,0,1,1.06-2.83C-67.44,333.34,3.83,356.93,79.3,381.91c45,14.89,91.54,30.29,140.77,33.76,86.38,6.1,147.23-17.17,171.33-65.5,19.67-39.45,11.76-91.9-19.25-127.54-50.92-58.54-75.1-124.21-66.34-180.15,6.73-43,32.8-79.35,75.4-105.14a2.14,2.14,0,0,1,2.93.72,2.14,2.14,0,0,1-.72,2.94C341.93-33.89,316.56,1.43,310,43.14c-8.57,54.7,15.25,119.09,65.35,176.68,32.11,36.92,40.27,91.3,19.84,132.26C381.94,378.72,345.3,420.92,246.72,420.92Z"/>
          </g>
          <g class="as">
            <path class="av" d="M1126,1394.37a1.84,1.84,0,0,1-.51-.07,2.13,2.13,0,0,1-1.56-2.58c11.58-47.09,4.55-90-20.33-124.12-32.62-44.73-95-73.43-171.14-78.72-48.81-3.4-93-36.09-107.56-79.49-10.26-30.67-14-93.81,76.09-172.05,37.67-32.71,81.71-54.85,124.29-76.25,70.26-35.32,136.62-68.67,165.21-144.49a2.13,2.13,0,1,1,4,1.51c-29.17,77.38-96.26,111.1-167.28,146.8-42.35,21.28-86.14,43.3-123.41,75.66-65.39,56.78-92,116.25-74.83,167.46,14,41.81,56.66,73.3,103.8,76.58,77.4,5.39,140.93,34.72,174.3,80.47,25.64,35.17,32.91,79.31,21,127.66A2.15,2.15,0,0,1,1126,1394.37Z"/>
          </g>
          <path class="aw" d="M816.07,420.3a16,16,0,1,1,16-16A16,16,0,0,1,816.07,420.3Zm0-29.92A13.89,13.89,0,1,0,830,404.27,13.9,13.9,0,0,0,816.07,390.38Z"/>
          <g class="ax">
            <path class="h" d="M291.5,982.26a27.78,27.78,0,1,1,27.78-27.78A27.81,27.81,0,0,1,291.5,982.26Zm0-53.42a25.65,25.65,0,1,0,25.64,25.64A25.67,25.67,0,0,0,291.5,928.84Z"/>
          </g>
          <path class="aw" d="M1545.77,443.8a10.69,10.69,0,1,1,10.69-10.68A10.69,10.69,0,0,1,1545.77,443.8Zm0-19.23a8.55,8.55,0,1,0,8.55,8.55A8.55,8.55,0,0,0,1545.77,424.57Z"/>
          <path class="aw" d="M1808.59,986.54a6.41,6.41,0,1,1,6.41-6.41A6.42,6.42,0,0,1,1808.59,986.54Zm0-10.69a4.28,4.28,0,1,0,4.28,4.28A4.28,4.28,0,0,0,1808.59,975.85Z"/>
          <g class="ay">
            <path class="h" d="M492.35,315.6a8.55,8.55,0,1,1,8.55-8.55A8.56,8.56,0,0,1,492.35,315.6Zm0-15a6.41,6.41,0,1,0,6.41,6.41A6.42,6.42,0,0,0,492.35,300.64Z"/>
          </g>
          <g class="az">
            <path class="h" d="M192.14,298.5a22.44,22.44,0,1,1,22.44-22.43A22.46,22.46,0,0,1,192.14,298.5Zm0-42.73a20.3,20.3,0,1,0,20.3,20.3A20.32,20.32,0,0,0,192.14,255.77Z"/>
          </g>
        </g>
      </g>
    </g>
  </g>
</svg>
