<svg xmlns="http://www.w3.org/2000/svg" viewBox="0 0 312.05 251.46">
  <defs>
    <style>
      .a {
        fill: #00657c;
      }

      .b {
        fill: #d6dce8;
      }

      .c {
        fill: #005670;
      }

      .d {
        fill: #6ed1cb;
      }

      .e {
        fill: #19a3a3;
      }
    </style>
  </defs>
  <title>bg-green-abstract-strokes-45-deg-neg</title>
  <g>
    <g>
      <path class="a" d="M137,45.32h0A3.35,3.35,0,0,1,137,50l-92,92a3.33,3.33,0,0,1-4.71,0h0a3.33,3.33,0,0,1,0-4.71l92-92A3.34,3.34,0,0,1,137,45.32Z"/>
      <path class="b" d="M127.82,100.34h0a5,5,0,0,1,0,7l-20.56,20.55a4.94,4.94,0,0,1-7,0h0a4.94,4.94,0,0,1,0-7l20.55-20.55A5,5,0,0,1,127.82,100.34Z"/>
      <path class="c" d="M185,133a4.21,4.21,0,0,0,5.86,0l17.25-16.89a4,4,0,0,0,0-5.73,4.22,4.22,0,0,0-5.85,0L185,127.27A4,4,0,0,0,185,133Z"/>
      <path class="b" d="M251.57.44h0a1.51,1.51,0,0,1,0,2.12L224.92,29.21a1.51,1.51,0,0,1-2.12,0h0a1.52,1.52,0,0,1,0-2.13L249.45.44A1.49,1.49,0,0,1,251.57.44Z"/>
      <path class="b" d="M188.5,48.91h0a1.49,1.49,0,0,1,0,2.12L161.86,77.68a1.51,1.51,0,0,1-2.12,0h0a1.49,1.49,0,0,1,0-2.12l26.64-26.65A1.49,1.49,0,0,1,188.5,48.91Z"/>
      <path class="d" d="M.81,186.09a2.79,2.79,0,0,0,3.92,0L16.3,174.52a2.78,2.78,0,1,0-3.93-3.92L.81,182.16A2.79,2.79,0,0,0,.81,186.09Z"/>
      <path class="e" d="M187.36,91a2.79,2.79,0,0,0,3.93,0l11.56-11.56a2.78,2.78,0,0,0-3.92-3.93L187.36,87.06A2.78,2.78,0,0,0,187.36,91Z"/>
      <path class="a" d="M68.76,177.38a3.3,3.3,0,0,0,4.65,0l3.29-3.29a3.28,3.28,0,1,0-4.64-4.64l-3.3,3.29A3.3,3.3,0,0,0,68.76,177.38Z"/>
      <path class="d" d="M132,75.55a3.28,3.28,0,0,0,4.64,0l3.29-3.29a3.28,3.28,0,1,0-4.64-4.64L132,70.91A3.28,3.28,0,0,0,132,75.55Z"/>
      <path class="e" d="M169.5,115.46h0a1.49,1.49,0,0,1,0,2.12l-45.26,45.26a1.51,1.51,0,0,1-2.12,0h0a1.51,1.51,0,0,1,0-2.12l45.26-45.26A1.49,1.49,0,0,1,169.5,115.46Z"/>
      <path class="d" d="M207.44,52.79a3.28,3.28,0,0,0,4.64,0l3.29-3.29a3.28,3.28,0,1,0-4.64-4.64l-3.29,3.29A3.28,3.28,0,0,0,207.44,52.79Z"/>
      <path class="d" d="M182.59,22.42a3.3,3.3,0,0,0,4.64,0l3.29-3.29a3.28,3.28,0,0,0-4.64-4.65l-3.29,3.3A3.28,3.28,0,0,0,182.59,22.42Z"/>
    </g>
    <g>
      <path class="b" d="M186.39,173.34h0a5,5,0,0,1,0,7l-20.55,20.55a4.94,4.94,0,0,1-7,0h0a4.94,4.94,0,0,1,0-7l20.55-20.56A5,5,0,0,1,186.39,173.34Z"/>
      <path class="c" d="M256,215.06a2.88,2.88,0,0,0,4.05,0L272,203.12a2.86,2.86,0,1,0-4.05-4.05L256,211A2.88,2.88,0,0,0,256,215.06Z"/>
      <path class="b" d="M311.61,77.18h0a1.49,1.49,0,0,1,0,2.12L285,106a1.51,1.51,0,0,1-2.12,0h0a1.49,1.49,0,0,1,0-2.12l26.64-26.65A1.51,1.51,0,0,1,311.61,77.18Z"/>
      <path class="e" d="M245.76,116.21h0a1.51,1.51,0,0,1,0,2.12L219.11,145a1.51,1.51,0,0,1-2.12,0h0a1.51,1.51,0,0,1,0-2.12l26.65-26.65A1.51,1.51,0,0,1,245.76,116.21Z"/>
      <path class="d" d="M118.26,199.51a2.78,2.78,0,0,0,3.92,0l11.57-11.57a2.78,2.78,0,0,0-3.93-3.92l-11.56,11.56A2.79,2.79,0,0,0,118.26,199.51Z"/>
      <path class="e" d="M265.06,173.31a2.79,2.79,0,0,0,3.93,0l11.56-11.57a2.77,2.77,0,1,0-3.92-3.92l-11.57,11.56A2.79,2.79,0,0,0,265.06,173.31Z"/>
      <path class="a" d="M212,250.5a3.3,3.3,0,0,0,4.64,0l3.29-3.3a3.28,3.28,0,1,0-4.64-4.64l-3.29,3.3A3.28,3.28,0,0,0,212,250.5Z"/>
      <path class="d" d="M163.74,134.13a3.28,3.28,0,0,0,4.64,0l3.29-3.29A3.28,3.28,0,0,0,167,126.2l-3.29,3.29A3.28,3.28,0,0,0,163.74,134.13Z"/>
      <path class="e" d="M229.55,192.2h0a1.51,1.51,0,0,1,0,2.12l-45.26,45.26a1.49,1.49,0,0,1-2.12,0h0a1.49,1.49,0,0,1,0-2.12l45.26-45.26A1.51,1.51,0,0,1,229.55,192.2Z"/>
      <path class="d" d="M266.31,126.45a3.28,3.28,0,0,0,4.64,0l3.29-3.29a3.28,3.28,0,0,0-4.64-4.64l-3.29,3.29A3.28,3.28,0,0,0,266.31,126.45Z"/>
      <path class="c" d="M226,92.49a3.28,3.28,0,0,0,4.64,0L234,89.2a3.29,3.29,0,0,0-4.65-4.65L226,87.85A3.28,3.28,0,0,0,226,92.49Z"/>
    </g>
  </g>
</svg>
