<svg xmlns="http://www.w3.org/2000/svg" xmlns:xlink="http://www.w3.org/1999/xlink" viewBox="3143 -4726 1400 788">
  <defs>
    <style>
      .cls-1 {
        clip-path: url(#clip-Like_Mind);
      }

      .cls-2 {
        fill: #848484;
      }

      .cls-3 {
        fill: #b7b7b7;
      }

      .cls-4 {
        fill: #8abbdd;
      }

      .cls-5 {
        fill: #ccc;
      }

      .cls-6 {
        fill: #6891af;
      }

      .cls-7 {
        fill: #fff;
      }
    </style>
    <clipPath id="clip-Like_Mind">
      <rect x="3143" y="-4726" width="1400" height="788"/>
    </clipPath>
  </defs>
  <g id="Like_Mind" data-name="Like Mind" class="cls-1">
    <rect class="cls-7" x="3143" y="-4726" width="1400" height="788"/>
    <g id="group-147" transform="translate(3577.621 -4602.318)">
      <g id="group" transform="translate(0 323.549)">
        <path id="path" class="cls-2" d="M0,317.092V133.9H16.535V300.557H43.514v16.535Z" transform="translate(0 -133.9)"/>
        <path id="path-2" data-name="path" class="cls-2" d="M30.3,317.092V133.9H47.053V317.092Z" transform="translate(35.623 -133.9)"/>
        <path id="path-3" data-name="path" class="cls-2" d="M88.257,317.092,74.768,235.939l-7.832,33.506v47.647H50.4V133.9H66.935v98.993L88.692,133.9h15.665L85.429,213.094l19.581,104Z" transform="translate(59.254 -133.9)"/>
        <path id="path-4" data-name="path" class="cls-2" d="M85.2,317.092V133.9h44.6v15.665H101.735v65.488h20.451v15.665H101.735v70.71H129.8v15.665Z" transform="translate(100.168 -133.9)"/>
        <path id="path-5" data-name="path" class="cls-3" d="M178.172,317.092V180.46l-2.828,30.46L162.507,317.092H147.712L134.223,210.919l-3.046-30.46V317.092H116.6V133.9h24.15l12.184,112.7,3.046,30.242,3.046-30.242,11.749-112.7h23.28V317.092Z" transform="translate(137.084 -133.9)"/>
        <path id="path-6" data-name="path" class="cls-3" d="M163.4,317.092V133.9h16.753V317.092Z" transform="translate(192.106 -133.9)"/>
        <path id="path-7" data-name="path" class="cls-3" d="M227.254,317.092,203.1,222.45,197.665,194.6V317.092H182V133.9h16.317L219.2,229.63l5,28.284V133.9h15.665V317.092Z" transform="translate(213.973 -133.9)"/>
        <path id="path-8" data-name="path" class="cls-3" d="M246.813,317.092H219.4V133.9h27.413c18.493,0,25.891,11.531,25.891,36.116V281.193C272.7,305.561,265.307,317.092,246.813,317.092Zm9.356-150.339c0-11.749-2.393-16.317-9.356-16.317H236.153V300.122h10.661c6.962,0,9.356-4.352,9.356-15.883Z" transform="translate(257.944 -133.9)"/>
      </g>
      <g id="group-2" data-name="group" transform="translate(114.468 0)">
        <path id="path-9" data-name="path" class="cls-4" d="M221.944,59.6,171.655,0,121.9,59.068l.532.532,50.288,59.6-50.288,59.335-.532.532,49.755,58.8,50.288-59.335L272.232,119.2Z" transform="translate(28.166)"/>
        <path id="path-10" data-name="path" class="cls-5" d="M165.012,119.2,215.3,59.6l.266-.532L166.076,0,115.788,59.6,65.5,119.2l50.288,59.335,50.288,59.335,49.49-58.8-.266-.532Z" transform="translate(-65.5)"/>
        <path id="path-11" data-name="path" class="cls-4" d="M204.274,82.333l-50.287-59.6-.532-.532-.266.532L102.9,82.333l50.289,59.335.266.532.532-.532Z" transform="translate(-3.388 36.868)"/>
        <path id="path-12" data-name="path" class="cls-6" d="M204.274,82.333l-50.287-59.6-.532-.532-.266.532L102.9,82.333l50.289,59.335.266.532.532-.532Z" transform="translate(-3.388 36.868)"/>
      </g>
    </g>
  </g>
</svg>
