<svg xmlns="http://www.w3.org/2000/svg" viewBox="957 2818.25 93.509 75.958">
  <defs>
    <style>
      .cls-1 {
        fill: #fff;
      }
    </style>
  </defs>
  <path id="Path_18" data-name="Path 18" class="cls-1" d="M123.673,5071.313v2.553c0,25.531-19.468,54.894-54.893,54.894a55.661,55.661,0,0,1-29.68-8.617,22.629,22.629,0,0,0,4.468.319,39.536,39.536,0,0,0,23.936-8.3c-8.3-.319-15.638-5.744-17.872-13.4a13.1,13.1,0,0,0,3.511.319,24.791,24.791,0,0,0,5.106-.638,19.153,19.153,0,0,1-15.319-18.83v-.319a19.384,19.384,0,0,0,8.617,2.553,19.131,19.131,0,0,1-6.064-25.531,53.623,53.623,0,0,0,39.893,20.1,18.824,18.824,0,0,1-.638-4.467,19.192,19.192,0,0,1,33.191-13.085,37.082,37.082,0,0,0,12.127-4.788,18.835,18.835,0,0,1-8.617,10.531,44.288,44.288,0,0,0,11.17-2.872,28.184,28.184,0,0,1-8.936,9.577Z" transform="translate(917.9 -2234.551)"/>
</svg>
