<?xml version="1.0" encoding="utf-8"?>
<!-- Generator: Adobe Illustrator 21.1.0, SVG Export Plug-In . SVG Version: 6.00 Build 0)  -->
<svg version="1.1" id="Layer_1" xmlns="http://www.w3.org/2000/svg" xmlns:xlink="http://www.w3.org/1999/xlink" x="0px" y="0px"
	 viewBox="0 0 138.1 69.5" style="enable-background:new 0 0 138.1 69.5;" xml:space="preserve">
<style type="text/css">
	.st0{fill:#9E9E9E;}
	.st1{fill:#EEEEEE;}
</style>
<path id="path-41" class="st0" d="M102.6,26l35.5-22.1v61.5l-35.5-22.1V26z M0,69.3V0h94.8v69.3H0z"/>
<g>
	<path class="st1" d="M18.2,28.5h2.1v11.3h3.4v1.9h-5.5V28.5z"/>
	<path class="st1" d="M26.4,31.6c0-2.1,1.1-3.3,3.1-3.3s3.1,1.2,3.1,3.3v6.8c0,2.1-1.1,3.3-3.1,3.3s-3.1-1.2-3.1-3.3V31.6z
		 M28.4,38.6c0,0.9,0.4,1.3,1.1,1.3s1.1-0.4,1.1-1.3v-7.1c0-0.9-0.4-1.3-1.1-1.3s-1.1,0.4-1.1,1.3V38.6z"/>
	<path class="st1" d="M42.5,41.6h-2.1l-0.4-2.4h-2.5l-0.4,2.4h-1.9l2.1-13.2h3L42.5,41.6z M37.8,37.5h2l-1-6.7L37.8,37.5z"/>
	<path class="st1" d="M45.4,28.5h3.3c2.1,0,3.1,1.1,3.1,3.3v6.7c0,2.1-1,3.3-3.1,3.3h-3.3V28.5z M47.4,30.4v9.4h1.2
		c0.7,0,1.1-0.3,1.1-1.3v-6.8c0-0.9-0.4-1.3-1.1-1.3H47.4z"/>
	<path class="st1" d="M54.9,28.5H57v13.2h-2.1V28.5z"/>
	<path class="st1" d="M62.2,32.1v9.5h-1.9V28.5H63l2.1,7.9v-7.9h1.8v13.2h-2.1L62.2,32.1z"/>
	<path class="st1" d="M73.4,34.3h2.9v4.2c0,2.1-1.1,3.3-3.1,3.3s-3.1-1.2-3.1-3.3v-6.8c0-2.1,1.1-3.3,3.1-3.3s3.1,1.2,3.1,3.3v1.3
		h-2v-1.4c0-0.9-0.4-1.3-1.1-1.3c-0.7,0-1.1,0.4-1.1,1.3v7.1c0,0.9,0.4,1.3,1.1,1.3c0.7,0,1.1-0.3,1.1-1.3v-2.4h-0.9V34.3z"/>
</g>
</svg>
