<!-- Generated by IcoMoon.io -->
<svg version="1.1" xmlns="http://www.w3.org/2000/svg" width="48" height="48" viewBox="0 0 48 48">
<title>palette</title>
<path d="M34.969 24c1.688 0 3-1.313 3-3s-1.313-3-3-3-3 1.313-3 3 1.313 3 3 3zM28.969 16.031c1.688 0 3-1.313 3-3s-1.313-3-3-3-3 1.313-3 3 1.313 3 3 3zM19.031 16.031c1.688 0 3-1.313 3-3s-1.313-3-3-3-3 1.313-3 3 1.313 3 3 3zM13.031 24c1.688 0 3-1.313 3-3s-1.313-3-3-3-3 1.313-3 3 1.313 3 3 3zM24 6c9.938 0 18 7.219 18 16.031 0 5.531-4.5 9.938-10.031 9.938h-3.469c-1.688 0-3 1.313-3 3 0 0.75 0.281 1.406 0.75 1.969s0.75 1.313 0.75 2.063c0 1.688-1.313 3-3 3-9.938 0-18-8.063-18-18s8.063-18 18-18z"></path>
</svg>
