<svg xmlns="http://www.w3.org/2000/svg" viewBox="373 2815.059 93.828 79.788">
  <defs>
    <style>
      .cls-1 {
        fill: #fff;
      }
    </style>
  </defs>
  <path id="Path_16" data-name="Path 16" class="cls-1" d="M498.39,4834.7c-3.511,0-6.7,4.149-6.7,9.254s2.872,9.256,6.7,9.256c3.511,0,6.7-4.149,6.7-9.256C504.773,4838.845,501.9,4834.7,498.39,4834.7Zm22.978-23.937c.638-1.914.638-12.445-3.191-22.659,0,0-9.255.958-23.3,10.531-2.872-.956-7.979-1.275-12.766-1.275-5.106,0-9.893.319-12.766,1.275-14.042-9.573-23.3-10.531-23.3-10.531-4.149,10.214-3.83,20.745-3.192,22.659-4.787,5.107-7.659,11.17-7.659,19.788,0,36.7,30.319,37.341,37.978,37.341H491.05c7.659,0,37.978-.638,37.978-37.341A27.724,27.724,0,0,0,521.368,4810.759Zm-39.255,52.659h0c-19.468,0-34.467-2.233-34.467-21.062a15.846,15.846,0,0,1,5.425-12.128c6.383-5.744,16.915-2.872,29.042-2.872h0c12.127,0,22.659-3.191,29.042,2.872a15.849,15.849,0,0,1,5.425,12.128c0,18.829-15,21.063-34.467,21.063ZM465.838,4834.7c-3.511,0-6.7,4.149-6.7,9.254s2.872,9.256,6.7,9.256c3.511,0,6.7-4.149,6.7-9.256S469.348,4834.7,465.838,4834.7Z" transform="translate(-62.2 -1973.041)"/>
</svg>
