<svg xmlns="http://www.w3.org/2000/svg" width="200" height="161" viewBox="0 0 200 161">
  <path fill="#959494" d="M180,1.98951966e-13 L20,1.98951966e-13 C9,1.98951966e-13 0,9 0,20 L0,140 C0,151 9,160 20,160 L180,160 C191,160 200,151 200,140 L200,20 C200,9 191,1.98951966e-13 180,1.98951966e-13 Z M45,17.5 C49.1375,17.5 52.5,20.8625 52.5,25 C52.5,29.1375 49.1375,32.5 45,32.5 C40.8625,32.5 37.5,29.1375 37.5,25 C37.5,20.8625 40.8625,17.5 45,17.5 Z M17.5,25 C17.5,20.8625 20.8625,17.5 25,17.5 C29.1375,17.5 32.5,20.8625 32.5,25 C32.5,29.1375 29.1375,32.5 25,32.5 C20.8625,32.5 17.5,29.1375 17.5,25 Z M180,140 L20,140 L20,50 L180,50 L180,140 L180,140 Z M180,30 L60,30 L60,20 L180.1875,20 L180,30 L180,30 Z" transform="translate(0 .889)"/>
</svg>
