<?xml version="1.0" encoding="utf-8"?>
<!-- Generator: Adobe Illustrator 21.0.2, SVG Export Plug-In . SVG Version: 6.00 Build 0)  -->
<svg version="1.1" id="Layer_1" xmlns="http://www.w3.org/2000/svg" xmlns:xlink="http://www.w3.org/1999/xlink" x="0px" y="0px"
	 viewBox="0 0 32 32" style="enable-background:new 0 0 32 32;" xml:space="preserve">
<style type="text/css">
	.st0{fill:#E8EFEF;}
</style>
<path class="st0" d="M26.3,4.4H31c0.3,0,0.5-0.2,0.5-0.5S31.2,3.4,31,3.4h-5.8c-0.3,0-0.5,0.2-0.5,0.5v5.8c0,0.3,0.2,0.5,0.5,0.5
	c0.3,0,0.5-0.2,0.5-0.5V5.2l0.6,0.6c2.7,2.7,4.2,6.4,4.2,10.2s-1.5,7.5-4.2,10.2c-4.1,4.1-10.2,5.3-15.5,3.3c-0.2-0.1-0.5,0-0.6,0.3
	c-0.1,0.2,0,0.5,0.3,0.6c1.8,0.7,3.7,1.1,5.6,1.1c4,0,8-1.6,10.9-4.5c2.9-2.9,4.5-6.8,4.5-10.9s-1.6-8-4.5-10.9
	C26.9,5.1,26.3,4.4,26.3,4.4z M6.8,21.8c-0.3,0-0.5,0.2-0.5,0.5V27l-0.7-0.7C2.9,23.5,1.4,19.9,1.4,16S2.9,8.5,5.6,5.8
	c4-4,10-5.3,15.3-3.3c0.2,0.1,0.5,0,0.6-0.3c0.1-0.3,0-0.5-0.3-0.6C15.6-0.6,9.2,0.8,5,5.1C2,8,0.4,11.9,0.4,16S2,24,5,27l0.6,0.6H1
	c-0.3,0-0.5,0.2-0.5,0.5s0.2,0.5,0.5,0.5h5.7c0,0,0.4,0,0.5-0.1c0,0,0,0,0,0c0.1-0.1,0.2-0.2,0.2-0.4v-5.8C7.3,22,7.1,21.8,6.8,21.8
	z"/>
</svg>
