<svg xmlns="http://www.w3.org/2000/svg" viewBox="1249 2808.676 93.828 93.828">
  <defs>
    <style>
      .cls-1 {
        fill: #fff;
      }
    </style>
  </defs>
  <path id="Path_14" data-name="Path 14" class="cls-1" d="M1007.88,4687.733a196.511,196.511,0,0,0-15-22.98,40.29,40.29,0,0,0-22.021,28.085C971.817,4692.519,988.732,4692.838,1007.88,4687.733Zm5.106,13.4c.638-.32.957-.32,1.6-.639-.957-2.234-2.234-4.467-3.191-6.7a154.282,154.282,0,0,1-41.169,5.744v1.275a39.945,39.945,0,0,0,10.213,26.808h0c-.319,0,10.851-19.466,32.553-26.487Zm-27.446,31.276h0c-.319-.319-.638-.319-.957-.639A4.589,4.589,0,0,0,985.54,4732.413Zm15-70.532Zm36.063,8.939a40.456,40.456,0,0,0-26.489-9.895,32.991,32.991,0,0,0-9.574,1.275,200.539,200.539,0,0,1,15,23.3c15.319-5.744,21.063-14.678,21.063-14.678Zm-26.489,76.911a46.914,46.914,0,1,1,46.914-46.915A46.99,46.99,0,0,1,1010.114,4747.73Zm6.7-40.21c-23.617,8.3-31.276,24.575-31.6,24.893a39,39,0,0,0,24.574,8.617,42.751,42.751,0,0,0,15.638-3.191c-.319-3.512-2.553-15.958-8.617-30.318C1017.135,4707.2,1017.135,4707.521,1016.816,4707.521Zm1.915-16.276a45.263,45.263,0,0,1,2.553,5.743l.957,1.916c13.723-1.6,27.446,1.275,28.084,1.275a39.5,39.5,0,0,0-9.255-25.212c0,.638-6.7,9.895-22.34,16.277Zm6.064,14.361a167.582,167.582,0,0,1,7.659,28.722,40.678,40.678,0,0,0,17.234-26.807c-.958-.639-12.128-4.151-24.893-1.916Z" transform="translate(285.8 -1845.226)"/>
</svg>
