<svg xmlns="http://www.w3.org/2000/svg" viewBox="0 0 31.03 30.9"><defs><style>.a{fill:#e8efef;}</style></defs><title>icon-refresh-grey-50%</title><path class="a" d="M25.84,3.84h4.7a.48.48,0,1,0,0-1h-5.8a.48.48,0,0,0-.48.48v5.8a.48.48,0,0,0,1,0V4.6l.59.59A14.5,14.5,0,0,1,10.31,28.95a.48.48,0,1,0-.35.9A15.46,15.46,0,0,0,26.5,4.51ZM6.38,21.24a.48.48,0,0,0-.48.48V26.4l-.69-.69A14.5,14.5,0,0,1,20.51,1.87.48.48,0,0,0,20.85,1,15.46,15.46,0,0,0,4.53,26.39l.64.64H.59a.48.48,0,0,0,0,1H6.25a.86.86,0,0,0,.46-.12h0a.48.48,0,0,0,.16-.35v-5.8A.48.48,0,0,0,6.38,21.24Z"/></svg>