<svg xmlns="http://www.w3.org/2000/svg" viewBox="-4706 -4467.469 92.921 92.918">
  <defs>
    <style>
      .cls-1 {
        fill: #9e9e9e;
      }
    </style>
  </defs>
  <path id="codepen" class="cls-1" d="M91.54,31.428,48.177,2.52a3.1,3.1,0,0,0-3.435,0L1.379,31.428A3.1,3.1,0,0,0,0,34.005V62.913A3.1,3.1,0,0,0,1.379,65.49L44.742,94.4a3.1,3.1,0,0,0,3.438,0L91.544,65.49a3.1,3.1,0,0,0,1.378-2.577V34.005a3.1,3.1,0,0,0-1.378-2.577ZM46.458,59.193,30.361,48.46l16.1-10.732,16.1,10.732Zm3.1-26.845V10.883L84.237,34.005,68.14,44.737Zm-6.195,0L24.777,44.737,8.68,34.005,43.361,10.883ZM19.192,48.46l-13,8.666V39.794Zm5.585,3.723L43.361,64.573V86.038L8.68,62.916ZM49.556,64.573,68.14,52.183l16.1,10.732L49.556,86.038ZM73.724,48.46l13-8.666V57.127Z" transform="translate(-4706.001 -4469.469)"/>
</svg>
