<svg xmlns="http://www.w3.org/2000/svg" viewBox="-2819.177 -4182.711 323.887 271.428">
  <defs>
    <style>
      .cls-1 {
        fill: #959494;
      }
    </style>
  </defs>
  <path id="path-40" class="cls-1" d="M0,271.428V0H323.888V271.428Zm24.292-25.32H298.584V25.32H24.292Zm29.352-26.333V200.533l48.583-62.793,33.4,28.358,62.753-94.19,71.863,73.934v74.947C270.244,219.776,53.644,219.776,53.644,219.776Zm0-134.7a27.682,27.682,0,0,1,28.34-28.358c7.085,0,13.158,3.038,19.231,8.1a28.288,28.288,0,0,1,8.1,20.256c0,7.09-3.036,13.166-8.1,18.23a25.907,25.907,0,0,1-19.231,8.1,28.251,28.251,0,0,1-20.243-8.1C56.68,98.241,53.644,92.164,53.644,85.074Z" transform="translate(-2819.177 -4182.711)"/>
</svg>
