<!-- Generated by IcoMoon.io -->
<svg version="1.1" xmlns="http://www.w3.org/2000/svg" width="46" height="46" viewBox="0 0 46 46">
<title>quote</title>
<path d="M0 41.208c0 2.118 1.715 3.833 3.833 3.833h12.458c2.118 0 3.833-1.715 3.833-3.833l-0-15.333c0-2.118-1.715-3.833-3.833-3.833h-6.152c-1.064 0-1.917-0.862-1.917-1.917 0-0.345 0.086-0.585 0.086-0.585 1.399-4.638 4.934-8.357 9.468-10.005l0.019-0.019c1.37-0.585 2.329-1.945 2.329-3.527 0-2.118-1.715-3.833-3.833-3.833-0.517 0-1.006 0.105-1.457 0.288l-0.172 0.067c-8.577 3.345-14.662 11.682-14.662 21.447v17.25zM24.917 41.208c0 2.118 1.715 3.833 3.833 3.833h12.458c2.118 0 3.833-1.715 3.833-3.833l-0-15.333c0-2.118-1.715-3.833-3.833-3.833h-6.153c-1.064 0-1.917-0.862-1.917-1.917 0-0.355 0.086-0.585 0.086-0.585 1.399-4.638 4.934-8.357 9.468-10.005l0.019-0.019c1.37-0.585 2.329-1.945 2.329-3.527 0-2.118-1.715-3.833-3.833-3.833-0.517 0-1.006 0.105-1.457 0.288l-0.172 0.067c-8.577 3.345-14.662 11.682-14.662 21.447v17.25z"></path>
</svg>
