<svg xmlns="http://www.w3.org/2000/svg" viewBox="72 2821.442 102.007 67.037">
  <defs>
    <style>
      .cls-1 {
        fill: #fff;
      }
    </style>
  </defs>
  <path id="Path_13" data-name="Path 13" class="cls-1" d="M211.07,4292.1s9.574-.64,9.574-12.446-7.979-17.553-17.872-17.553H169.9v66.063h32.872s20.106.639,20.106-19.467C222.878,4308.376,223.835,4292.1,211.07,4292.1Zm-26.808-18.51h18.51s4.468,0,4.468,7.022-2.553,7.979-5.745,7.979H184.261Zm17.553,42.765H184.261V4298.8h18.51s6.7,0,6.7,8.935C209.474,4315.4,204.367,4316.035,201.814,4316.354Zm47.871-37.66c-24.255,0-24.255,25.211-24.255,25.211s-1.6,25.213,24.255,25.213c0,0,21.7,1.276,21.7-17.553h-11.17s.319,7.022-10.213,7.022c0,0-11.17.638-11.17-11.489h32.872c0,.319,3.83-28.4-22.021-28.4Zm9.893,19.787H238.835s1.277-10.213,11.17-10.213S259.579,4298.481,259.579,4298.481Zm2.553-32.553h-26.17v8.3h26.17Z" transform="translate(-97.9 -1440.658)"/>
</svg>
