<?xml version="1.0" encoding="utf-8"?>
<!-- Generator: Adobe Illustrator 21.1.0, SVG Export Plug-In . SVG Version: 6.00 Build 0)  -->
<svg version="1.1" id="Layer_1" xmlns="http://www.w3.org/2000/svg" xmlns:xlink="http://www.w3.org/1999/xlink" x="0px" y="0px"
	 viewBox="0 0 48 48" style="enable-background:new 0 0 48 48;" xml:space="preserve">
<style type="text/css">
	.st0{fill:#FFFFFF;}
</style>
<title>palette</title>
<path class="st0" d="M35,24c1.7,0,3-1.3,3-3s-1.3-3-3-3s-3,1.3-3,3S33.3,24,35,24z M29,16c1.7,0,3-1.3,3-3s-1.3-3-3-3s-3,1.3-3,3
	S27.3,16,29,16z M19,16c1.7,0,3-1.3,3-3s-1.3-3-3-3s-3,1.3-3,3S17.3,16,19,16z M13,24c1.7,0,3-1.3,3-3s-1.3-3-3-3s-3,1.3-3,3
	S11.3,24,13,24z M24,6c9.9,0,18,7.2,18,16c0,5.5-4.5,9.9-10,9.9h-3.5c-1.7,0-3,1.3-3,3c0,0.8,0.3,1.4,0.8,2S27,38.3,27,39
	c0,1.7-1.3,3-3,3c-9.9,0-18-8.1-18-18S14.1,6,24,6L24,6z"/>
</svg>
