<?xml version="1.0" encoding="utf-8"?>
<!-- Generator: Adobe Illustrator 21.1.0, SVG Export Plug-In . SVG Version: 6.00 Build 0)  -->
<svg version="1.1" id="Layer_1" xmlns="http://www.w3.org/2000/svg" xmlns:xlink="http://www.w3.org/1999/xlink" x="0px" y="0px"
	 viewBox="0 0 46 46" style="enable-background:new 0 0 46 46;" xml:space="preserve">
<style type="text/css">
	.st0{fill:#FFFFFF;}
</style>
<title>quote</title>
<path class="st0" d="M0,41.2C0,43.3,1.7,45,3.8,45h12.5c2.1,0,3.8-1.7,3.8-3.8V25.9c0-2.1-1.7-3.8-3.8-3.8h-6.2
	c-1.1,0-1.9-0.9-1.9-1.9c0-0.3,0.1-0.6,0.1-0.6c1.4-4.6,4.9-8.4,9.5-10l0,0c1.4-0.6,2.3-1.9,2.3-3.5c0-2.1-1.7-3.8-3.8-3.8
	c-0.5,0-1,0.1-1.5,0.3l-0.2,0.1C6.1,5.9,0,14.2,0,24C0,24,0,41.2,0,41.2z M24.9,41.2c0,2.1,1.7,3.8,3.8,3.8h12.5
	c2.1,0,3.8-1.7,3.8-3.8V25.9c0-2.1-1.7-3.8-3.8-3.8h-6.2c-1.1,0-1.9-0.9-1.9-1.9c0-0.4,0.1-0.6,0.1-0.6c1.4-4.6,4.9-8.4,9.5-10l0,0
	C44.1,8.9,45,7.6,45,6c0-2.1-1.7-3.8-3.8-3.8c-0.5,0-1,0.1-1.5,0.3l-0.2,0.1C31,5.9,24.9,14.2,24.9,24L24.9,41.2L24.9,41.2z"/>
</svg>
