<svg xmlns="http://www.w3.org/2000/svg" viewBox="0 0 32.11 31.98"><defs><style>.a{fill:#84b6c1;}</style></defs><title>icon-refresh-blue</title><path class="a" d="M26.74,4h4.87a.5.5,0,1,0,0-1h-6a.5.5,0,0,0-.5.5v6a.5.5,0,0,0,1,0V4.76l.61.61A15,15,0,0,1,10.67,30a.5.5,0,1,0-.36.93A16,16,0,0,0,27.42,4.66ZM6.61,22a.5.5,0,0,0-.5.5v4.84l-.71-.71A15,15,0,0,1,21.23,1.93.5.5,0,0,0,21.58,1,16,16,0,0,0,4.69,27.31l.67.67H.61a.5.5,0,0,0,0,1H6.46a.89.89,0,0,0,.47-.12h0a.5.5,0,0,0,.16-.36v-6A.5.5,0,0,0,6.61,22Z"/></svg>