<?xml version="1.0" encoding="utf-8"?>
<!-- Generator: Adobe Illustrator 19.2.1, SVG Export Plug-In . SVG Version: 6.00 Build 0)  -->
<svg version="1.1" id="Layer_1" xmlns="http://www.w3.org/2000/svg" xmlns:xlink="http://www.w3.org/1999/xlink" x="0px" y="0px"
	 viewBox="0 0 560.8 42.7" style="enable-background:new 0 0 560.8 42.7;" xml:space="preserve">
<style type="text/css">
	.st0{fill:#FFFFFF;}
</style>
<title>ethayer-logo-dark</title>
<path class="st0" d="M63.8,41.2V1.5h42.9v12.7H83.4V18H98V24H83.4v3.4h23.3v13.8H63.8z M142.9,41.2c-2.2,0-4.5-2.6-4.5-6.1v-3.6
	c0-2.8-0.6-4.2-3.4-4.2h-3.3v14h-19.5V1.5h30.1c10.2,0,16.3,4.7,16.3,11.1v0.5c0,3.8-3.4,7.8-8.9,8.9c6.5,0.7,8.3,4.7,8.3,9.3v3.3
	c-0.1,2.2,0.6,4.3,2,6v0.6L142.9,41.2L142.9,41.2z M138.8,16.3c0-2.1-1.1-2.9-4-2.9h-3.1v6.3h3.1c2.9,0,4-1.3,4-3.3L138.8,16.3
	L138.8,16.3z M164.9,41.2V1.5h19.6v39.7L164.9,41.2L164.9,41.2z M216.7,42.7c-16.4,0-27.1-8.7-27.1-21.1v-0.5
	C189.6,8.7,200.3,0,216.7,0c8.6,0,16.9,2.9,21.4,6.8l-7.3,9.8c-3.3-2.2-7.2-3.5-11.2-3.5c-5.7,0-10,3.2-10,8.1v0.2
	c0,4.9,4.3,8.1,10,8.1c4,0,7.9-1.3,11.2-3.5l6.7,9.8C232.6,40.2,225.3,42.7,216.7,42.7z M289.7,15.3v25.9h-19.6V15.3h-13.9V1.5h47.3
	v13.8L289.7,15.3L289.7,15.3z M338.1,41.2V27.4h-9.9v13.8h-19.6V1.5h19.6v14.9h9.9V1.5h19.6v39.7L338.1,41.2L338.1,41.2z
	 M394.9,41.2l-2.2-6.9h-11.4l-2.5,6.9h-17.1l16.5-39.7h20.1l16.9,39.7L394.9,41.2L394.9,41.2z M387.4,17.8l-2.8,7.4h5.2L387.4,17.8z
	 M442.8,27.8v13.4h-19.6V27.7L405.6,1.5h21.7l7.2,11.6l6.9-11.6h19.5L442.8,27.8z M464.6,41.2V1.5h42.9v12.7h-23.4V18h14.6V24h-14.6
	v3.4h23.4v13.8L464.6,41.2L464.6,41.2z M543.7,41.2c-2.2,0-4.5-2.6-4.5-6.1v-3.7c0-2.8-0.6-4.2-3.4-4.2h-3.3v14H513V1.5h30.1
	c10.2,0,16.3,4.7,16.3,11.1v0.5c0,3.8-3.4,7.7-9,8.9c6.5,0.7,8.3,4.7,8.3,9.3v3.3c-0.1,2.2,0.6,4.3,2,6v0.6L543.7,41.2L543.7,41.2z
	 M539.6,16.4c0-2.1-1.1-2.9-4-2.9h-3.1v6.3h3.1c2.9,0,4-1.3,4-3.3L539.6,16.4L539.6,16.4z"/>
<g id="svg-logo-icon">
	<polygon id="right-bracket" class="st0" points="42.8,11.2 34.2,1 25.7,11.1 25.8,11.2 34.3,21.4 25.8,31.5 25.7,31.6 34.2,41.7 
		42.8,31.5 51.4,21.4 	"/>
	<polygon id="left-bracket" class="st0" points="17,21.4 25.6,11.2 25.7,11.1 17.2,1 8.6,11.2 0,21.4 8.6,31.5 17.2,41.7 25.7,31.6 
		25.6,31.5 	"/>
</g>
</svg>
