<svg xmlns="http://www.w3.org/2000/svg" viewBox="0 0 496.97 88.51"><defs><style>.a{fill:#262626;}</style></defs><title>ethayer-logo-dark</title><path class="a" d="M2.53,42.31V2.6H45.46V15.3H22.11v3.76H36.74v6.08H22.11v3.4H45.46V42.31H2.53Zm79.07,0c-2.25,0-4.5-2.62-4.5-6.14V32.54c0-2.8-.56-4.23-3.43-4.23H70.4v14H50.87V2.6H81C91.17,2.6,97.3,7.31,97.3,13.69v0.54c0,3.82-3.43,7.75-8.95,8.89,6.53,0.66,8.33,4.71,8.33,9.3V35.7a8.44,8.44,0,0,0,2,6v0.6H81.6ZM77.49,17.45c0-2.09-1.07-2.86-4-2.86H70.4v6.32h3.1c2.93,0,4-1.31,4-3.28V17.45Zm26.12,24.87V2.6h19.58V42.31H103.61Zm51.77,1.49c-16.43,0-27.12-8.71-27.12-21.11V22.22c0-12.4,10.69-21.11,27.12-21.11,8.61,0,16.94,2.86,21.38,6.8l-7.32,9.84a20.44,20.44,0,0,0-11.2-3.52c-5.68,0-10,3.22-10,8.11v0.24c0,4.89,4.33,8.11,10,8.11a20.28,20.28,0,0,0,11.2-3.52l6.7,9.84C171.31,41.3,164,43.81,155.38,43.81Zm73.05-27.37V42.31H208.85V16.43H195V2.6h47.27V16.43H228.43Zm48.34,25.88V28.54h-9.9V42.31H247.29V2.6h19.58V17.51h9.9V2.6h19.64V42.31H276.78Zm56.79,0-2.19-6.92H319.95l-2.53,6.92H300.31L316.85,2.6H337l16.88,39.71H333.56Zm-7.43-23.44-2.76,7.45h5.18Zm55.35,10V42.31H361.9V28.84L344.29,2.6H366l7.2,11.57L380.08,2.6h19.47Zm21.84,13.48V2.6h42.94V15.3H422.91v3.76h14.63v6.08H422.91v3.4h23.35V42.31H403.32Zm79.07,0c-2.25,0-4.5-2.62-4.5-6.14V32.54c0-2.8-.56-4.23-3.43-4.23H471.2v14H451.67V2.6h30.11c10.19,0,16.32,4.71,16.32,11.09v0.54c0,3.82-3.43,7.75-8.95,8.89,6.53,0.66,8.33,4.71,8.33,9.3V35.7a8.44,8.44,0,0,0,2,6v0.6H482.39Zm-4.11-24.87c0-2.09-1.07-2.86-4-2.86H471.2v6.32h3.09c2.93,0,4-1.31,4-3.28V17.45ZM101.41,87.14H94.14V61.39h7.27c4.79,0,6.88,3,6.88,7V80.18C108.29,84.17,106.2,87.14,101.41,87.14Zm3.25-18.6c0-2.44-1.08-3.79-3.48-3.79H97.81v19h3.36c2.4,0,3.48-1.35,3.48-3.75V68.54Zm8.43,18.6V61.39h12v3.33h-8.35v7.35h6v3.17h-6v8.58h8.35v3.33h-12Zm22.27,0.58c-4.25,0-7.08-2.78-7.08-6.53V79.41h3.63v1.2c0,2.63,1.2,4,3.48,4a3.09,3.09,0,0,0,3.4-3.33c0-2.28-1-3.71-4.25-5.76-2.9-1.86-6-4.37-6-8.08s2.44-6.57,6.81-6.57c4.18,0,6.84,2.75,6.84,6.54V69h-3.48v-1.2c0-2.17-1-3.87-3.48-3.87a2.76,2.76,0,0,0-3.05,2.94c0,2.28,1,3.48,4.76,5.88s5.45,4.6,5.45,7.93A6.72,6.72,0,0,1,135.35,87.72Zm11.33-.58V61.39h3.67V87.14h-3.67Zm20.84,0-0.7-2c-0.89,1.66-2.71,2.55-5,2.55-4.49,0-6.69-3.13-6.69-7.08V67.89c0-3.79,2.36-7,7.19-7s6.88,2.9,6.88,7v1.51h-3.48V67.46a3.15,3.15,0,0,0-3.4-3.36,3.3,3.3,0,0,0-3.52,3.44V81a3.54,3.54,0,0,0,7.08,0V77h-3.44V73.92h6.92V87.14h-1.82Zm18.4,0-6.38-12.53-2.17-4.52V87.14H173.9V61.39h3L183,74.15l2,4.52V61.39h3.48V87.14h-2.59Zm7.69,0V61.39h12v3.33h-8.35v7.35h6v3.17h-6v8.58h8.35v3.33h-12Zm30,0.27c-2.9,0-3.91-.81-3.91-3.48v-5c0-1.78-.81-3-2.67-3h-3.63V87.14h-3.67V61.39h7.46c4.18,0,6,2.09,6,5.76V70c0,2.51-.85,4-3.33,4.52,2.44,0.39,3.44,2.44,3.44,4.49v4.68a0.9,0.9,0,0,0,1.08,1v2.75h-0.81ZM219.6,67.08c0-1.47-.62-2.51-2.36-2.51h-3.79v8.58h3.4c1.78,0,2.75-1,2.75-2.94V67.08ZM236,89.62h-2.51L241.18,59h2.47Zm25.25-2.47H254V61.39h7.27c4.79,0,6.88,3,6.88,7V80.18C268.13,84.17,266,87.14,261.24,87.14Zm3.25-18.6c0-2.44-1.08-3.79-3.48-3.79h-3.37v19H261c2.4,0,3.48-1.35,3.48-3.75V68.54Zm8.43,18.6V61.39h12v3.33h-8.35v7.35h6v3.17h-6v8.58h8.35v3.33h-12Zm24.13,0h-3.52l-6.07-25.75h3.83l4.14,19.91,4.14-19.91h3.71Zm9.59,0V61.39h12v3.33h-8.35v7.35h6v3.17h-6v8.58h8.35v3.33h-12Zm16.16,0V61.39h3.63V83.82h8.16v3.33H322.8Zm21.84,0.58c-4.83,0-7.19-3.17-7.19-7.38V68.2c0-4.18,2.36-7.35,7.19-7.35s7.19,3.17,7.19,7.35V80.34C351.83,84.55,349.51,87.72,344.64,87.72Zm3.56-19.84c0-2.2-1.16-3.79-3.56-3.79s-3.52,1.58-3.52,3.79V80.65c0,2.2,1.12,3.79,3.52,3.79s3.56-1.58,3.56-3.79V67.89Zm15.89,8.93h-3.83V87.14h-3.63V61.39h7.46c4.18,0,6,2.24,6,6V70.9C370.12,74.54,368.27,76.82,364.09,76.82Zm2.36-9.59c0-1.7-.62-2.67-2.32-2.67h-3.87v9.13h3.87c1.7,0,2.32-1,2.32-2.67V67.23Zm7.77,19.91V61.39h12v3.33h-8.35v7.35h6v3.17h-6v8.58h8.35v3.33h-12Zm30,0.27c-2.9,0-3.91-.81-3.91-3.48v-5c0-1.78-.81-3-2.67-3h-3.63V87.14h-3.67V61.39h7.46c4.18,0,6,2.09,6,5.76V70c0,2.51-.85,4-3.33,4.52C403,74.89,404,76.93,404,79v4.68a0.9,0.9,0,0,0,1.08,1v2.75h-0.81ZM400.2,67.08c0-1.47-.62-2.51-2.36-2.51h-3.79v8.58h3.4c1.78,0,2.74-1,2.74-2.94V67.08Z" transform="translate(-2.53 -1.11)"/></svg>