<?xml version="1.0" encoding="utf-8"?>
<!-- Generator: Adobe Illustrator 19.2.1, SVG Export Plug-In . SVG Version: 6.00 Build 0)  -->
<svg version="1.1" id="Layer_1" xmlns="http://www.w3.org/2000/svg" xmlns:xlink="http://www.w3.org/1999/xlink" x="0px" y="0px"
	 viewBox="0 0 497 88.5" style="enable-background:new 0 0 497 88.5;" xml:space="preserve">
<style type="text/css">
	.st0{fill:#FFFFFF;}
</style>
<title>ethayer-logo-dark</title>
<path class="st0" d="M0,41.2V1.5h42.9v12.7H19.6v3.8h14.6V24H19.6v3.4h23.4v13.8H0z M79.1,41.2c-2.2,0-4.5-2.6-4.5-6.1v-3.6
	c0-2.8-0.6-4.2-3.4-4.2h-3.3v14H48.3V1.5h30.1c10.2,0,16.3,4.7,16.3,11.1v0.5c0,3.8-3.4,7.7-8.9,8.9c6.5,0.7,8.3,4.7,8.3,9.3v3.3
	c-0.1,2.2,0.6,4.3,2,6v0.6L79.1,41.2L79.1,41.2z M75,16.3c0-2.1-1.1-2.9-4-2.9h-3.1v6.3H71c2.9,0,4-1.3,4-3.3L75,16.3L75,16.3z
	 M101.1,41.2V1.5h19.6v39.7L101.1,41.2L101.1,41.2z M152.9,42.7c-16.4,0-27.1-8.7-27.1-21.1v-0.5C125.7,8.7,136.4,0,152.9,0
	c8.6,0,16.9,2.9,21.4,6.8l-7.3,9.8c-3.3-2.2-7.2-3.5-11.2-3.5c-5.7,0-10,3.2-10,8.1v0.2c0,4.9,4.3,8.1,10,8.1c4,0,7.9-1.3,11.2-3.5
	l6.7,9.8C168.8,40.2,161.5,42.7,152.9,42.7z M225.9,15.3v25.9h-19.6V15.3h-13.9V1.5h47.3v13.8L225.9,15.3L225.9,15.3z M274.2,41.2
	V27.4h-9.9v13.8h-19.6V1.5h19.6v14.9h9.9V1.5h19.6v39.7L274.2,41.2L274.2,41.2z M331,41.2l-2.2-6.9h-11.4l-2.5,6.9h-17.1l16.5-39.7
	h20.1l16.9,39.7L331,41.2L331,41.2z M323.6,17.8l-2.8,7.4h5.2L323.6,17.8z M379,27.8v13.4h-19.6V27.7L341.8,1.5h21.7l7.2,11.6
	l6.9-11.6H397L379,27.8z M400.8,41.2V1.5h42.9v12.7h-23.4v3.8H435V24h-14.6v3.4h23.4v13.8L400.8,41.2L400.8,41.2z M479.9,41.2
	c-2.2,0-4.5-2.6-4.5-6.1v-3.7c0-2.8-0.6-4.2-3.4-4.2h-3.3v14h-19.5V1.5h30.1c10.2,0,16.3,4.7,16.3,11.1v0.5c0,3.8-3.4,7.7-9,8.9
	c6.5,0.7,8.3,4.7,8.3,9.3v3.3c-0.1,2.2,0.6,4.3,2,6v0.6L479.9,41.2L479.9,41.2z M475.8,16.4c0-2.1-1.1-2.9-4-2.9h-3.1v6.3h3.1
	c2.9,0,4-1.3,4-3.3L475.8,16.4L475.8,16.4z M98.9,86h-7.3V60.3h7.3c4.8,0,6.9,3,6.9,7v11.8C105.8,83.1,103.7,86,98.9,86z
	 M102.1,67.4c0-2.4-1.1-3.8-3.5-3.8h-3.4v19h3.4c2.4,0,3.5-1.3,3.5-3.8L102.1,67.4L102.1,67.4z M110.6,86V60.3h12v3.3h-8.3V71h6v3.2
	h-6v8.6h8.3V86L110.6,86L110.6,86z M132.8,86.6c-4.2,0-7.1-2.8-7.1-6.5v-1.8h3.6v1.2c0,2.6,1.2,4,3.5,4c1.7,0.2,3.2-1.1,3.4-2.8
	c0-0.2,0-0.4,0-0.6c0-2.3-1-3.7-4.2-5.8c-2.9-1.9-6-4.4-6-8.1s2.4-6.6,6.8-6.6c4.2,0,6.8,2.8,6.8,6.5v1.6h-3.5v-1.2
	c0-2.2-1-3.9-3.5-3.9c-1.5-0.2-2.9,0.9-3,2.4c0,0.2,0,0.3,0,0.5c0,2.3,1,3.5,4.8,5.9s5.4,4.6,5.4,7.9c0.2,3.7-2.7,6.9-6.4,7
	C133.3,86.6,133,86.6,132.8,86.6L132.8,86.6z M144.2,86V60.3h3.7V86H144.2z M165,86l-0.7-2c-0.9,1.7-2.7,2.6-5,2.6
	c-4.5,0-6.7-3.1-6.7-7.1V66.8c0-3.8,2.4-7,7.2-7s6.9,2.9,6.9,7v1.5h-3.5v-1.9c0.1-1.7-1.2-3.2-2.9-3.4c-0.2,0-0.3,0-0.5,0
	c-1.8-0.1-3.4,1.3-3.5,3.1c0,0.1,0,0.2,0,0.4v13.5c0,2,1.6,3.5,3.5,3.5c2,0,3.5-1.6,3.5-3.5v-4h-3.4v-3.1h6.9V86H165L165,86z
	 M183.4,86L177,73.5l-2.2-4.5v17h-3.5V60.3h3l6.1,12.8l2,4.5V60.3h3.5V86H183.4L183.4,86z M191.1,86V60.3h12v3.3h-8.4V71h6v3.2h-6
	v8.6h8.4V86L191.1,86L191.1,86z M221.1,86.3c-2.9,0-3.9-0.8-3.9-3.5v-5c0-1.8-0.8-3-2.7-3h-3.6V86h-3.7V60.3h7.5c4.2,0,6,2.1,6,5.8
	v2.8c0,2.5-0.9,4-3.3,4.5c2.4,0.4,3.4,2.4,3.4,4.5v4.7c-0.1,0.5,0.3,0.9,0.8,1c0.1,0,0.2,0,0.3,0v2.8L221.1,86.3L221.1,86.3z
	 M217.1,66c0-1.5-0.6-2.5-2.4-2.5h-3.8V72h3.4c1.8,0,2.8-1,2.8-2.9V66z M233.5,88.5H231l7.7-30.6h2.5L233.5,88.5z M258.7,86h-7.2
	V60.3h7.3c4.8,0,6.9,3,6.9,7v11.8C265.6,83.1,263.5,86,258.7,86L258.7,86z M262,67.4c0-2.4-1.1-3.8-3.5-3.8h-3.4v19h3.4
	c2.4,0,3.5-1.3,3.5-3.8L262,67.4L262,67.4z M270.4,86V60.3h12v3.3H274V71h6v3.2h-6v8.6h8.4V86H270.4z M294.5,86H291l-6.1-25.8h3.8
	l4.1,19.9l4.1-19.9h3.7L294.5,86z M304.1,86V60.3h12v3.3h-8.4V71h6v3.2h-6v8.6h8.4V86H304.1z M320.3,86V60.3h3.6v22.4h8.2V86H320.3
	L320.3,86z M342.1,86.6c-4.8,0-7.2-3.2-7.2-7.4V67.1c0-4.2,2.4-7.3,7.2-7.3s7.2,3.2,7.2,7.3v12.1C349.3,83.4,347,86.6,342.1,86.6
	L342.1,86.6z M345.7,66.8c0-2.2-1.2-3.8-3.6-3.8s-3.5,1.6-3.5,3.8v12.8c0,2.2,1.1,3.8,3.5,3.8s3.6-1.6,3.6-3.8V66.8z M361.6,75.7
	h-3.8V86h-3.6V60.3h7.5c4.2,0,6,2.2,6,6v3.5C367.6,73.4,365.7,75.7,361.6,75.7L361.6,75.7z M363.9,66.1c0-1.7-0.6-2.7-2.3-2.7h-3.9
	v9.1h3.9c1.7,0,2.3-1,2.3-2.7C363.9,69.9,363.9,66.1,363.9,66.1z M371.7,86V60.3h12v3.3h-8.4V71h6v3.2h-6v8.6h8.4V86L371.7,86
	L371.7,86z M401.7,86.3c-2.9,0-3.9-0.8-3.9-3.5v-5c0-1.8-0.8-3-2.7-3h-3.6V86h-3.7V60.3h7.5c4.2,0,6,2.1,6,5.8v2.8
	c0,2.5-0.9,4-3.3,4.5c2.5,0.4,3.5,2.4,3.5,4.5v4.7c-0.1,0.5,0.3,0.9,0.8,1c0.1,0,0.2,0,0.3,0v2.8L401.7,86.3L401.7,86.3z M397.7,66
	c0-1.5-0.6-2.5-2.4-2.5h-3.8V72h3.4c1.8,0,2.7-1,2.7-2.9L397.7,66L397.7,66z"/>
</svg>
