<svg xmlns="http://www.w3.org/2000/svg" viewBox="712.152 -374.93 94.873 75.102">
  <defs>
    <style>
      .cls-1, .cls-2, .cls-3 {
        fill: #fff;
      }

      .cls-1 {
        opacity: 0.8;
      }

      .cls-2 {
        opacity: 0.9;
      }

      .cls-3 {
        opacity: 0.599;
      }
    </style>
  </defs>
  <g id="group-2_1_" transform="translate(712.152 -374.93)">
    <path id="path-9_1_" class="cls-1" d="M-3395.986,4621.123l-15.886-18.823-15.728,18.665.158.158,15.886,18.823-15.886,18.728-.158.158,15.728,18.57,15.886-18.728,15.886-18.728Z" transform="translate(3474.973 -4602.3)"/>
    <path id="path-10_1_" class="cls-2" d="M-3546.176,4639.946l15.886-18.823.095-.158-15.633-18.665-15.886,18.823-15.886,18.823,15.886,18.728,15.886,18.728,15.633-18.57-.095-.158Z" transform="translate(3577.6 -4602.3)"/>
    <path id="path-11_1_" class="cls-3" d="M-3446.076,4680.381l-15.886-18.823-.158-.158-.095.158-15.886,18.823,15.886,18.728.095.158.158-.158Z" transform="translate(3509.524 -4642.735)"/>
  </g>
</svg>
