<svg xmlns="http://www.w3.org/2000/svg" xmlns:xlink="http://www.w3.org/1999/xlink" viewBox="0 0 151 151"><defs><style>.cls-1{fill:#9994d0;}.cls-2{isolation:isolate;}.cls-3{clip-path:url(#clip-path);}.cls-4{fill:#a57561;}.cls-5{fill:#e6e7e1;}.cls-6{fill:#141720;}.cls-7{fill:#e4b69d;opacity:0.5;mix-blend-mode:multiply;}</style><clipPath id="clip-path"><circle class="cls-1" cx="75.5" cy="75.5" r="75"/></clipPath></defs><title>img-avatar-slug-4</title><g class="cls-2"><g id="_4" data-name="4"><circle class="cls-1" cx="75.5" cy="75.5" r="75"/><g class="cls-3"><path class="cls-4" d="M118.94,162.29H32a43.31,43.31,0,0,1,12.83-30.84c.37-.37.74-.72,1.12-1.07.57-.52,1.16-1,1.75-1.54s1.2-1,1.83-1.43c.82-.61,1.67-1.19,2.53-1.75s1.75-1.08,2.66-1.57l0,0c.35-.2.7-.39,1-.61a25.09,25.09,0,0,0,2.94-2A27.56,27.56,0,0,0,67.5,109.2h0a27.35,27.35,0,0,0,1.61-9.28l6.36,0h0L82,100a27.38,27.38,0,0,0,10.3,21.46h0c.27.22.55.43.83.64s.78.57,1.17.83.6.39.9.57.68.41,1,.6l.08,0,.07,0c1,.56,2,1.15,2.94,1.77.32.2.64.42,1,.64s.83.59,1.23.9h0A43.36,43.36,0,0,1,118.94,162.29Z"/><path class="cls-5" d="M118.94,162.29H32a43.31,43.31,0,0,1,12.83-30.84c.37-.37.74-.72,1.12-1.07.57-.52,1.16-1,1.75-1.54s1.2-1,1.83-1.44c.82-.61,1.67-1.19,2.53-1.74s1.75-1.08,2.66-1.57l0,0c.35-.2.7-.39,1-.61a25.09,25.09,0,0,0,2.94-2,23.39,23.39,0,0,0,16.74,7.06h0a23.41,23.41,0,0,0,16.75-7c.27.22.55.43.83.64s.78.57,1.17.83.6.39.9.57.68.41,1,.6l.08,0,.07,0c1,.56,2,1.15,2.94,1.78.32.2.64.42,1,.64s.83.59,1.23.9h0A43.36,43.36,0,0,1,118.94,162.29Z"/><path class="cls-4" d="M108.84,42v27.2c0,.36,0,.72,0,1.08l0,.66q0,.59-.07,1.18c-1.28,17.42-13.82,31.9-25.2,37a20.33,20.33,0,0,1-8,1.93h0a20.19,20.19,0,0,1-8-1.89h0c-11.4-5-24-19.54-25.29-37q0-.59-.07-1.18l0-.66c0-.36,0-.72,0-1.08V42Z"/><path class="cls-4" d="M92.27,121.42A53.61,53.61,0,0,1,75.5,145.58a53.59,53.59,0,0,1-16.76-24.16l.13,0a24.92,24.92,0,0,0,33.25,0Z"/><path class="cls-6" d="M104.78,51.76c.87,5.71-11.54,11.63-27.72,13.21S47,63.2,46.17,57.49,57.71,45.86,73.89,44.28,103.9,46.05,104.78,51.76Z"/><path class="cls-6" d="M108.84,42v8.37H42.1V42h0c.3-7.09,3.34-18.72,16-24.34a42.44,42.44,0,0,1,17.38-3.23h0c7.2,0,12.89,1.23,17.36,3.23,12.61,5.61,15.66,17.25,16,24.34Z"/><path class="cls-6" d="M62.1,55l-.76,0A19.19,19.19,0,0,0,48,60.44h0a19.18,19.18,0,0,0-5.75,11.73q0-.59-.07-1.18l0-.66c0-.36,0-.72,0-1.08V42H56.31A19.27,19.27,0,0,1,60,46.94,18.91,18.91,0,0,1,62.1,55Z"/><path class="cls-6" d="M88.84,55l.76,0a19.24,19.24,0,0,1,19.12,17.15c.08-1,.11-1.94.11-2.93V42H94.63A19.15,19.15,0,0,0,88.84,55Z"/><path class="cls-6" d="M93.25,21.25c0,9.28-8,16.8-17.78,16.8S57.7,30.52,57.7,21.25a16.2,16.2,0,0,1,.39-3.53c1.72-7.58,8.84-13.26,17.38-13.26s15.66,5.68,17.39,13.26A16.2,16.2,0,0,1,93.25,21.25Z"/><path class="cls-7" d="M75.47,4.45V162.3H32a43.31,43.31,0,0,1,12.83-30.84c.37-.37.74-.72,1.12-1.07.57-.52,1.16-1,1.75-1.54s1.2-1,1.83-1.44c.82-.61,1.67-1.19,2.53-1.74s1.75-1.08,2.66-1.57l0,0c.35-.2.7-.39,1-.61a25.09,25.09,0,0,0,2.94-2A27.56,27.56,0,0,0,67.5,109.2h0c-11.4-5-24-19.54-25.29-37q0-.59-.07-1.18l0-.66c0-.36,0-.72,0-1.08V42h0c.3-7.09,3.34-18.72,16-24.34C59.81,10.13,66.94,4.45,75.47,4.45Z"/></g></g></g></svg>