<svg xmlns="http://www.w3.org/2000/svg" xmlns:xlink="http://www.w3.org/1999/xlink" viewBox="0 0 151 151"><defs><style>.cls-1{fill:#a4e6da;}.cls-2{isolation:isolate;}.cls-3{clip-path:url(#clip-path);}.cls-4{fill:#141720;}.cls-5,.cls-8{fill:#ecc19c;}.cls-6{fill:#eb6d4a;}.cls-7{fill:#e7ecf2;}.cls-8{opacity:0.5;mix-blend-mode:multiply;}</style><clipPath id="clip-path"><circle class="cls-1" cx="75.5" cy="75.5" r="75"/></clipPath></defs><title>img-avatar-slug-3</title><g class="cls-2"><g id="_3" data-name="3"><circle class="cls-1" cx="75.5" cy="75.5" r="75"/><g class="cls-3"><rect class="cls-4" x="36.17" y="44.56" width="78.65" height="105.93"/><path class="cls-5" d="M119,160.55H32a43.26,43.26,0,0,1,2.32-14q.41-1.19.89-2.36h0c.29-.72.61-1.43.94-2.13l.07-.16a42.58,42.58,0,0,1,3.15-5.52c.67-1,1.39-2,2.15-2.93.52-.65,1.06-1.28,1.61-1.89.27-.31.56-.61.84-.92l.87-.89.08-.07a42.47,42.47,0,0,1,4.61-4c.83-.61,1.66-1.19,2.53-1.75l.34-.2c.75-.48,1.52-.93,2.31-1.36h0c.29-.15.57-.31.84-.49l.19-.11.69-.43.22-.14c.2-.13.39-.26.59-.41s.49-.34.73-.52h0l0,0c.23-.16.46-.34.68-.52h0A27.41,27.41,0,0,0,62.54,116a26.94,26.94,0,0,0,5.76-11.15c.16-.61.3-1.24.41-1.87a27.83,27.83,0,0,0,.43-4.85l6.34,0h1.14l5.38,0A27.66,27.66,0,0,0,82.4,103c.11.64.25,1.27.41,1.89a25.63,25.63,0,0,0,.75,2.52,27.69,27.69,0,0,0,8.74,12.28c.21.18.43.35.65.51a1,1,0,0,0,.21.16l0,0,.09.06,0,0,.2.16.58.4.19.13.44.3.46.28.51.3c.16.11.34.2.51.3a.82.82,0,0,1,.15.07l.27.15.16.1.65.37c.35.2.71.42,1.06.64s.67.42,1,.66c.68.43,1.34.91,2,1.4h0c.83.61,1.63,1.27,2.42,1.94s1.44,1.29,2.13,2l.14.13A43.31,43.31,0,0,1,119,160.55Z"/><path class="cls-6" d="M119,160.55H32a43.26,43.26,0,0,1,2.32-14q.41-1.19.89-2.36h0c.29-.72.61-1.43.94-2.13l.07-.16a42.58,42.58,0,0,1,3.15-5.52c.67-1,1.39-2,2.15-2.93.52-.65,1.06-1.28,1.61-1.89.27-.31.56-.61.84-.92l.87-.89.08-.07a42.47,42.47,0,0,1,4.61-4c.83-.61,1.66-1.19,2.53-1.75l.34-.2c.75-.48,1.52-.93,2.31-1.36h0l.84-.49.19-.11.69-.43.66-.45.27-.2.61-.43,0,0,0,0,.64-.51h0l0,0c.47.48.94.93,1.45,1.37l.75.62s0,0,0,0l.71.55.16.11.74.51c.56.37,1.13.71,1.71,1,.3.16.59.32.89.47s.62.3.93.43a.28.28,0,0,0,.12.06c.35.16.7.3,1.07.43s.73.26,1.1.38l.84.25.76.2a.65.65,0,0,0,.18,0,25.43,25.43,0,0,0,2.55.44l.89.09c.61,0,1.21.07,1.83.07h.83a.05.05,0,0,0,0,0l.26,0,1.14-.07,1-.11h.13l.12,0,.75-.12h.08l.11,0,.1,0,.29-.06.39-.08.38-.09c.36-.09.72-.18,1.07-.29s.7-.21,1-.34c.54-.18,1.07-.39,1.58-.61.34-.15.67-.3,1-.47s.57-.28.84-.43l.6-.34a7.47,7.47,0,0,0,.65-.39l.17-.1.52-.35.28-.19.16-.11c.24-.16.47-.34.7-.52h0l.16-.11c.11-.08.22-.17.33-.27l.51-.41c.55-.46,1.07-1,1.57-1.46l0,0,.85.67,0,0,.09.06,0,0c.25.19.52.38.79.56l.19.13.9.57c.34.2.68.4,1,.59a.82.82,0,0,1,.15.07l.26.16.16.1.65.37c.35.2.71.42,1.06.64s.67.42,1,.66c.68.43,1.34.91,2,1.4h0c.83.62,1.64,1.27,2.42,2s1.44,1.29,2.13,2l.14.13A43.31,43.31,0,0,1,119,160.55Z"/><path class="cls-7" d="M75.57,126.74l0,0v0l0,.06a11.86,11.86,0,0,1-18.62,1.62l-4.45-4.77c.75-.48,1.52-.93,2.31-1.36h0l.84-.49.19-.11.69-.43.22-.14.44-.31.15-.1.73-.52h0l0,0,.64-.51,0,0c.47.48,1,.93,1.46,1.36.25.22.5.43.75.62,0,0,0,0,0,0,.23.2.47.38.7.55l.16.11c.24.18.48.35.74.51a17.26,17.26,0,0,0,1.71,1c.3.16.59.32.89.47s.62.3.93.43a.28.28,0,0,0,.12.06,22.1,22.1,0,0,0,2.16.81l.84.25.76.2a.64.64,0,0,0,.18,0,18.6,18.6,0,0,0,2.55.44c.3,0,.59.07.89.09.6.06,1.2.08,1.82.08Z"/><path class="cls-7" d="M98.66,123.77l-4.39,4.7a11.86,11.86,0,0,1-18.66-1.68v0l0,0a23.4,23.4,0,0,0,16.71-7h0A22.12,22.12,0,0,0,94.11,121l.19.13.9.57c.34.2.68.4,1,.59a.83.83,0,0,1,.15.07c.72.4,1.43.82,2.13,1.26Z"/><path class="cls-4" d="M98.73,27.61A40.45,40.45,0,0,1,95.59,43.3c-.18.43-.36.84-.57,1.26A40.71,40.71,0,0,1,75.54,64.28l0,0a40.74,40.74,0,0,1-28.43,2.35,42.09,42.09,0,0,1-4.43-1.54h0l-.5-.22-.4-.17a40.51,40.51,0,0,1-2.38-4.64A39.34,39.34,0,0,1,75.5,5.24h0a39.12,39.12,0,0,1,19.34,5.11c.25.52.48,1,.7,1.57a39.74,39.74,0,0,1,1.86,5.52h0A40.66,40.66,0,0,1,98.73,27.61Z"/><path class="cls-4" d="M114.82,44.56a39.2,39.2,0,0,1-3.89,17.08A40.6,40.6,0,0,1,95.59,11.92c.13-.31.26-.61.4-.93A39.32,39.32,0,0,1,114.82,44.56Z"/><path class="cls-5" d="M108.88,42.59v25c0,.33,0,.65,0,1s0,.58,0,.88,0,.52,0,.79,0,.38,0,.57,0,.22,0,.34,0,.42-.07.62c0,.39-.08.78-.14,1.17,0,.1,0,.2,0,.3s-.06.39-.09.59v0a.55.55,0,0,0,0,.11c0,.25-.09.49-.13.74s-.15.79-.23,1.17l0,0a1.27,1.27,0,0,1,0,.17l0,0c0,.17-.07.34-.11.51l0,.11a1.63,1.63,0,0,1-.07.27c0,.15-.07.3-.1.44s0,.17-.07.25,0,.15-.06.21c-.17.67-.37,1.33-.57,2-.1.31-.2.61-.3.93l0,.1-.28.8,0,0-.1.25c-.1.26-.2.52-.3.79s-.25.63-.39.94-.24.56-.36.84l-.06.14c-.14.3-.27.59-.41.88s-.29.61-.44.91l0,0c-.29.58-.6,1.17-.91,1.74l-.44.79a48.27,48.27,0,0,1-4.19,6.1q-.31.41-.64.79c-.3.37-.61.73-.93,1.08s-.53.6-.81.89l0,0c-.79.84-1.59,1.65-2.41,2.4-.16.16-.34.31-.51.47s-.56.5-.84.74-.45.39-.68.57c-.59.48-1.18,1-1.78,1.39-.25.19-.5.37-.75.54-.41.3-.83.57-1.25.84-.23.16-.47.3-.7.44l-.11.07c-.8.49-1.61.94-2.4,1.34l-.61.3-.64.3-.81.34-.32.12c-.32.13-.65.25-1,.36s-.81.27-1.21.39l-.84.22-.06,0c-.28.07-.56.13-.84.18l-.22,0c-.23,0-.46.08-.69.11s-.66.09-1,.11l-.34,0-.77,0h0l-.76,0-.3,0c-.23,0-.47,0-.71-.07l-.16,0-.92-.15c-.26,0-.52-.1-.8-.16a23.56,23.56,0,0,1-4.3-1.45,31.44,31.44,0,0,1-3.76-2l-.21-.13c-.56-.34-1.12-.71-1.67-1.1l-.93-.67q-1.46-1.07-2.89-2.33l-.79-.72-.78-.72c-.61-.58-1.2-1.18-1.76-1.81l-.11-.11-.71-.79c-.66-.74-1.3-1.5-1.9-2.3-.24-.29-.46-.58-.68-.88Q50.08,92.27,49,90.48l-.58-1c-.23-.39-.45-.78-.67-1.17-.32-.57-.62-1.16-.92-1.75-.48-.93-.91-1.88-1.31-2.84-.1-.23-.2-.46-.28-.69s-.25-.6-.35-.89c0-.14-.11-.28-.15-.42q-.17-.44-.32-.89c-.15-.43-.29-.88-.43-1.32s-.25-.85-.37-1.29-.25-.93-.36-1.4c0,0,0-.1,0-.15s0,0,0,0c-.16-.64-.29-1.3-.41-2,0-.25-.09-.49-.12-.75-.11-.64-.2-1.3-.27-2,0-.29-.07-.57-.09-.86s-.06-.6-.07-.9c0-.55-.07-1.11-.08-1.66,0-.33,0-.65,0-1v-25A33.37,33.37,0,0,1,73.67,9.27h.09l.69,0,1,0h0l1.06,0h.07l.74,0h0l.34,0,.73.06.36,0,.24,0A34.18,34.18,0,0,1,82.9,10a33.39,33.39,0,0,1,11.51,5c.77.52,1.51,1.08,2.22,1.67l.82.69h0A32.39,32.39,0,0,1,101.77,22a33.15,33.15,0,0,1,7.1,20.29C108.88,42.39,108.88,42.49,108.88,42.59Z"/><path class="cls-4" d="M114.82,44.56c0,.44,0,.88,0,1.32s0,.86-.07,1.29v0c0,.43-.07.84-.11,1.26s-.09.85-.15,1.28-.12.85-.19,1.27-.15.84-.23,1.26a.29.29,0,0,0,0,.09c-.16.8-.35,1.59-.57,2.38-.12.46-.25.91-.39,1.36s-.28.89-.43,1.34-.3.82-.44,1.22a.5.5,0,0,0,0,.1c-.17.43-.34.86-.53,1.29s-.46,1.07-.71,1.58c-.7-.45-1.39-.93-2-1.43-.24-.17-.48-.34-.7-.53l-.75-.58c-.7-.57-1.38-1.16-2-1.78-.18-.16-.36-.33-.54-.51s-.55-.53-.82-.8a39.54,39.54,0,0,1-3.13-3.6c-.3-.38-.57-.75-.85-1.15s-.53-.75-.79-1.13a41.76,41.76,0,0,1-2.39-4.06q-.26-.49-.49-1c-.08-.16-.16-.33-.24-.5v0c-.19-.41-.38-.83-.55-1.25-.18.43-.36.84-.57,1.26A40.71,40.71,0,0,1,75.54,64.28l0,0a40.74,40.74,0,0,1-28.43,2.35,42.09,42.09,0,0,1-4.43-1.54h0l-.5-.22-.4-.17a40.51,40.51,0,0,1-2.38-4.64A39.34,39.34,0,0,1,75.5,5.24h0a39.12,39.12,0,0,1,19.34,5.11c.37.2.74.43,1.11.65A39.32,39.32,0,0,1,114.82,44.56Z"/><path class="cls-8" d="M75.54,5.24V160.56H32a43.26,43.26,0,0,1,2.32-14q.41-1.19.89-2.36h0c.29-.72.61-1.43.94-2.13V44.56A39.32,39.32,0,0,1,75.5,5.24Z"/></g></g></g></svg>