<svg xmlns="http://www.w3.org/2000/svg" xmlns:xlink="http://www.w3.org/1999/xlink" viewBox="0 0 151 151"><defs><style>.cls-1{fill:#a194ed;}.cls-2{isolation:isolate;}.cls-3{clip-path:url(#clip-path);}.cls-4,.cls-8{fill:#ecc19c;}.cls-5{fill:#7d6991;}.cls-6{fill:#dde1e9;}.cls-7{fill:#f1e68c;}.cls-8{opacity:0.5;mix-blend-mode:multiply;}</style><clipPath id="clip-path"><circle class="cls-1" cx="75.5" cy="75.5" r="75"/></clipPath></defs><title>img-avatar-slug-9</title><g class="cls-2"><g id="_9" data-name="9"><circle class="cls-1" cx="75.5" cy="75.5" r="75"/><g class="cls-3"><path class="cls-4" d="M119,160.54H32a43.26,43.26,0,0,1,2.32-14q.41-1.19.89-2.36h0c.31-.78.66-1.54,1-2.3a43,43,0,0,1,5.3-8.44c.52-.65,1.06-1.28,1.61-1.89.27-.31.56-.61.84-.92l.87-.89a43.22,43.22,0,0,1,4.7-4c.83-.61,1.66-1.19,2.53-1.75l.94-.58.43-.25c.43-.25.85-.5,1.29-.74l0,0c.35-.19.7-.39,1-.61a25.87,25.87,0,0,0,2.94-2A27.41,27.41,0,0,0,69.16,98.16l6.34,0h0l6.5,0a27.44,27.44,0,0,0,1.57,9.18A26,26,0,0,0,85,110.8a27.49,27.49,0,0,0,7.27,8.89A22.14,22.14,0,0,0,94.14,121l.19.13c.3.2.59.39.9.57s.68.41,1,.6a.42.42,0,0,1,.15.07c.39.21.77.43,1.15.66l1,.59c.34.2.67.42,1,.66.68.43,1.34.91,2,1.4h0c.83.61,1.63,1.27,2.42,1.94s1.54,1.38,2.27,2.11A43.26,43.26,0,0,1,119,160.54Z"/><path class="cls-5" d="M119,160.54H32a43.26,43.26,0,0,1,2.32-14q.41-1.19.89-2.36h0c.31-.78.66-1.54,1-2.3a43,43,0,0,1,5.3-8.44c.52-.65,1.06-1.28,1.61-1.89.27-.31.56-.61.84-.92l.87-.89a43.22,43.22,0,0,1,4.7-4c.83-.61,1.66-1.19,2.53-1.75l.94-.58.42-.25c.43-.25.86-.5,1.3-.74a0,0,0,0,1,0,0h0l1-.6a25.4,25.4,0,0,0,2.93-2.07l0,0a23.36,23.36,0,0,0,16.71,7.06h.07a23.41,23.41,0,0,0,16.75-7h0A22.13,22.13,0,0,0,94.14,121l.19.13.9.57c.34.2.68.4,1,.59a.83.83,0,0,1,.15.07c.39.21.78.43,1.16.66l1,.6c.34.2.67.42,1,.66.68.43,1.34.91,2,1.4h0c.83.62,1.64,1.27,2.42,2s1.54,1.38,2.27,2.11A43.26,43.26,0,0,1,119,160.54Z"/><path class="cls-6" d="M97.56,123.06h0l-.89.91a29.41,29.41,0,0,1-21.14,8.89h0A29.44,29.44,0,0,1,54.33,124l-.85-.88h0c.43-.25.86-.5,1.3-.74a0,0,0,0,1,0,0h0l1-.6a25.4,25.4,0,0,0,2.93-2.07l0,0a23.36,23.36,0,0,0,16.71,7.06h.07a23.41,23.41,0,0,0,16.75-7h0A22.13,22.13,0,0,0,94.14,121l.19.13.9.57c.34.2.68.4,1,.59a.83.83,0,0,1,.15.07C96.78,122.61,97.18,122.83,97.56,123.06Z"/><path class="cls-4" d="M108.9,51.6v20c0,.36,0,.72,0,1.08s0,.56,0,.84,0,.55,0,.83,0,.38,0,.57,0,.22,0,.34,0,.42-.07.62,0,.39-.07.59,0,.39-.07.58c-.07.59-.17,1.18-.28,1.76-.07.39-.15.79-.23,1.17l0,0a1.28,1.28,0,0,1,0,.17l0,0a.1.1,0,0,1,0,0c0,.08,0,.16-.06.25s0,.2-.07.3a1.82,1.82,0,0,1-.07.3c0,.15-.07.3-.1.44s0,.17-.07.25,0,.15-.06.21c-.17.67-.37,1.33-.57,2-.1.31-.2.61-.3.93l0,.1-.3.84-.1.25c-.1.26-.2.52-.3.79s-.25.63-.39.94-.24.56-.36.84l-.06.14c-.14.3-.27.59-.41.88s-.29.61-.44.91c-.3.6-.61,1.2-.93,1.78l-.44.79a48.25,48.25,0,0,1-4.19,6.1q-.31.41-.64.79c-.3.37-.61.73-.93,1.08s-.56.62-.84.93c-.79.84-1.59,1.65-2.41,2.4-.16.16-.34.31-.51.47s-.56.5-.84.74-.45.39-.68.57c-.59.48-1.18,1-1.78,1.39-.25.19-.5.37-.75.54-.41.3-.83.57-1.25.84-.23.16-.47.3-.7.44-.76.48-1.54.91-2.3,1.3l-.21.11-.61.3-.64.3-.81.34-.32.12c-.32.13-.65.25-1,.36s-.81.27-1.21.39l-.84.22-.06,0c-.28.07-.56.13-.84.18l-.22,0c-.23,0-.46.08-.69.11s-.66.09-1,.11l-.34,0-.78,0h0l-.76,0-.3,0c-.23,0-.47,0-.71-.07l-.16,0-.92-.15c-.26,0-.52-.1-.8-.16a23.55,23.55,0,0,1-4.3-1.45c-.49-.22-1-.45-1.48-.71-.76-.38-1.52-.8-2.28-1.27s-1.26-.8-1.89-1.23l-.93-.67q-1.46-1.07-2.89-2.33l-.79-.72-.78-.72q-1-.92-1.87-1.92l-.71-.79c-.66-.74-1.3-1.5-1.9-2.3-.24-.29-.46-.58-.68-.88Q50.11,96.36,49,94.57l-.58-1c-.23-.39-.45-.78-.67-1.17a44.77,44.77,0,0,1-2.23-4.59c-.1-.23-.2-.46-.28-.69s-.25-.6-.35-.89-.32-.87-.47-1.3-.29-.88-.43-1.32-.25-.85-.37-1.29-.25-.93-.36-1.4c0,0,0-.1,0-.15q-.23-1-.42-2c-.16-.89-.3-1.79-.39-2.7,0-.29-.07-.57-.09-.86s-.06-.6-.07-.9c0-.55-.07-1.11-.08-1.66,0-.36,0-.72,0-1.08v-20a33.27,33.27,0,0,1,2.6-12.93c0-.11.09-.22.14-.33A32.28,32.28,0,0,1,47.15,34c.13-.22.27-.43.41-.65A33.33,33.33,0,0,1,75.5,18.23h0a33.78,33.78,0,0,1,7.39.82,33.46,33.46,0,0,1,18.87,12q.89,1.13,1.67,2.34c.15.22.3.44.43.67a32.55,32.55,0,0,1,2.26,4.3l.15.34a33.09,33.09,0,0,1,2.59,12.63C108.9,51.4,108.9,51.5,108.9,51.6Z"/><ellipse class="cls-4" cx="75.53" cy="87.47" rx="8.18" ry="2.53"/><path class="cls-7" d="M109,38.66H42.15C42.15,15.07,58.06,16,75.5,18h0l3.73.42a37.37,37.37,0,0,0,29-9.18C115.47,14.36,116.76,33.39,109,38.66Z"/><path class="cls-7" d="M53.79,37.28l-.18.57c-.09.28-.18.56-.28.83s-.16.44-.25.66a38.08,38.08,0,0,1-6.7,11.21c-2,2.37-4,6.17-4.21,12,0,.34,0,.67,0,1V38.67l2.74-.33L47.56,38l3.15-.38Z"/><path class="cls-7" d="M109.07,38.67,97.43,37.29l.18.56a37.66,37.66,0,0,0,7.22,12.7c2.12,2.51,4.24,6.62,4.24,13C109.07,54.8,109.07,38.67,109.07,38.67Z"/><ellipse class="cls-7" cx="75.5" cy="37.29" rx="24.87" ry="4.71"/><path class="cls-8" d="M75.5,18V160.55H32a43.26,43.26,0,0,1,2.32-14q.41-1.19.89-2.36h0c.31-.78.66-1.54,1-2.3a43,43,0,0,1,5.3-8.44c.52-.65,1.06-1.28,1.61-1.89.27-.31.56-.61.84-.92l.87-.89a43.22,43.22,0,0,1,4.7-4c.83-.61,1.66-1.19,2.53-1.75l.94-.58.42-.25c.43-.25.86-.5,1.3-.74a0,0,0,0,1,0,0h0l1-.6a25.4,25.4,0,0,0,2.93-2.07l0,0a27.58,27.58,0,0,0,7.29-8.84c-.76-.38-1.52-.8-2.28-1.27s-1.25-.79-1.89-1.23l-.93-.67q-1.46-1.07-2.89-2.33l-.79-.72-.78-.72q-1-.92-1.87-1.92l-.71-.79c-.66-.74-1.3-1.5-1.9-2.3-.24-.29-.46-.58-.68-.88Q50.11,96.36,49,94.57l-.58-1c-.23-.39-.45-.78-.67-1.17a44.77,44.77,0,0,1-2.23-4.59c-.1-.23-.2-.46-.28-.69s-.25-.6-.35-.89-.32-.87-.47-1.3-.29-.88-.43-1.32-.25-.85-.37-1.29-.25-.93-.36-1.4c0,0,0-.1,0-.15q-.23-1-.42-2c-.16-.89-.3-1.79-.39-2.7,0-.29-.07-.57-.09-.86s-.06-.6-.07-.9c0-.55-.07-1.11-.08-1.66,0-.36,0-.72,0-1.08V38.67C42.15,15.07,58.06,16,75.5,18Z"/></g></g></g></svg>