<svg xmlns="http://www.w3.org/2000/svg" xmlns:xlink="http://www.w3.org/1999/xlink" viewBox="0 0 151 151"><defs><style>.cls-1{fill:#58c9e6;}.cls-2{isolation:isolate;}.cls-3{clip-path:url(#clip-path);}.cls-4,.cls-9{fill:#ecc19c;}.cls-5{fill:#eb6d4a;}.cls-6{fill:#e6e7e8;}.cls-6,.cls-9{mix-blend-mode:multiply;}.cls-7{fill:#cf9e76;}.cls-8{fill:#543e36;}.cls-9{opacity:0.5;}</style><clipPath id="clip-path"><circle class="cls-1" cx="75.5" cy="75.5" r="75"/></clipPath></defs><title>img-avatar-slug-8</title><g class="cls-2"><g id="_8" data-name="8"><circle class="cls-1" cx="75.5" cy="75.5" r="75"/><g class="cls-3"><path class="cls-4" d="M119,160.55h-87a43.26,43.26,0,0,1,2.32-14q.41-1.19.89-2.36h0c.31-.78.66-1.54,1-2.3a43,43,0,0,1,5.3-8.44c.52-.65,1.06-1.28,1.61-1.89.27-.31.56-.61.84-.92l.87-.89h0a43.22,43.22,0,0,1,4.7-4c.83-.61,1.66-1.19,2.53-1.75.37-.24.75-.47,1.12-.68l.36-.22c.2-.11.39-.23.58-.33l0,0,.55-.31a0,0,0,0,1,0,0h0l.75-.43.29-.17.37-.23L57,121l.38-.26.32-.23.72-.54.39-.31h0l.73-.61.61-.53a2.35,2.35,0,0,0,.21-.2l.57-.55c.46-.44.89-.89,1.3-1.37h0c.18-.2.35-.4.52-.61.45-.52.86-1.06,1.25-1.61.16-.22.32-.45.48-.68l.08-.12.34-.53c.15-.22.29-.45.42-.68a27.84,27.84,0,0,0,2.24-4.74,24.84,24.84,0,0,0,.77-2.56,27.23,27.23,0,0,0,.84-6.73l6.13,0h.2l6.52,0a27.43,27.43,0,0,0,.81,6.66c.21.85.47,1.7.75,2.52a27.6,27.6,0,0,0,2.23,4.78c.13.22.26.44.4.66l.34.52a.5.5,0,0,0,.06.08c.16.25.34.49.51.74.37.52.76,1,1.17,1.52.11.15.25.3.38.44s.27.33.42.48l.25.27c.19.21.39.42.58.61l.27.27.55.52a1.75,1.75,0,0,0,.18.17l.67.59.73.61h0c.29.24.58.47.89.7h0l0,0,.34.23.54.38.19.13.27.18a3.17,3.17,0,0,0,.35.22l.28.17.39.24.63.36a.83.83,0,0,1,.15.07c.36.2.72.4,1.07.61l1.06.64c.34.2.67.42,1,.66.68.43,1.34.91,2,1.4h0c.6.45,1.2.92,1.77,1.4l.65.54c.79.67,1.54,1.38,2.27,2.11h0a43.49,43.49,0,0,1,8,11,42.23,42.23,0,0,1,2.48,5.84A43.3,43.3,0,0,1,119,160.55Z"/><path class="cls-5" d="M119,160.55h-87a43.26,43.26,0,0,1,2.32-14q.41-1.19.89-2.36h0c.31-.78.66-1.54,1-2.3a43,43,0,0,1,5.3-8.44c.52-.65,1.06-1.28,1.61-1.89.27-.31.56-.61.84-.92l.87-.89a43.22,43.22,0,0,1,4.7-4c.83-.61,1.66-1.19,2.53-1.75.37-.24.75-.47,1.12-.69l.36-.22.29-.17.29-.16,0,0,.55-.31a0,0,0,0,1,0,0h0l.75-.43.29-.16c.38-.23.75-.48,1.13-.73l.38-.26c.49-.34,1-.7,1.42-1.08h0a23.35,23.35,0,0,0,16.51,7h.27c.36,0,.72,0,1.07,0a23.36,23.36,0,0,0,15.68-7h0c.29.24.58.47.89.7h0a4,4,0,0,0,.38.27c.18.14.36.26.54.39l.19.13.27.17a3.17,3.17,0,0,0,.35.22l.28.18.39.23.63.36a.83.83,0,0,1,.15.07c.36.2.72.4,1.07.61s.71.43,1.06.65.67.42,1,.66c.68.43,1.34.91,2,1.4h0c.6.45,1.2.92,1.77,1.4l.65.55c.79.67,1.54,1.38,2.27,2.11A43.26,43.26,0,0,1,119,160.55Z"/><path class="cls-5" d="M93.27,120.42v10.89h-40v-8.07l.36-.22.29-.17.29-.16,0,0,.55-.3,0,0c.35-.19.7-.39,1-.61a25.86,25.86,0,0,0,2.94-2c.25-.2.49-.4.73-.61s.41-.34.61-.53a2.35,2.35,0,0,0,.21-.2c.2-.17.39-.36.57-.55.46-.44.89-.89,1.3-1.37h0c.11-.12.23-.25.34-.38a1.59,1.59,0,0,0,.18-.23c.45-.52.86-1.06,1.25-1.61.17-.22.33-.45.48-.68l.08-.12c.12-.17.24-.35.34-.53s.29-.45.42-.68H85.81c.13.22.26.44.4.66s.22.35.34.52a.5.5,0,0,0,.06.08c.16.25.33.49.51.74.37.52.76,1,1.17,1.52.12.15.24.3.38.43h0c.13.16.27.33.42.48l.25.27c.19.21.38.42.58.61l.27.27c.17.18.36.36.55.52a1.75,1.75,0,0,0,.18.17c.22.2.44.4.67.59s.48.42.73.61.59.48.89.69Z"/><path class="cls-5" d="M89.77,108.6v5a3.5,3.5,0,0,1-.71,2.11,2.81,2.81,0,0,1-.39.43h0a4,4,0,0,1-2.84,1.16H64.77a3.94,3.94,0,0,1-2.53-.89,3,3,0,0,1-.42-.38,3.58,3.58,0,0,1-1-2.44v-5a3.67,3.67,0,0,1,2.06-3.26,3.84,3.84,0,0,1,.42-.19,4.07,4.07,0,0,1,1.45-.26H85.83a4.06,4.06,0,0,1,1.74.39,3.35,3.35,0,0,1,.38.2A3.65,3.65,0,0,1,89.77,108.6Z"/><path class="cls-6" d="M89.77,108.6v5a3.5,3.5,0,0,1-.71,2.11,2.81,2.81,0,0,1-.39.43h0a4,4,0,0,1-2.84,1.16H64.77a3.94,3.94,0,0,1-2.53-.89,3,3,0,0,1-.42-.38,3.58,3.58,0,0,1-1-2.44v-5a3.67,3.67,0,0,1,2.06-3.26,3.84,3.84,0,0,1,.42-.19,4.07,4.07,0,0,1,1.45-.26H85.83a4.06,4.06,0,0,1,1.74.39,3.35,3.35,0,0,1,.38.2A3.65,3.65,0,0,1,89.77,108.6Z"/><path class="cls-7" d="M108.9,60.32v7.2c0,.36,0,.72,0,1.08,0,.09,0,.17,0,.26l0,.61q0,.39,0,.79c0,.19,0,.38,0,.57s0,.22,0,.34,0,.42-.07.62c0,.39-.08.78-.14,1.17,0,.1,0,.2,0,.3s-.06.39-.09.59v0l-.15.85c-.07.39-.15.79-.23,1.17l0,0a1.27,1.27,0,0,1,0,.17l0,0c0,.21-.09.42-.14.62a1.63,1.63,0,0,1-.07.27c0,.15-.07.3-.1.44s0,.17-.07.25,0,.15-.06.21c-.17.67-.37,1.33-.57,2-.1.31-.2.61-.3.93l0,.1-.3.84-.1.25c-.1.26-.2.52-.3.79s-.25.63-.39.94-.24.56-.36.84l-.06.14c-.14.3-.27.59-.41.88s-.29.61-.44.91c-.3.6-.61,1.2-.93,1.78l-.44.79a48.26,48.26,0,0,1-4.19,6.1q-.31.41-.64.79c-.3.37-.61.73-.93,1.08s-.56.62-.84.93c-.79.84-1.59,1.65-2.41,2.4-.16.16-.34.31-.51.47s-.56.5-.84.74-.45.39-.68.57c-.59.48-1.18,1-1.78,1.39-.25.19-.5.37-.75.54-.41.3-.83.57-1.25.84l-.49.31-.21.13c-.84.52-1.68,1-2.52,1.4l-.61.3-.64.3-.81.34-.32.12c-.32.13-.65.25-1,.36s-.81.27-1.21.39l-.84.22-.06,0c-.28.07-.56.13-.84.18l-.22,0c-.23,0-.46.08-.69.11s-.66.09-1,.11l-.34,0-.78,0H75.3l-.56,0-.3,0c-.23,0-.47,0-.71-.07l-.16,0-.92-.15c-.26,0-.52-.1-.8-.16a23.55,23.55,0,0,1-4.3-1.45,31.44,31.44,0,0,1-3.76-2c-.16-.1-.33-.2-.48-.31-.47-.29-.93-.6-1.4-.92l-.93-.67q-1.46-1.07-2.89-2.33l-.79-.72-.78-.72q-1-.92-1.87-1.92l-.71-.79c-.66-.74-1.3-1.5-1.9-2.3-.24-.29-.46-.58-.68-.88Q50.11,92.27,49,90.48l-.58-1c-.23-.39-.45-.78-.67-1.17a44.78,44.78,0,0,1-2.23-4.59c-.1-.23-.2-.46-.28-.69s-.25-.6-.35-.89-.32-.87-.47-1.3S44.13,80,44,79.54s-.25-.85-.37-1.29-.25-.93-.36-1.4c0,0,0-.1,0-.15q-.23-1-.42-2c-.16-.89-.29-1.79-.39-2.7,0-.29-.07-.57-.09-.86s-.06-.6-.07-.9c0-.46-.06-.93-.07-1.4,0-.09,0-.17,0-.26,0-.36,0-.72,0-1.08V53.35A33.33,33.33,0,0,1,75.3,20h.24a33.78,33.78,0,0,1,7.39.82,33.41,33.41,0,0,1,24.7,23.4,33.24,33.24,0,0,1,1.27,8.85S108.9,56.72,108.9,60.32Z"/><path class="cls-8" d="M51.21,52.94V60a9,9,0,0,1-9,8.84h0V53.35a33.32,33.32,0,0,1,1.27-9.15A8.9,8.9,0,0,1,51.21,52.94Z"/><path class="cls-8" d="M108.9,60.32v8.54h0a8.94,8.94,0,0,1-9-8.84V52.94a8.9,8.9,0,0,1,7.77-8.74,33.24,33.24,0,0,1,1.27,8.85S108.9,56.72,108.9,60.32Z"/><path class="cls-8" d="M87.72,91.39h-20A1.46,1.46,0,0,1,66.56,89a14,14,0,0,1,22.3,0A1.46,1.46,0,0,1,87.72,91.39Z"/><path class="cls-9" d="M75.3,20V160.55H32.05a43.26,43.26,0,0,1,2.32-14q.41-1.19.89-2.36h0c.31-.78.66-1.54,1-2.3a43,43,0,0,1,5.3-8.44c.52-.65,1.06-1.28,1.61-1.89.27-.31.56-.61.84-.92l.87-.89h0a43.22,43.22,0,0,1,4.7-4c.83-.61,1.66-1.19,2.53-1.75.37-.24.75-.47,1.12-.68l.36-.22.29-.17.29-.16,0,0,.55-.31a0,0,0,0,1,0,0h0l.75-.43.29-.17.37-.23L57,121l.38-.26c.49-.34,1-.7,1.42-1.08h0l.73-.61.61-.53a2.35,2.35,0,0,0,.21-.2l.57-.55c.46-.44.89-.89,1.3-1.37h0a3,3,0,0,1-.42-.38,3.58,3.58,0,0,1-1-2.44v-5a3.67,3.67,0,0,1,2.06-3.26,3.84,3.84,0,0,1,.42-.19c-.47-.29-.93-.6-1.4-.92l-.93-.67q-1.46-1.07-2.89-2.33l-.79-.72-.78-.72q-1-.92-1.87-1.92l-.71-.79c-.66-.74-1.3-1.5-1.9-2.3-.24-.29-.46-.58-.68-.88Q50.11,92.27,49,90.48l-.58-1c-.23-.39-.45-.78-.67-1.17a44.78,44.78,0,0,1-2.23-4.59c-.1-.23-.2-.46-.28-.69s-.25-.6-.35-.89-.32-.87-.47-1.3S44.13,80,44,79.54s-.25-.85-.37-1.29-.25-.93-.36-1.4c0,0,0-.1,0-.15q-.23-1-.42-2c-.16-.89-.29-1.79-.39-2.7,0-.29-.07-.57-.09-.86s-.06-.6-.07-.9c0-.46-.06-.93-.07-1.4h0V53.35A33.33,33.33,0,0,1,75.3,20Z"/></g></g></g></svg>