<svg xmlns="http://www.w3.org/2000/svg" xmlns:xlink="http://www.w3.org/1999/xlink" viewBox="0 0 151 151"><defs><style>.cls-1{fill:#f3e968;}.cls-2{isolation:isolate;}.cls-3{clip-path:url(#clip-path);}.cls-10,.cls-4{fill:#ecc19c;}.cls-5{fill:#168ef7;}.cls-6,.cls-7{fill:#e7ecf2;}.cls-10,.cls-7{mix-blend-mode:multiply;}.cls-8{fill:#494846;}.cls-9{fill:#eb6d4a;}.cls-10{opacity:0.5;}</style><clipPath id="clip-path"><circle class="cls-1" cx="75.5" cy="75.5" r="75"/></clipPath></defs><title>img-avatar-slug-5</title><g class="cls-2"><g id="_5" data-name="5"><circle class="cls-1" cx="75.5" cy="75.5" r="75"/><g class="cls-3"><path class="cls-4" d="M120.64,163.49h-87a43.26,43.26,0,0,1,2.32-14q.41-1.19.89-2.36h0c.29-.72.61-1.43.94-2.13l.07-.16a42.6,42.6,0,0,1,3.15-5.52c.67-1,1.39-2,2.15-2.93.52-.65,1.06-1.28,1.61-1.89.27-.31.56-.61.84-.92l.87-.89h0l0,0,0,0h0a42.47,42.47,0,0,1,4.61-4c.83-.61,1.66-1.19,2.53-1.75l.34-.2.37-.23.37-.22.75-.43.06,0,.39-.22.38-.22h0l.33-.18L57,125l.16-.1.16-.1.19-.11.69-.43.16-.11.5-.34.27-.2.61-.43h0l0,0,0,0,.07,0c.2-.15.4-.3.59-.45h0A27.4,27.4,0,0,0,64.2,119,26.94,26.94,0,0,0,70,107.82s0,0,0,0c.16-.6.29-1.21.4-1.83a27.83,27.83,0,0,0,.43-4.85l6.34,0h1.14l5.38,0a27.66,27.66,0,0,0,.41,4.76c.1.61.23,1.21.39,1.8l0,.09a25.65,25.65,0,0,0,.75,2.52A27.69,27.69,0,0,0,94,122.62h0a5,5,0,0,0,.42.34l.38.29,0,0h0l0,0,.09.06,0,0,.07.06.27.19.45.31.19.13.27.18.49.31.14.08.3.17s0,0,0,0h0l.07,0,.63.36a.83.83,0,0,1,.15.07l.17.11.09,0,.16.1.65.37c.35.2.71.42,1.06.64l.5.32c.17.11.34.21.5.34.68.43,1.34.91,2,1.4h0c.6.45,1.2.92,1.77,1.4l.65.54c.74.63,1.44,1.29,2.13,2l.14.13h0a43.31,43.31,0,0,1,12.78,30.77Z"/><path class="cls-5" d="M120.64,163.49h-87a43.26,43.26,0,0,1,2.32-14q.41-1.19.89-2.36h0c.29-.72.61-1.43.94-2.13l.07-.16a42.6,42.6,0,0,1,3.15-5.52c.67-1,1.39-2,2.15-2.93.52-.65,1.06-1.28,1.61-1.89.27-.31.56-.61.84-.92l.87-.89,0,0,0,0a42.47,42.47,0,0,1,4.61-4c.83-.61,1.66-1.19,2.53-1.75l.34-.2.37-.24.37-.22.75-.43.06,0,.39-.22.38-.21h0l.33-.19L57,125l.16-.1.16-.09.19-.11.69-.43.16-.11.5-.34.27-.2.61-.43h0l0,0,.07,0,.57-.46h0v0h0c.47.48.94.93,1.45,1.37l.75.62s0,0,0,0l.7.55.16.11.74.51c.56.37,1.13.71,1.71,1,.3.16.59.32.89.47s.62.3.93.43a.28.28,0,0,0,.12.06c.35.16.7.3,1.07.43s.73.26,1.1.38l.84.25.76.2a.64.64,0,0,0,.18,0h.06a24.31,24.31,0,0,0,2.49.43l.89.09c.56,0,1.11.07,1.68.07h1a.05.05,0,0,0,0,0l.26,0,1.14-.07,1-.11h.13l.12,0,.75-.12h.08l.11,0,.1,0,.29-.06.39-.08h0l.34-.08c.36-.09.72-.18,1.07-.29s.71-.21,1-.34c.54-.18,1.07-.39,1.58-.61.34-.15.67-.3,1-.47s.57-.28.84-.43l.6-.34a7.5,7.5,0,0,0,.65-.39l.17-.1.52-.35.28-.19.16-.11c.24-.16.47-.34.7-.52h0l.16-.11c.11-.08.22-.17.33-.27l.51-.41c.55-.46,1.07-1,1.57-1.46l0,0h0l.42.34.38.29,0,0,0,0,.09.06,0,0,.07,0,.27.19c.15.11.3.22.45.32l.19.13.27.17.49.31.14.09a3.14,3.14,0,0,0,.32.18h0l.07,0,.63.36a.83.83,0,0,1,.15.07l.17.11.09,0,.16.1.24.14h0l.06,0,.34.2c.35.2.71.42,1.06.64l.5.31.5.34c.68.43,1.34.91,2,1.4h0c.6.45,1.2.92,1.77,1.4l.65.55c.74.63,1.44,1.29,2.13,2l.14.13a43.31,43.31,0,0,1,12.78,30.77Z"/><path class="cls-6" d="M82.36,129.11l-.39.08-.29.06-.1,0-.11,0h-.08l-.75.12-.12,0h-.13l-1,.11-1.14.07-.26,0a.05.05,0,0,1,0,0H77c-.57,0-1.12,0-1.68-.07l-.89-.09a24.31,24.31,0,0,1-2.49-.43l1.51,5.73,3.73,14.13v0L80.9,134.8l1.51-5.7Z"/><path class="cls-7" d="M82.36,129.11l-.39.08-.29.06-.1,0-.11,0h-.08l-.75.12-.12,0h-.13l-1,.11-1.14.07-.26,0a.05.05,0,0,1,0,0H77c-.57,0-1.12,0-1.68-.07l-.89-.09a24.31,24.31,0,0,1-2.49-.43l1.51,5.73,3.73,14.13v0L80.9,134.8l1.51-5.7Z"/><path class="cls-6" d="M98.76,125.77c-4,3.71-14.26,13.32-14.38,13.5a44.65,44.65,0,0,1-3.49-4.47c-1.57-2.13-3.21-4.37-3.73-5.1h0v0H78a.05.05,0,0,0,0,0l.26,0,1.14-.07,1-.11h.13l.12,0,.75-.12h.08l.11,0,.1,0,.29-.06.39-.08h0l.34-.08c.36-.09.72-.18,1.07-.29s.7-.21,1-.34c.54-.18,1.07-.39,1.58-.61.34-.15.67-.3,1-.47s.57-.28.84-.43l.6-.34a7.48,7.48,0,0,0,.65-.39l.17-.1.52-.35.28-.19.16-.11c.24-.16.47-.34.7-.52h0l.16-.11c.11-.08.22-.17.33-.27l.51-.41c.55-.46,1.07-1,1.57-1.46l0,0h0c.28.23.56.44.84.66l0,0,.09.06,0,0c.25.19.52.38.79.56l.19.13.9.57c.34.2.68.4,1,.59a.83.83,0,0,1,.15.07l.26.16.16.1.24.14h0Z"/><path class="cls-6" d="M77.18,129.68l0,0h0c-.52.74-2.16,3-3.72,5.09a46.06,46.06,0,0,1-3.48,4.46c-.11-.18-10.4-9.8-14.38-13.51l.06,0,.39-.22.38-.21h0l.33-.19L57,125l.16-.1.16-.09.19-.11.69-.43.16-.11.5-.34.27-.2.61-.43h0l0,0,.07,0,.57-.46h0v0h0c.47.48.94.93,1.45,1.37l.75.62s0,0,0,0l.7.55.16.11.74.51c.56.37,1.13.71,1.71,1,.3.16.59.32.89.47s.62.3.93.43a.28.28,0,0,0,.12.06c.35.16.7.3,1.07.43s.73.26,1.1.38l.84.25.76.2a.64.64,0,0,0,.18,0h.06a24.31,24.31,0,0,0,2.49.43l.89.09c.56,0,1.11.07,1.68.07Z"/><path class="cls-4" d="M110.52,42.59v25c0,.33,0,.65,0,1s0,.58,0,.88,0,.52,0,.79,0,.38,0,.57,0,.22,0,.34,0,.42-.07.62c0,.39-.08.78-.14,1.17,0,.1,0,.2,0,.3s-.06.39-.09.59v0a.56.56,0,0,0,0,.11c0,.25-.09.49-.13.74s-.15.79-.23,1.17l0,0a1.28,1.28,0,0,1,0,.17l0,0c0,.17-.07.34-.11.51l0,.11a1.63,1.63,0,0,1-.07.27c0,.15-.07.3-.1.44s0,.17-.07.25,0,.15-.06.21c-.17.67-.37,1.33-.57,2-.1.31-.2.61-.3.93l0,.1c0,.08-.06.17-.09.25s-.13.36-.19.54l0,0-.1.25c-.1.26-.2.52-.3.79s-.25.63-.39.94-.24.56-.36.84l-.06.14c-.14.3-.27.59-.41.88s-.29.61-.44.91l0,0c-.29.58-.6,1.17-.91,1.74l-.44.79a48.26,48.26,0,0,1-4.19,6.1q-.31.41-.64.79c-.3.37-.61.73-.93,1.08s-.53.6-.81.89l0,0c-.52.56-1,1.11-1.59,1.62-.27.27-.54.52-.82.78s-.34.31-.51.47-.56.5-.84.74-.45.39-.68.57c-.59.48-1.18,1-1.78,1.39-.25.19-.5.37-.75.54-.41.3-.83.57-1.25.84-.23.16-.47.3-.7.44l-.11.07c-.8.49-1.61.94-2.4,1.34l-.61.3-.64.3-.75.32-.06,0-.32.12c-.32.13-.65.25-1,.36s-.81.27-1.21.39l-.84.22-.06,0c-.28.07-.56.13-.84.18l-.22,0c-.23,0-.46.08-.69.11s-.66.09-1,.11l-.29,0h0l-.77,0h0l-.76,0-.3,0c-.23,0-.47,0-.71-.07l-.16,0-.92-.15c-.26,0-.52-.1-.8-.16A22,22,0,0,1,70,107.78l-.8-.33a31.44,31.44,0,0,1-3.76-2l-.21-.13c-.56-.34-1.12-.71-1.67-1.1l-.93-.67q-1.46-1.07-2.89-2.33l-.79-.72-.78-.72L58,99.62c-.55-.52-1.08-1.07-1.59-1.64l-.11-.11-.71-.79c-.66-.74-1.3-1.5-1.9-2.3-.24-.29-.46-.58-.68-.88q-1.24-1.65-2.35-3.43l-.58-1c-.23-.39-.45-.78-.67-1.17-.32-.57-.62-1.16-.92-1.75-.48-.93-.91-1.88-1.31-2.84-.1-.23-.2-.46-.28-.69s-.25-.6-.35-.89c0-.14-.11-.28-.15-.42s-.14-.38-.2-.57-.08-.21-.11-.32c-.15-.43-.29-.88-.43-1.32s-.25-.85-.37-1.29-.25-.93-.36-1.4c0,0,0-.1,0-.15s0,0,0,0c-.16-.64-.29-1.3-.41-2,0-.25-.09-.49-.12-.75-.11-.64-.2-1.3-.27-2,0-.29-.07-.57-.09-.86s-.06-.6-.07-.9c0-.55-.07-1.11-.08-1.66,0-.33,0-.65,0-1v-25A33.37,33.37,0,0,1,75.31,9.27h.09l.69,0,1,0h0l.81,0h.32l.74,0h0l.34,0,.73.06.36,0,.24,0a34.2,34.2,0,0,1,3.83.63,33.39,33.39,0,0,1,11.51,5c.77.52,1.51,1.08,2.22,1.67l.82.69h0c.55.48,1.09,1,1.59,1.49A29.21,29.21,0,0,1,103.41,22a33.15,33.15,0,0,1,7.1,20.29C110.52,42.39,110.52,42.49,110.52,42.59Z"/><path class="cls-8" d="M126.09,69.24a54.18,54.18,0,0,1-27.59,35.7,53.7,53.7,0,0,0,6-10.75,54.38,54.38,0,0,0,2.8-8.65c.34-1.43.61-2.88.82-4.31A54.33,54.33,0,0,0,82.45,26.7c-.93-.56-1.89-1.1-2.86-1.6-.53-.29-1.07-.55-1.62-.81l-.81-.39c-.83.38-1.64.78-2.44,1.2-1,.5-1.93,1-2.86,1.6a54.33,54.33,0,0,0-25.7,54.49q.32,2.18.83,4.35a54.19,54.19,0,0,0,2.8,8.63,53.43,53.43,0,0,0,6,10.76A54.25,54.25,0,0,1,66.09,4.76l.59-.17a53,53,0,0,1,9.08-1l1.39,0h1.38a53,53,0,0,1,9.08,1l.59.17a53.71,53.71,0,0,1,25.51,16,54.24,54.24,0,0,1,12.39,48.49Z"/><path class="cls-8" d="M121,67.67a48.56,48.56,0,0,1-24.69,32l0,0a48.57,48.57,0,0,0,7.89-17.38c.3-1.29.54-2.57.73-3.86A48.48,48.48,0,0,0,93.53,39.35c-.14-.17-.3-.34-.45-.52l-.23-.26,0,0a48.32,48.32,0,0,0-10.93-9c-1.3-.78-2.64-1.51-4-2.16l-.73-.34a49.5,49.5,0,0,0-4.75,2.51,48.64,48.64,0,0,0-23,48.81c.19,1.3.44,2.61.75,3.9A48.29,48.29,0,0,0,58,99.66l-.06,0A48.62,48.62,0,0,1,33.7,44,48.76,48.76,0,0,1,44.4,24.23,48.12,48.12,0,0,1,67.25,9.91l.52-.16a48.47,48.47,0,0,1,8.14-.89h2.48a48.46,48.46,0,0,1,8.13.89l.53.16A48.16,48.16,0,0,1,109.9,24.23,48.84,48.84,0,0,1,120.59,44,48.33,48.33,0,0,1,121,67.67Z"/><path class="cls-9" d="M85.23,90.25a7.89,7.89,0,0,0-5.75-2.58,7.31,7.31,0,0,0-2.32.38,7.3,7.3,0,0,0-2.32-.38,7.92,7.92,0,0,0-5.75,2.58l-.32.35.32.35a10.64,10.64,0,0,0,16.15,0l.32-.35Z"/><path class="cls-8" d="M93.53,39.35c-.14-.17-.3-.34-.45-.52l-.23-.26.23.25A5.55,5.55,0,0,1,93.53,39.35Z"/><path class="cls-8" d="M93.08,25.1V38.84l-.23-.26,0,0a9.19,9.19,0,0,0-13.42.51,3,3,0,0,1-4.48,0,9.18,9.18,0,0,0-13.7-.22V25.1Z"/><path class="cls-10" d="M77.15,3.58V163.49H33.68a43.26,43.26,0,0,1,2.32-14q.41-1.19.89-2.36h0c.29-.72.61-1.43.94-2.13l.07-.16a42.6,42.6,0,0,1,3.15-5.52c.67-1,1.39-2,2.15-2.93.52-.65,1.06-1.28,1.61-1.89.27-.31.56-.61.84-.92l.87-.89h0l0,0,0,0h0a42.47,42.47,0,0,1,4.61-4c.83-.61,1.66-1.19,2.53-1.75l.34-.2.37-.23.37-.22.75-.43.06,0,.39-.22.38-.22h0l.33-.18L57,125l.16-.1.16-.1.19-.11.69-.43.16-.11.5-.34.27-.2.61-.43h0l0,0,0,0,.07,0,.57-.46h0v0h0A27.4,27.4,0,0,0,64.2,119,26.94,26.94,0,0,0,70,107.82s0,0,0,0l-.8-.33a31.44,31.44,0,0,1-3.76-2l-.21-.13c-.56-.34-1.12-.71-1.67-1.1l-.93-.67q-1.46-1.07-2.89-2.33l-.79-.72-.78-.72L58,99.62a48.23,48.23,0,0,1-8.19-5.45,53.43,53.43,0,0,0,6,10.76A54.25,54.25,0,0,1,66.09,4.76l.59-.17a53,53,0,0,1,9.08-1Z"/></g></g></g></svg>