<svg xmlns="http://www.w3.org/2000/svg" xmlns:xlink="http://www.w3.org/1999/xlink" viewBox="0 0 151 151"><defs><style>.cls-1{fill:#d1d3d3;}.cls-2{isolation:isolate;}.cls-3{clip-path:url(#clip-path);}.cls-4{fill:#dfb28b;}.cls-5{fill:#59b8b2;}.cls-6{fill:#fff;}.cls-7{fill:#141720;}.cls-8{fill:#1a1a1a;}.cls-9{fill:#543e36;}.cls-10{fill:#ecc19c;opacity:0.5;mix-blend-mode:multiply;}</style><clipPath id="clip-path"><circle class="cls-1" cx="75.5" cy="75.5" r="75"/></clipPath></defs><title>img-avatar-slug-6</title><g class="cls-2"><g id="_6-2" data-name="6"><circle class="cls-1" cx="75.5" cy="75.5" r="75"/><g class="cls-3"><path class="cls-4" d="M118.94,159.18H32a43.31,43.31,0,0,1,12.83-30.84c.37-.37.74-.72,1.12-1.07.57-.52,1.16-1,1.75-1.54s1.2-1,1.83-1.43c.82-.61,1.67-1.19,2.53-1.75s1.75-1.08,2.66-1.57l0,0c.35-.2.7-.39,1-.61a25.08,25.08,0,0,0,2.94-2l0,0,.11-.09a27.51,27.51,0,0,0,8.61-12.1h0a27.35,27.35,0,0,0,1.61-9.28l6.39,0,6.47,0A27.39,27.39,0,0,0,92.1,118.19l.11.09.06,0c.27.22.55.43.83.64s.78.57,1.17.83.6.39.9.57.68.41,1,.6l.08,0,.07,0c1,.56,2,1.15,2.94,1.77.32.2.64.42,1,.64s.83.59,1.23.9h0A43.36,43.36,0,0,1,118.94,159.18Z"/><path class="cls-5" d="M118.94,159.18H32a43.31,43.31,0,0,1,12.83-30.84c.37-.37.74-.72,1.12-1.07.57-.52,1.16-1,1.75-1.54s1.2-1,1.83-1.44c.82-.61,1.67-1.19,2.53-1.74s1.75-1.08,2.66-1.57l0,0c.35-.2.7-.39,1-.61a25.08,25.08,0,0,0,2.94-2l.1.09a23.36,23.36,0,0,0,16.66,7h0a23.4,23.4,0,0,0,16.66-7l.1-.1c.27.22.55.43.83.64s.78.57,1.17.83.6.39.9.57.68.41,1,.6l.08,0,.07,0c1,.56,2,1.15,2.94,1.78.32.2.64.42,1,.64s.83.59,1.23.9h0A43.36,43.36,0,0,1,118.94,159.18Z"/><path class="cls-4" d="M108.84,38.94v27.2c0,18.7-13.3,34.54-25.32,39.89a20.36,20.36,0,0,1-8,1.93h-.48a20.59,20.59,0,0,1-7.59-1.89c-12-5.32-25.4-21.18-25.4-39.93V38.94Z"/><path class="cls-6" d="M92.26,118.11a1.3,1.3,0,0,1-.06.16.89.89,0,0,1,0,.14,53.73,53.73,0,0,1-16.67,23.85A53.62,53.62,0,0,1,58.83,118.4l0-.13,0-.16.13,0,0,0a24.92,24.92,0,0,0,33.21,0l0,0Z"/><path class="cls-7" d="M108.71,62.87a4.39,4.39,0,0,0,.09-.65v.65Z"/><path class="cls-7" d="M42.14,62.87V61.54a7.15,7.15,0,0,0,.12,1.33Z"/><path class="cls-7" d="M108.84,61.54a6.29,6.29,0,0,1,0,.68V60.87A6,6,0,0,1,108.84,61.54Z"/><path class="cls-8" d="M102.93,53.59a.26.26,0,0,0-.22-.26,82.62,82.62,0,0,0-11.39-.85c-6,0-13.85,1.9-15.21,1.9H74.89c-.63,0-2.66-.41-5.27-.85a62.91,62.91,0,0,0-9.94-1,84.61,84.61,0,0,0-9.74.63c-.79.09-1.35.17-1.66.22a.26.26,0,0,0-.22.26L48,56.84a.28.28,0,0,0,.17.26l.37.12c.55.21.5,10,3.42,12.46C53.7,71.13,55.25,72,61.75,72c3.76,0,6.14-1,8.39-4.06,1.62-2.18,3.06-7.34,3.06-7.34a2.57,2.57,0,0,1,2.24-2.31h.07a2.53,2.53,0,0,1,2.3,2.31s1.43,5.16,3.06,7.34c2.25,3,4.62,4.06,8.39,4.06,6.51,0,8.06-.83,9.8-2.27,2.92-2.45,2.87-12.25,3.42-12.46l.37-.12a.28.28,0,0,0,.17-.26ZM70.14,65.19c-1,2.27-3.43,5.19-6.91,5.36-10.43.52-10.92-2.39-11.59-4.7A15.82,15.82,0,0,1,51,59.21c.27-2.31.86-3.66,1.9-4.34a4.66,4.66,0,0,1,2.2-.76,43,43,0,0,1,5.75-.26,29.94,29.94,0,0,1,4.65.35c3.71.6,6.23,1.87,6.23,3.11A23.31,23.31,0,0,1,70.14,65.19Zm29.22.66c-.68,2.31-1.16,5.22-11.59,4.7-3.48-.17-6-3.09-6.91-5.36a23.31,23.31,0,0,1-1.63-7.89c0-1.71,4.75-3.46,10.87-3.46s7.09.45,7.94,1c1,.68,1.64,2,1.91,4.34A15.82,15.82,0,0,1,99.36,65.85Z"/><path class="cls-9" d="M108.81,38.94l-.11.07H42.1v-.08C42.14,15.5,58,16.45,75.34,18.38h0l.14,0,3.58.4A37.25,37.25,0,0,0,108,9.65C115.16,14.76,116.46,33.59,108.81,38.94Z"/><path class="cls-9" d="M53.71,37.63l-.18.57c-.08.25-.16.5-.25.75l0,.08c-.08.22-.16.44-.25.66a37.81,37.81,0,0,1-6.67,11.17A18.74,18.74,0,0,0,42.16,62c0,.15,0,.3,0,.45s0,.2,0,.3c0,.34,0,.67,0,1V39l.68-.08,2-.25,2.66-.32L50.63,38Z"/><path class="cls-9" d="M108.8,39,97.2,37.64l.18.56a37.54,37.54,0,0,0,7.2,12.65c2.11,2.5,4.22,6.6,4.22,13C108.8,55.09,108.8,39,108.8,39Z"/><ellipse class="cls-9" cx="75.34" cy="37.64" rx="24.79" ry="4.7"/><polygon class="cls-9" points="75.34 99.32 70.78 99.32 75.34 108.44 79.9 99.32 75.34 99.32"/><path class="cls-10" d="M75.49,18.4V159.19H32a43.31,43.31,0,0,1,12.83-30.84c.37-.37.74-.72,1.12-1.07.57-.52,1.16-1,1.75-1.54s1.2-1,1.83-1.44c.82-.61,1.67-1.19,2.53-1.74s1.75-1.08,2.66-1.57l0,0c.35-.2.7-.39,1-.61a25.08,25.08,0,0,0,2.94-2l0,0,0-.16.13,0,0,0a27.51,27.51,0,0,0,8.61-12.1h0c-12-5.32-25.4-21.18-25.4-39.93V38.94C42.14,15.5,58,16.45,75.34,18.38h0Z"/></g></g></g></svg>