<svg xmlns="http://www.w3.org/2000/svg" xmlns:xlink="http://www.w3.org/1999/xlink" viewBox="0 0 151 151"><defs><style>.cls-1{fill:#a875a4;}.cls-2{isolation:isolate;}.cls-3{clip-path:url(#clip-path);}.cls-4{fill:#e6e7e1;}.cls-5,.cls-8{fill:#f0d0b4;}.cls-6{fill:#a0d888;}.cls-7{fill:#fff;}.cls-8{opacity:0.5;mix-blend-mode:multiply;}</style><clipPath id="clip-path"><circle class="cls-1" cx="75.5" cy="75.5" r="75"/></clipPath></defs><title>img-avatar-slug-2</title><g class="cls-2"><g id="_2" data-name="2"><circle class="cls-1" cx="75.5" cy="75.5" r="75"/><g class="cls-3"><path class="cls-4" d="M122,59.14a52.55,52.55,0,0,1-6.48,25.44,50.63,50.63,0,0,1-7,9.72c-.79.84-1.6,1.66-2.43,2.45a45,45,0,0,1-22.2,11.51,43.36,43.36,0,0,1-4.88.67h0c-1.14.09-2.3.14-3.46.14h-.06c-1.16,0-2.31,0-3.45-.14h0a44.25,44.25,0,0,1-4.8-.66,45,45,0,0,1-22.56-11.8c-.79-.75-1.55-1.52-2.29-2.33a50.63,50.63,0,0,1-7-9.91A52.6,52.6,0,0,1,29,59.14a53.48,53.48,0,0,1,2-14.47c.17-.62.36-1.24.56-1.84A50.79,50.79,0,0,1,34,36.67c.25-.55.52-1.1.8-1.64a50.93,50.93,0,0,1,4.33-7l.43-.57c.66-.86,1.34-1.7,2-2.51a47.9,47.9,0,0,1,3.6-3.7A44.8,44.8,0,0,1,67.8,9.9a43.15,43.15,0,0,1,7.67-.69h.06A44.42,44.42,0,0,1,105.82,21.3a47.94,47.94,0,0,1,3.6,3.7c.7.81,1.39,1.65,2,2.51l.43.57a50.13,50.13,0,0,1,4.33,7c.28.54.55,1.09.8,1.64a50.83,50.83,0,0,1,2.43,6.16c.2.61.39,1.22.56,1.84A53.48,53.48,0,0,1,122,59.14Z"/><path class="cls-5" d="M119,160.55H32a43.31,43.31,0,0,1,2-13.17l0-.13c.08-.25.15-.5.24-.74s.22-.64.34-1,.25-.67.39-1c0-.13.1-.27.16-.4h0c.07-.2.16-.39.25-.57l.43-1,.27-.58.07-.16c0-.07.07-.14.11-.2.26-.58.56-1.15.87-1.7.2-.37.4-.74.61-1.1.48-.85,1-1.69,1.56-2.51.23-.34.47-.69.72-1,.45-.65.93-1.29,1.43-1.9l.49-.59c.08-.11.16-.21.25-.31.29-.34.57-.66.86-1l.26-.29.16-.17.43-.46c.29-.3.57-.58.87-.88h0l.08-.07.54-.52.5-.48.09-.08c.54-.51,1.09-1,1.66-1.46l.89-.72.94-.72c.41-.3.83-.6,1.25-.89s.84-.57,1.27-.85l.34-.2c.33-.2.66-.41,1-.6s.88-.52,1.33-.76h0l.52-.3.31-.2.19-.11h0c.36-.21.7-.44,1-.67l.44-.3c.25-.16.49-.34.73-.52h0l0,0c.22-.16.44-.32.66-.49h0l.06,0,.1-.09A27.19,27.19,0,0,0,62.54,116a26.73,26.73,0,0,0,2.75-3.85,26,26,0,0,0,1.91-3.89c.12-.28.23-.56.33-.84a26.46,26.46,0,0,0,.77-2.57c.16-.61.3-1.24.41-1.87a27.82,27.82,0,0,0,.43-4.85l6.34,0h1.14l5.38,0A27.67,27.67,0,0,0,82.4,103c.11.64.25,1.27.41,1.89a25.6,25.6,0,0,0,.75,2.52c.1.29.2.57.33.86a25.74,25.74,0,0,0,1.9,3.91,26.43,26.43,0,0,0,2.48,3.52,26.16,26.16,0,0,0,3.89,3.85.5.5,0,0,0,.1.09l0,0h0l0,0a6.69,6.69,0,0,0,.55.43,1.48,1.48,0,0,0,.19.15l.07,0,0,0,0,0,0,0,0,0,0,0c.34.25.69.5,1,.73s.6.39.9.57l.84.49.19.11a.75.75,0,0,1,.14.07l.27.15q1,.53,1.87,1.11c.24.14.47.3.7.44l.3.21c.34.21.67.44,1,.68s.66.48,1,.73h0c.79.59,1.56,1.21,2.3,1.86a1.83,1.83,0,0,1,.27.23c.26.22.52.45.77.69a2,2,0,0,1,.2.18c.34.31.67.63,1,1s.68.66,1,1,.43.45.63.68.53.59.79.89.61.7.89,1.06.5.63.74,1,.52.68.76,1,.49.7.73,1,.41.61.6.91.36.57.53.87c.36.6.7,1.21,1,1.83s.71,1.34,1,2a42,42,0,0,1,2.15,5.47c.1.3.19.61.28.91.16.53.3,1.07.43,1.61.07.25.12.49.18.74s0,.2.07.3c.08.35.16.7.22,1.07s.12.61.17.92.11.57.15.86c0,.09,0,.17,0,.26s.07.44.09.66.07.58.11.88.07.66.1,1,.06.58.07.88C118.95,158.51,119,159.53,119,160.55Z"/><path class="cls-5" d="M108.88,44.92v22.7c0,.33,0,.65,0,1s0,.58,0,.88,0,.52,0,.79,0,.38,0,.57,0,.22,0,.34,0,.42-.07.62c0,.39-.08.78-.14,1.17,0,.1,0,.2,0,.3s-.06.39-.09.59v0a.55.55,0,0,0,0,.11c0,.25-.09.49-.13.74s-.15.79-.23,1.17l0,0a1.27,1.27,0,0,1,0,.17l0,0c0,.17-.07.34-.11.51l0,.11a1.62,1.62,0,0,1-.07.27c0,.15-.07.3-.1.44s0,.17-.07.25,0,.15-.06.21c-.17.67-.37,1.33-.57,2-.1.31-.2.61-.3.93l0,.1-.28.8,0,0-.1.25c-.1.26-.2.52-.3.79s-.25.63-.39.94-.24.56-.36.84l-.06.14c-.14.3-.27.59-.41.88s-.29.61-.44.91l0,0c-.29.58-.6,1.17-.91,1.74l-.44.79a48.26,48.26,0,0,1-4.19,6.1q-.31.41-.64.79c-.3.37-.61.73-.93,1.08s-.53.6-.81.89l0,0c-.79.84-1.59,1.65-2.41,2.4-.16.16-.34.31-.51.47s-.56.5-.84.74-.45.39-.68.57c-.59.48-1.18,1-1.78,1.39-.25.19-.5.37-.75.54-.41.3-.83.57-1.25.84-.23.16-.47.3-.71.44l-.11.07c-.8.49-1.61.94-2.4,1.34l-.61.3-.64.3-.81.34-.32.12c-.32.13-.65.25-1,.36s-.81.27-1.21.39l-.84.22-.06,0c-.28.07-.56.13-.84.18l-.22,0c-.23,0-.46.08-.69.11s-.66.09-1,.11l-.34,0-.77,0h0l-.76,0-.3,0c-.23,0-.47,0-.71-.07l-.16,0-.92-.15c-.26,0-.52-.1-.8-.16a23.55,23.55,0,0,1-4.3-1.45,31.44,31.44,0,0,1-3.76-2l-.21-.13c-.56-.34-1.12-.71-1.67-1.1l-.93-.67q-1.46-1.07-2.89-2.33l-.79-.72-.78-.72c-.61-.58-1.2-1.18-1.76-1.81l-.11-.11-.71-.79c-.66-.74-1.3-1.5-1.9-2.3-.24-.29-.46-.58-.68-.88Q50.08,92.27,49,90.48l-.58-1c-.23-.39-.45-.78-.67-1.17-.32-.57-.62-1.16-.92-1.75-.48-.93-.91-1.88-1.31-2.84-.1-.23-.2-.46-.28-.69s-.25-.6-.35-.89c0-.14-.11-.28-.15-.42q-.17-.44-.32-.89c-.15-.43-.29-.88-.43-1.32s-.25-.85-.37-1.29-.25-.93-.36-1.4c0,0,0-.1,0-.15s0,0,0,0c-.16-.64-.29-1.3-.41-2,0-.25-.09-.49-.12-.75-.11-.64-.2-1.3-.27-2,0-.29-.07-.57-.09-.86s-.06-.6-.07-.9c0-.55-.07-1.11-.08-1.66,0-.33,0-.65,0-1V44.92A33.39,33.39,0,0,1,73.67,11.6h.09l.69,0,1,0h0l1.06,0h.07l.74,0h0l.34,0,.73.06.36,0,.24,0a34.21,34.21,0,0,1,3.83.63,32.9,32.9,0,0,1,6.25,2.09c1,.44,1.94.93,2.88,1.46s1.61,1,2.39,1.5,1.51,1.08,2.22,1.67l.82.69h0a32.4,32.4,0,0,1,4.32,4.55,33.15,33.15,0,0,1,7.1,20.29C108.88,44.72,108.88,44.82,108.88,44.92Z"/><path class="cls-4" d="M78.53,19.46a36.4,36.4,0,0,1-36.4,36.4V42.59a33.22,33.22,0,0,1,9.32-23.12Z"/><path class="cls-4" d="M108.88,42.59V59.93A50.06,50.06,0,0,1,72.42,39.66c-4.27-5.82-8-20.63-12-14-3.32,5.53-10-5.79-10.07-6.15L67.8,9.9,92,13.59q1.23.7,2.39,1.5c.77.52,1.51,1.08,2.22,1.67l.82.69h0A32.4,32.4,0,0,1,101.77,22a33.15,33.15,0,0,1,7.1,20.29C108.88,42.39,108.88,42.49,108.88,42.59Z"/><path class="cls-4" d="M68.51,16.56,52.11,23.09,40.23,38.64V55.86h3.28L64.61,38.3l8.2-7.48h4.71l22.54,21.86s11.48-.33,11.48-.84-3.69-21-3.69-21L94.94,20.75l-18-5.35-7.17,1.17Z"/><path class="cls-6" d="M119,160.55H32a43.59,43.59,0,0,1,2.66-15c.12-.34.25-.67.39-1s.26-.66.4-1l.43-1,.27-.58.18-.37c.28-.57.57-1.15.87-1.7.2-.37.4-.74.61-1.1q1.06-1.82,2.28-3.53c.61-.85,1.25-1.69,1.92-2.49.45-.54.91-1.07,1.38-1.58l.16-.17c.43-.45.85-.9,1.3-1.34l.08-.08.54-.52.5-.48c.57-.52,1.16-1,1.75-1.54l.89-.72.94-.72c.41-.3.83-.6,1.25-.89s.85-.57,1.28-.84.87-.55,1.31-.81.89-.52,1.34-.76h0l.52-.3.5-.3h0a25.09,25.09,0,0,0,2.94-2l.1.09a23.36,23.36,0,0,0,16.66,7h0a23.4,23.4,0,0,0,16.66-7l.1-.1,0,0c.26.22.53.43.8.62l0,0,0,0,.09.06c.34.25.69.5,1,.73s.6.39.9.57l.84.49.19.11.08,0,.07,0,.25.15q1,.53,1.87,1.11c.24.14.47.3.7.44l.12.08c.32.2.64.42,1,.64l.24.17c.34.24.66.48,1,.73h0c.79.59,1.56,1.2,2.3,1.86a1.83,1.83,0,0,1,.27.23c.26.22.52.45.77.69a2,2,0,0,1,.2.18c.34.31.67.63,1,1s.68.66,1,1,.43.45.63.68.53.59.79.89.61.7.89,1.06.5.63.74,1,.52.68.76,1,.49.7.73,1,.41.61.6.91.36.57.53.87a39.69,39.69,0,0,1,2.08,3.86,42,42,0,0,1,2.15,5.47c.1.3.19.61.28.91.16.53.3,1.07.43,1.61.07.25.12.49.18.74s0,.2.07.3c.08.35.16.7.22,1.07s.12.61.17.92.11.57.15.86c0,.09,0,.17,0,.26s.07.44.09.66.07.58.11.88.07.66.1,1,.06.58.07.88C118.95,158.51,119,159.53,119,160.55Z"/><path class="cls-7" d="M92.3,119.48a1.19,1.19,0,0,1-.06.16h0a.89.89,0,0,1,0,.14,53.73,53.73,0,0,1-16.67,23.85,53.62,53.62,0,0,1-16.66-23.87l0-.13h0l0-.15.13,0h0a24.92,24.92,0,0,0,33.21,0h0Z"/><path class="cls-8" d="M75.53,9.21V160.55H32a43.31,43.31,0,0,1,2-13.17l0-.13c.08-.25.15-.5.24-.74s.22-.64.34-1,.25-.67.39-1c0-.13.1-.27.16-.4h0c.07-.2.16-.39.25-.57l.43-1,.27-.58.07-.16c0-.07.07-.14.11-.2.26-.58.56-1.15.87-1.7.2-.37.4-.74.61-1.1.48-.85,1-1.69,1.56-2.51.23-.34.47-.69.72-1,.45-.65.93-1.29,1.43-1.9l.49-.59c.08-.11.16-.21.25-.31.29-.34.57-.66.86-1l.26-.29.16-.17.43-.46c.29-.3.57-.58.87-.88h0l.08-.07.54-.52.5-.48.09-.08c.54-.51,1.09-1,1.66-1.46l.89-.72.94-.72c.41-.3.83-.6,1.25-.89s.84-.57,1.27-.85l.34-.2c.33-.2.66-.41,1-.6s.88-.52,1.33-.76h0l.52-.3.31-.2.19-.11h0c.36-.21.7-.44,1-.67l.44-.3c.25-.16.49-.34.73-.52h0l0,0c.22-.16.44-.32.66-.49h0l.06,0,0-.15.13,0h0A27.19,27.19,0,0,0,62.54,116a26.73,26.73,0,0,0,2.75-3.85,26,26,0,0,0,1.91-3.89,45,45,0,0,1-22.56-11.8c-.79-.75-1.55-1.52-2.29-2.33a50.63,50.63,0,0,1-7-9.91A52.6,52.6,0,0,1,29,59.14a53.48,53.48,0,0,1,2-14.47c.17-.62.36-1.24.56-1.84A50.79,50.79,0,0,1,34,36.67c.25-.55.52-1.1.8-1.64a50.93,50.93,0,0,1,4.33-7l.43-.57c.66-.86,1.34-1.7,2-2.51a47.9,47.9,0,0,1,3.6-3.7A44.8,44.8,0,0,1,67.8,9.9a43.15,43.15,0,0,1,7.67-.69Z"/></g></g></g></svg>