<svg xmlns="http://www.w3.org/2000/svg" xmlns:xlink="http://www.w3.org/1999/xlink" viewBox="0 0 151 151"><defs><style>.cls-1{fill:#eb6d4a;}.cls-2{isolation:isolate;}.cls-3{clip-path:url(#clip-path);}.cls-10,.cls-4{fill:#ecc19c;}.cls-5{fill:#c7d4e2;}.cls-6{fill:#435363;}.cls-7{fill:#e7ecf2;}.cls-8{fill:#543e36;}.cls-9{fill:#141720;}.cls-10{opacity:0.5;mix-blend-mode:multiply;}</style><clipPath id="clip-path"><circle class="cls-1" cx="75.5" cy="75.5" r="75"/></clipPath></defs><title>img-avatar-slug-7</title><g class="cls-2"><g id="_7" data-name="7"><circle class="cls-1" cx="75.5" cy="75.5" r="75"/><g class="cls-3"><path class="cls-4" d="M108.88,42.59V67.51c0,.31,0,.62,0,.93v.15c0,.42,0,.84-.07,1.26,0,.14,0,.28,0,.42s0,.1,0,.14,0,.27,0,.41,0,.44-.07.66a.4.4,0,0,1,0,.1.48.48,0,0,1,0,.11c0,.11,0,.21,0,.31s0,.16,0,.25a.82.82,0,0,1,0,.13c-.06.49-.12,1-.2,1.47l-.07.44c0,.14,0,.28-.07.42v0c-.07.34-.12.67-.2,1a1.52,1.52,0,0,1,0,.2c0,.07,0,.13,0,.19l0,.11a.36.36,0,0,1,0,0c0,.16-.07.33-.11.49a.22.22,0,0,1,0,.1.36.36,0,0,1,0,.08.15.15,0,0,1,0,.07c0,.16-.07.32-.11.48v0a4.63,4.63,0,0,1-.12.45v0c-.16.66-.36,1.32-.57,2v0c-.1.31-.2.61-.3.93l0,.1-.29.84-.1.25c-.1.26-.2.52-.3.79s-.25.63-.39.94-.24.56-.36.84l-.06.14c-.14.3-.27.59-.41.88s-.29.61-.44.91c-.3.6-.61,1.2-.93,1.78l-.44.79a48.26,48.26,0,0,1-4.19,6.1q-.31.41-.64.79c-.3.37-.61.73-.93,1.08s-.56.62-.84.93l-.59.62c-.6.61-1.2,1.2-1.81,1.76-.16.16-.34.31-.51.47s-.56.5-.84.74-.45.39-.68.57c-.59.48-1.18,1-1.78,1.39-.25.19-.5.37-.75.54-.41.3-.83.57-1.25.84-.23.16-.47.3-.71.44-.84.52-1.68,1-2.52,1.4l-.61.3-.64.3-.81.34-.32.12c-.32.13-.65.25-1,.36s-.81.27-1.21.39l-.84.22-.06,0c-.28.07-.56.13-.84.18l-.22,0c-.23,0-.46.08-.69.11s-.66.09-1,.11l-.34,0-.78,0h0l-.75,0-.3,0c-.23,0-.47,0-.71-.07l-.16,0-.92-.15c-.26,0-.52-.1-.8-.16a23.55,23.55,0,0,1-4.3-1.45,31.44,31.44,0,0,1-3.76-2c-.63-.39-1.26-.8-1.89-1.23l-.93-.67q-1.46-1.07-2.89-2.33l-.79-.72-.78-.72q-1-.92-1.87-1.92l-.71-.79c-.66-.74-1.3-1.5-1.9-2.3-.24-.29-.46-.58-.68-.88Q50.08,92.27,49,90.48l-.58-1c-.23-.39-.45-.78-.67-1.17a44.78,44.78,0,0,1-2.23-4.59c-.1-.23-.2-.46-.28-.69s-.25-.6-.35-.89-.32-.87-.47-1.3S44.1,80,44,79.54s-.25-.85-.37-1.29-.25-.91-.35-1.38a0,0,0,0,1,0,0s0-.1,0-.15q-.23-1-.42-2c-.16-.89-.3-1.79-.39-2.7,0-.29-.07-.57-.09-.86s-.06-.6-.07-.9c0-.55-.07-1.11-.08-1.66,0-.35,0-.7,0-1v-25A33.33,33.33,0,0,1,75.47,9.22h0A33.78,33.78,0,0,1,82.9,10a33.42,33.42,0,0,1,25.5,26.91A33.62,33.62,0,0,1,108.88,42.59Z"/><path class="cls-4" d="M119,160.54H32a43.26,43.26,0,0,1,2.32-14q.41-1.19.89-2.36h0c.31-.78.66-1.54,1-2.3a43,43,0,0,1,5.3-8.44c.52-.65,1.06-1.28,1.61-1.89.27-.31.56-.61.84-.92l.87-.89h0c.74-.73,1.49-1.43,2.28-2.11l1-.84h0l.07,0,.11-.1c.41-.32.81-.65,1.23-1l1.21-.87,0,0,.3-.2c.17-.12.35-.25.52-.34h0l.46-.3c.43-.28.87-.54,1.31-.8s.89-.52,1.34-.76a0,0,0,0,1,0,0h0l.75-.43.29-.17c.34-.2.68-.42,1-.64s.62-.42.92-.65l.07,0,.25-.19c.24-.16.46-.34.69-.53h0c.35-.29.7-.57,1-.89a.33.33,0,0,0,.08-.07c.34-.3.67-.61,1-.93l.66-.67a26.54,26.54,0,0,0,2.48-3,27.38,27.38,0,0,0,3.48-6.63v0h0a27.43,27.43,0,0,0,1.61-9.29l6.33,0h0l6.52,0a27.44,27.44,0,0,0,1.57,9.18h0A27.21,27.21,0,0,0,87,114.06a27.49,27.49,0,0,0,5.29,5.61h0c.25.2.49.4.74.58l.16.12q.44.33.91.64l.19.13.27.18a3.16,3.16,0,0,0,.35.22l.28.17.39.24.63.36a.83.83,0,0,1,.15.07l1.07.61c.36.2.7.42,1.06.64l.5.32.37.25h0l0,0,.1.07.26.19q.75.49,1.48,1l.25.18h0c.41.31.82.62,1.22,1l.07,0,.06,0,.43.35c.6.49,1.18,1,1.75,1.54.39.36.79.73,1.17,1.11h0c.49.49,1,1,1.44,1.51s.93,1,1.38,1.57A43.25,43.25,0,0,1,119,160.54Z"/><path class="cls-5" d="M119,160.54H32a43.26,43.26,0,0,1,2.32-14q.41-1.19.89-2.36h0c.31-.78.66-1.54,1-2.3a43,43,0,0,1,5.3-8.44c.52-.65,1.06-1.28,1.61-1.89.27-.31.56-.61.84-.92l.87-.89c.74-.74,1.49-1.43,2.28-2.11l1-.84.07-.06.11-.09c.41-.33.81-.64,1.23-1s.83-.61,1.25-.89l.82-.55.46-.3c.43-.28.87-.55,1.31-.81s.89-.52,1.34-.76a0,0,0,0,1,0,0h0l.75-.43.29-.16c.34-.2.68-.43,1-.65s.62-.42.92-.65l.07,0,.25-.19.21-.17.47-.37h0a23.32,23.32,0,0,0,6.8,4.83,22.67,22.67,0,0,0,6.89,2,4.13,4.13,0,0,0,.46.07q.86.1,1.75.12l.82,0h.07l.8,0a17.34,17.34,0,0,0,1.74-.11,4.57,4.57,0,0,0,.48-.07,22.83,22.83,0,0,0,6.87-2,23.59,23.59,0,0,0,6.86-4.85h0c.25.2.49.39.74.58l.16.12c.3.22.6.44.91.65l.19.13.27.17a3.16,3.16,0,0,0,.35.22l.28.18.39.23.63.36a.83.83,0,0,1,.15.07l1.07.61,1.06.65.5.31.37.25,0,0,.1.07,0,0c.66.43,1.31.89,1.94,1.37h0c.41.31.82.62,1.22,1l.07,0,.06,0h0l.43.35c1,.84,2,1.73,2.92,2.66.49.49,1,1,1.44,1.51s.93,1,1.38,1.57A43.25,43.25,0,0,1,119,160.54Z"/><path class="cls-6" d="M51.63,124.21V169.3H48.15V126.75l.07,0,.11-.09h0c.41-.32.81-.65,1.23-1l1.21-.87,0,0h0l.3-.2Z"/><polygon class="cls-6" points="99.37 124.22 99.37 160.54 99.37 169.3 102.86 169.3 102.86 160.54 102.86 126.76 99.37 124.22"/><path class="cls-7" d="M75.5,121.39l0,0v0l-.57.94h0l-2.11,3.55-.34.57-.7,1.16-.24.41a4.74,4.74,0,0,1-7.91.34l-5.79-8h0l.48-.35.47-.38h0c.36-.29.7-.57,1-.89a.33.33,0,0,0,.08-.07c.34-.3.67-.61,1-.93s.45-.44.66-.67a26.54,26.54,0,0,0,2.48-3l11.43,7.27h0Z"/><path class="cls-7" d="M93.2,120.38l-5.79,8.05a4.74,4.74,0,0,1-7.91-.34h0l-4-6.65,0-.06L87,114.06a27.49,27.49,0,0,0,5.29,5.61C92.6,119.92,92.9,120.16,93.2,120.38Z"/><path class="cls-8" d="M108.87,67.53c0,.36,0,.72,0,1.08,0,.56,0,1.11-.08,1.66,0,.19,0,.38,0,.57s0,.22,0,.34l0,.31,0,.2a.48.48,0,0,1,0,.11l0,.46a.82.82,0,0,1,0,.13c-.06.49-.12,1-.2,1.47l-.07.44-.07.43c-.07.34-.12.67-.2,1,0,.07,0,.14,0,.2s0,.13,0,.19l0,0a.16.16,0,0,1,0,.07.36.36,0,0,1,0,0c0,.16-.07.33-.11.49a.22.22,0,0,1,0,.1.36.36,0,0,1,0,.08.15.15,0,0,1,0,.07.06.06,0,0,1,0,0,4.48,4.48,0,0,1-.12.48,1.07,1.07,0,0,1,0,.22c0,.07,0,.14,0,.2v0c-.17.66-.37,1.32-.57,2v0c-.1.31-.2.61-.3.93l0,.1-.29.84-.1.25c-.1.26-.2.52-.3.79s-.25.63-.39.94-.24.56-.36.84l-.06.14c-.14.3-.27.59-.41.88s-.29.61-.44.91c-.3.6-.61,1.2-.93,1.78l-.44.79a48.26,48.26,0,0,1-4.19,6.1q-.31.41-.64.79c-.3.37-.61.73-.93,1.08s-.56.62-.84.93l-.59.62c-.6.62-1.2,1.21-1.82,1.78-.16.16-.34.31-.51.47s-.56.5-.84.74-.45.39-.68.57c-.59.48-1.18,1-1.78,1.39-.25.19-.5.37-.75.54-.41.3-.83.57-1.25.84-.23.16-.47.3-.71.44-.84.52-1.68,1-2.52,1.4l-.61.3-.62.29h0l-.81.34-.32.12c-.32.13-.65.25-1,.36s-.81.27-1.21.39l-.84.22-.06,0c-.28.07-.56.13-.84.18l-.22,0c-.23,0-.46.08-.69.11s-.66.09-1,.11l-.34,0-.78,0h0l-.76,0-.3,0c-.23,0-.47,0-.71-.07l-.16,0-.92-.15c-.26,0-.52-.1-.8-.16a23.56,23.56,0,0,1-4.3-1.45,31.44,31.44,0,0,1-3.76-2c-.63-.38-1.25-.79-1.89-1.23l-.93-.67q-1.46-1.07-2.89-2.33l-.79-.72-.78-.72q-1-.92-1.87-1.92l-.71-.79c-.66-.74-1.3-1.5-1.9-2.3-.24-.29-.46-.58-.68-.88Q50.08,92.28,49,90.5l-.58-1c-.23-.39-.45-.78-.67-1.17a44.78,44.78,0,0,1-2.23-4.59c-.1-.23-.2-.46-.28-.69s-.25-.6-.35-.89-.32-.87-.47-1.3S44.1,80,44,79.56s-.25-.85-.37-1.29-.25-.93-.36-1.4c0,0,0-.1,0-.15q-.23-1-.42-2c-.16-.89-.3-1.79-.39-2.7,0-.29-.07-.57-.09-.86s-.06-.6-.07-.9c0-.55-.07-1.11-.08-1.66,0-.36,0-.72,0-1.08v0L47.45,78l9.16,4,10.83,1h0l8,.73h0l7.51.68h0l16.75,1.51Z"/><path class="cls-8" d="M75.53,72.79v8.07h0V93.3h0l0,0L43.24,76.88h0s0-.1,0-.15q-.23-1-.42-2c-.16-.89-.3-1.79-.39-2.7,0-.29-.07-.57-.09-.86s-.06-.6-.07-.9c0-.55-.07-1.11-.08-1.66,0-.36,0-.72,0-1.08v-9.8c0,.14,0,.28,0,.42a32.63,32.63,0,0,0,1.17,7.64,33.1,33.1,0,0,0,2.09,5.63h0c2.15,4.47,5,7.5,7.67,8l.5.06a28.83,28.83,0,0,0,3.2.18c4.18,0,7.89-3.36,10.23-4.72l0,0,.35-.22.1-.06a16.58,16.58,0,0,1,8-1.84Z"/><path class="cls-8" d="M108.88,57.73v9.8a40.13,40.13,0,0,1-.66,7.2c-.17.93-.37,1.86-.6,2.78L100,88.44,75.51,93.3h0l0-20.51h.07a16.62,16.62,0,0,1,8,1.84l.09.06.36.22,0,0c2.34,1.36,6,4.72,10.23,4.72a28.84,28.84,0,0,0,3.2-.18l.51-.06c2.64-.49,5.52-3.52,7.66-8h0a33.1,33.1,0,0,0,2.09-5.63A32.27,32.27,0,0,0,108.87,58C108.88,57.94,108.88,57.84,108.88,57.73Z"/><ellipse class="cls-4" cx="75.49" cy="83.4" rx="8.18" ry="2.53"/><path class="cls-8" d="M108.88,42.59v9.33c-2.73-4.83-4.17-9.63-4.2-13.59-5.83,4.07-16.72,6.8-29.2,6.82h-.1c-12.52,0-23.46-2.75-29.3-6.82a28.9,28.9,0,0,1-3.94,13.11V42.59A33.33,33.33,0,0,1,75.47,9.22h0A33.78,33.78,0,0,1,82.9,10a33.42,33.42,0,0,1,25.5,26.91A33.62,33.62,0,0,1,108.88,42.59Z"/><path class="cls-9" d="M74.9,126.63,67.72,129a1.64,1.64,0,0,1-2.16-1.55v-6A1.64,1.64,0,0,1,67.72,120l7.18,2.42Z"/><path class="cls-9" d="M76.09,126.63,83.27,129a1.64,1.64,0,0,0,2.16-1.55v-6A1.64,1.64,0,0,0,83.27,120l-7.18,2.42Z"/><rect class="cls-9" x="72.79" y="121.39" width="5.42" height="6.23" rx="2.01" ry="2.01"/><path class="cls-10" d="M75.47,9.22V160.54H51.63v8.75H48.15v-8.75H32a43.26,43.26,0,0,1,2.32-14q.41-1.19.89-2.36h0c.31-.78.66-1.54,1-2.3a43,43,0,0,1,5.3-8.44c.52-.65,1.06-1.28,1.61-1.89.27-.31.56-.61.84-.92l.87-.89h0c.74-.73,1.49-1.43,2.28-2.11l1-.84h0l.07,0,.11-.1c.41-.32.81-.65,1.23-1l1.21-.87,0,0,.3-.2.52-.35.46-.3c.43-.28.87-.54,1.31-.8s.89-.52,1.34-.76a0,0,0,0,1,0,0h0l.75-.43.29-.17c.34-.2.68-.42,1-.64s.62-.42.92-.65l.07,0h0l.48-.35.47-.38h0c.35-.29.7-.57,1-.89a.33.33,0,0,0,.08-.07c.34-.3.67-.61,1-.93l.66-.67a26.54,26.54,0,0,0,2.48-3,27.38,27.38,0,0,0,3.48-6.63,31.44,31.44,0,0,1-3.76-2c-.63-.38-1.25-.79-1.89-1.23l-.93-.67q-1.46-1.07-2.89-2.33l-.79-.72-.78-.72q-1-.92-1.87-1.92l-.71-.79c-.66-.74-1.3-1.5-1.9-2.3-.24-.29-.46-.58-.68-.88Q50.08,92.28,49,90.5l-.58-1c-.23-.39-.45-.78-.67-1.17a44.78,44.78,0,0,1-2.23-4.59c-.1-.23-.2-.46-.28-.69s-.25-.6-.35-.89-.32-.87-.47-1.3S44.1,80,44,79.56s-.25-.85-.37-1.29-.25-.93-.36-1.4c0,0,0-.1,0-.15q-.23-1-.42-2c-.16-.89-.3-1.79-.39-2.7,0-.29-.07-.57-.09-.86s-.06-.6-.07-.9c0-.55-.07-1.11-.08-1.66,0-.36,0-.72,0-1.08v-9.8c0,.14,0,.28,0,.42V42.59A33.33,33.33,0,0,1,75.47,9.22Z"/></g></g></g></svg>