<?xml version="1.0" encoding="utf-8"?>
<!-- Generator: Adobe Illustrator 19.2.1, SVG Export Plug-In . SVG Version: 6.00 Build 0)  -->
<svg version="1.1" id="Layer_1" xmlns="http://www.w3.org/2000/svg" xmlns:xlink="http://www.w3.org/1999/xlink" x="0px" y="0px"
	 viewBox="0 0 85.8 75.7" style="enable-background:new 0 0 85.8 75.7;" xml:space="preserve">
<path d="M57.4,7.3c0,3.9-3.1,7-7,7s-7-3.1-7-7s3.1-7,7-7S57.4,3.5,57.4,7.3z M0.4,75.3h37l-3-12h-15l-7-12l-9,5L0.4,75.3z
	 M49.8,48.8l-6.4,9.6l3,17h10l-2-14l8-5l5,12l13,6l4-7.7l-9-6.3l-3.5-18.8l12.2-4l1.3-0.2l-3-13l-17-10l-20,7L34.5,49.6l-5.8,1.9
	l-1.4-3.1l-10,4l4,7h10.8l-1.8-4.2L49.8,48.8z M50.4,34.3l1.2,9.6l-7.2,2.4L50.4,34.3z M71.1,37.6l-1.7-9.2l6.9,3l0.6,4.3L71.1,37.6
	z"/>
</svg>
